titillium_black.sfdir
StartChar: exclam
Encoding: 33 33 144
Width: 290
Flags: MW
HStem: 0 198<31 259 31 259>
VStem: 31 228<0 198 0 198>
LayerCount: 2
Back
Fore
SplineSet
31 0 m 1
 31 198 l 1
 259 198 l 1
 259 0 l 1
 31 0 l 1
38 244 m 1
 24 670 l 1
 266 670 l 1
 252 244 l 1
 38 244 l 1
EndSplineSet
EndChar
StartChar: quotedbl
Encoding: 34 34 227
Width: 544
Flags: MW
HStem: 420 250<45 45 45 221 323 499 323 323>
VStem: 13 517<670 670>
LayerCount: 2
Back
Fore
SplineSet
45 420 m 1
 13 670 l 1
 252 670 l 1
 221 420 l 1
 45 420 l 1
323 420 m 1
 291 670 l 1
 530 670 l 1
 499 420 l 1
 323 420 l 1
EndSplineSet
EndChar
StartChar: numbersign
Encoding: 35 35 149
Width: 550
Flags: MW
HStem: 0 21G<57 57 57 233 295 295 295 472> 113 177<12 60 5 65 12 236 241 298 480 532> 370 177<19 67 12 71 247 305 19 243 486 537>
VStem: 58.5 176 66 176 73 176 296.5 177 304 177 311 177
LayerCount: 2
Back
Fore
SplineSet
57 0 m 1xf2
 60 113 l 1
 5 113 l 1
 12 290 l 1xf2
 65 290 l 1
 67 370 l 1
 12 370 l 1
 19 547 l 1xea
 71 547 l 1
 75 670 l 1
 251 670 l 1
 247 547 l 1
 309 547 l 1
 313 670 l 1
 490 670 l 1
 486 547 l 1
 544 547 l 1
 537 370 l 1xe480
 482 370 l 1
 480 290 l 1
 536 290 l 1
 532 113 l 1xf1
 475 113 l 1
 472 0 l 1
 295 0 l 1
 298 113 l 1
 236 113 l 1
 233 0 l 1
 57 0 l 1xf2
243 370 m 1xe9
 241 290 l 1
 303 290 l 1
 305 370 l 1
 243 370 l 1xe9
EndSplineSet
EndChar
StartChar: dollar
Encoding: 36 36 143
Width: 550
Flags: MW
HStem: -12 21G<247 247 309 309> -12 186<247 247 219 309> 483 186<247 309 247 334>
VStem: 7 229<458.5 472 458.5 529.5> 247 62<-85 -12 -85 -12 669 751> 318 230<189 204>
LayerCount: 2
Back
Fore
SplineSet
526 645 m 1xa8
 520 468 l 1
 520 468 382 483 286 483 c 0
 246 483 236 479 236 465 c 0
 236 452 243 447 306 433 c 0
 493 391 548 367 548 213 c 0xbc
 548 52 463 -7 309 -12 c 1
 309 -85 l 1
 247 -85 l 1
 247 -12 l 1xa8
 122 -6 12 23 12 23 c 1
 21 196 l 1
 21 196 171 174 267 174 c 0
 307 174 318 181 318 197 c 0
 318 211 311 213 243 223 c 0
 59 252 7 303 7 440 c 0x7c
 7 619 96 666 247 669 c 1
 247 751 l 1
 309 751 l 1
 309 669 l 1
 408 664 526 645 526 645 c 1xa8
EndSplineSet
EndChar
StartChar: percent
Encoding: 37 37 251
Width: 666
Flags: MW
HStem: -12 107<498 512.5 498 561> 239 106<497.5 513> 311 107<154 168.5 154 217> 562 106<153.5 169> 672 20G<430 430> 681 20G<386 386>
VStem: 17 144 161 144 361 144 505 144
LayerCount: 2
Back
Fore
SplineSet
228 -59 m 1xd680
 386 701 l 1xd580
 430 692 l 1xca80
 271 -67 l 1
 228 -59 l 1xd680
161 668 m 0
 274 668 305 618 305 490 c 0xb580
 305 362 273 311 161 311 c 0
 50 311 17 362 17 490 c 0xb680
 17 618 53 668 161 668 c 0
161 562 m 0xb680
 146 562 143 560 143 490 c 0
 143 420 147 418 161 418 c 0
 176 418 179 420 179 490 c 0
 179 560 177 562 161 562 c 0xb680
505 345 m 0xd640
 618 345 649 295 649 167 c 0xd640
 649 39 617 -12 505 -12 c 0
 394 -12 361 39 361 167 c 0xd680
 361 295 397 345 505 345 c 0xd640
505 239 m 0xd680
 490 239 487 237 487 167 c 0
 487 97 491 95 505 95 c 0
 520 95 523 97 523 167 c 0
 523 237 521 239 505 239 c 0xd680
EndSplineSet
EndChar
StartChar: ampersand
Encoding: 38 38 246
Width: 702
Flags: MW
HStem: -13 181<283 313.5 283 338> 543 140<324 345>
VStem: 6 226<209.5 235.5 209.5 244.5> 87 217<486 513 486 557> 365 220<484 515>
LayerCount: 2
Back
Fore
SplineSet
337 683 m 0xd8
 476 683 585 646 585 502 c 0
 585 412 570 376 440 342 c 1
 499 291 l 1
 505 303 511 317 515 331 c 1
 697 324 l 1
 682 266 664 213 639 168 c 1
 704 112 l 1
 658 -13 l 1
 523 42 l 1
 465 6 389 -13 287 -13 c 0
 91 -13 6 34 6 190 c 0xe8
 6 299 47 348 114 377 c 1
 92 410 87 442 87 500 c 0
 87 614 157 683 337 683 c 0xd8
304 498 m 0
 304 474 311 458 329 440 c 1
 342 449 365 470 365 498 c 0
 365 532 355 543 335 543 c 0
 313 543 304 528 304 498 c 0
308 168 m 0xe0
 319 168 331 169 343 172 c 1
 236 262 l 1
 233 252 232 242 232 229 c 0
 232 190 258 168 308 168 c 0xe0
EndSplineSet
EndChar
StartChar: quotesingle
Encoding: 39 39 228
Width: 266
Flags: MW
HStem: 420 250<45 45 45 221>
VStem: 13 239<670 670>
LayerCount: 2
Back
Fore
SplineSet
45 420 m 1
 13 670 l 1
 252 670 l 1
 221 420 l 1
 45 420 l 1
EndSplineSet
EndChar
StartChar: parenleft
Encoding: 40 40 229
Width: 326
Flags: MW
HStem: -125 875<115 318 115 318>
VStem: 16 227<193 410.5 193 431>
LayerCount: 2
Back
Fore
SplineSet
115 750 m 1
 318 750 l 1
 318 750 243 520 243 301 c 0
 243 85 318 -125 318 -125 c 1
 115 -125 l 1
 115 -125 16 41 16 301 c 0
 16 561 115 750 115 750 c 1
EndSplineSet
Substitution2: "'case' Case-Sensitive Forms in Latin lookup 4 subtable" parenleft.cap
EndChar
StartChar: parenright
Encoding: 41 41 230
Width: 326
Flags: MW
HStem: -120 875<8 211 8 211>
VStem: 83 227<219.5 437>
LayerCount: 2
Back
Fore
SplineSet
211 -120 m 1
 8 -120 l 1
 8 -120 83 110 83 329 c 0
 83 545 8 755 8 755 c 1
 211 755 l 1
 211 755 310 589 310 329 c 0
 310 69 211 -120 211 -120 c 1
EndSplineSet
Substitution2: "'case' Case-Sensitive Forms in Latin lookup 4 subtable" parenright.cap
EndChar
StartChar: asterisk
Encoding: 42 42 247
Width: 415
Flags: MW
HStem: 472.5 126.5 676 20G<97 97>
VStem: 19 371<588 588>
LayerCount: 2
Back
Fore
SplineSet
390 469 m 1
 289 476 l 1
 327 381 l 1
 202 340 l 1
 176 438 l 1
 98 373 l 1
 20 480 l 1
 105 534 l 1
 19 588 l 1
 97 696 l 1
 174 631 l 1
 199 730 l 1
 326 689 l 1
 288 595 l 1
 390 603 l 1
 390 469 l 1
EndSplineSet
EndChar
StartChar: plus
Encoding: 43 43 252
Width: 550
Flags: MW
HStem: 164 180<44 185 44 185 365 506>
VStem: 185 180<23 164 23 164 344 483>
LayerCount: 2
Back
Fore
SplineSet
44 164 m 1
 44 344 l 1
 185 344 l 1
 185 483 l 1
 365 483 l 1
 365 344 l 1
 506 344 l 1
 506 164 l 1
 365 164 l 1
 365 23 l 1
 185 23 l 1
 185 164 l 1
 44 164 l 1
EndSplineSet
EndChar
StartChar: comma
Encoding: 44 44 231
Width: 289
Flags: MW
HStem: -103 296<13 277 35 198>
VStem: 13 264
LayerCount: 2
Back
Fore
SplineSet
13 -103 m 1
 35 193 l 1
 277 193 l 1
 198 -103 l 1
 13 -103 l 1
EndSplineSet
EndChar
StartChar: hyphen
Encoding: 45 45 232
Width: 356
Flags: MW
HStem: 161 181<29 327 29 327>
VStem: 29 298<161 342 161 342>
LayerCount: 2
Back
Fore
SplineSet
29 161 m 1
 29 342 l 1
 327 342 l 1
 327 161 l 1
 29 161 l 1
EndSplineSet
EndChar
StartChar: period
Encoding: 46 46 233
Width: 282
Flags: MW
HStem: 0 199<27 255 27 255>
VStem: 27 228<0 199 0 199>
LayerCount: 2
Back
Fore
SplineSet
27 0 m 1
 27 199 l 1
 255 199 l 1
 255 0 l 1
 27 0 l 1
EndSplineSet
EndChar
StartChar: slash
Encoding: 47 47 386
Width: 550
Flags: MW
HStem: 676 21G<535 535>
VStem: 15 520
LayerCount: 2
Back
Fore
SplineSet
15 -30 m 1
 318 720 l 1
 535 676 l 1
 232 -74 l 1
 15 -30 l 1
EndSplineSet
Substitution2: "'frac' Diagonal Fractions in Latin lookup 3 subtable" fraction
EndChar
StartChar: zero
Encoding: 48 48 415
Width: 550
Flags: MW
HStem: -13 188<260.5 287.5 260.5 374> 484 188<260 288>
VStem: 13 227<263 397 263 448> 308 227<263 397>
LayerCount: 2
Back
Fore
SplineSet
274 672 m 0
 475 672 535 566 535 330 c 0
 535 94 474 -13 274 -13 c 0
 74 -13 13 94 13 330 c 0
 13 566 79 672 274 672 c 0
274 484 m 0
 246 484 240 464 240 330 c 0
 240 196 247 175 274 175 c 0
 301 175 308 196 308 330 c 0
 308 464 302 484 274 484 c 0
EndSplineSet
Substitution2: "'frac' Diagonal Fractions in Latin lookup 1 subtable" zerosuperior
EndChar
StartChar: one
Encoding: 49 49 416
Width: 550
Flags: MW
HStem: 0 21G<240 467 240 240>
VStem: 240 227<0 416 416 416>
LayerCount: 2
Back
Fore
SplineSet
42 523 m 1
 276 659 l 1
 467 659 l 1
 467 0 l 1
 240 0 l 1
 240 416 l 1
 102 361 l 1
 42 523 l 1
EndSplineSet
Substitution2: "'frac' Diagonal Fractions in Latin lookup 1 subtable" onesuperior
EndChar
StartChar: two
Encoding: 50 50 445
Width: 550
Flags: MW
HStem: 0 180<296 501 296 501> 481 193<205.5 228.5>
VStem: 43 462<0 540 172 540> 276 229<416.5 459>
LayerCount: 2
Back
Fore
SplineSet
501 0 m 1xa0
 43 0 l 1
 43 172 l 1
 130 256 l 2
 223 347 276 389 276 441 c 0
 276 477 259 481 198 481 c 0
 134 481 55 466 55 466 c 1
 45 637 l 1
 45 637 149 674 262 674 c 0
 412 674 505 606 505 474 c 0xd0
 505 359 472 303 363 227 c 2
 296 180 l 1
 501 180 l 1
 501 0 l 1xa0
EndSplineSet
Substitution2: "'frac' Diagonal Fractions in Latin lookup 1 subtable" twosuperior
EndChar
StartChar: three
Encoding: 51 51 417
Width: 550
Flags: MW
HStem: -13 191<201.5 238 186.5 333.5> 243 177<92 224 224 233 92 224> 481 191<190 230>
VStem: 35 479<13 244> 286 228<195 220.5>
LayerCount: 2
Back
Fore
SplineSet
45 472 m 1xf0
 40 643 l 1
 40 643 155 672 225 672 c 0
 414 672 505 628 505 482 c 0
 505 408 489 377 444 345 c 1
 489 310 514 281 514 207 c 0
 514 33 419 -13 248 -13 c 0
 155 -13 35 13 35 13 c 1
 41 188 l 1
 41 188 156 178 217 178 c 0
 259 178 286 180 286 210 c 0
 286 231 274 239 233 243 c 1xe8
 92 243 l 1
 92 420 l 1
 224 420 l 2
 263 420 278 429 278 451 c 0
 278 475 251 481 209 481 c 0
 141 481 45 472 45 472 c 1xf0
EndSplineSet
Substitution2: "'frac' Diagonal Fractions in Latin lookup 1 subtable" threesuperior
EndChar
StartChar: four
Encoding: 52 52 446
Width: 550
Flags: MW
HStem: 0 21G<289 289 289 516> 80 188<241 289 516 541>
VStem: 289 227<0 80 0 80>
LayerCount: 2
Back
Fore
SplineSet
289 0 m 1
 289 80 l 1
 18 80 l 1
 18 242 l 1
 108 659 l 1
 370 659 l 1
 241 268 l 1
 290 268 l 1
 310 381 l 1
 516 388 l 1
 516 268 l 1
 541 268 l 1
 541 80 l 1
 516 80 l 1
 516 0 l 1
 289 0 l 1
EndSplineSet
Substitution2: "'frac' Diagonal Fractions in Latin lookup 1 subtable" foursuperior
EndChar
StartChar: five
Encoding: 53 53 447
Width: 550
Flags: MW
HStem: -13 182<228.5 275 214 355.5> 224 206<244 380.5> 459 200<223 506 223 223>
VStem: 41 179.5 310 221<186.5 206>
LayerCount: 2
Back
Fore
SplineSet
48 659 m 1
 506 659 l 1
 506 459 l 1
 223 459 l 1xb8
 218 415 l 1
 218 415 261 430 307 430 c 0
 454 430 531 382 531 217 c 0
 531 48 430 -13 281 -13 c 0
 176 -13 17 26 17 26 c 1
 34 189 l 1
 34 189 169 169 259 169 c 0
 291 169 310 177 310 196 c 0
 310 216 296 224 262 224 c 0
 226 224 182 212 182 212 c 1
 34 230 l 1xf8
 48 659 l 1
EndSplineSet
Substitution2: "'frac' Diagonal Fractions in Latin lookup 1 subtable" fivesuperior
EndChar
StartChar: six
Encoding: 54 54 212
Width: 550
Flags: MW
HStem: -13 178<260.5 301.5 260.5 359> 262 177<289 300.5> 489 183<279 338 217.5 348>
VStem: 16 213<221.5 250 221.5 461.5> 331 204<199.5 231.5>
LayerCount: 2
Back
Fore
SplineSet
518 638 m 1
 502 472 l 1
 502 472 390 489 306 489 c 0
 252 489 234 464 230 421 c 0
 230 420 265 439 313 439 c 0
 465 439 535 370 535 212 c 0
 535 56 434 -13 284 -13 c 0
 98 -13 16 102 16 323 c 0
 16 600 139 672 296 672 c 0
 380 672 518 638 518 638 c 1
286 262 m 0
 251 262 229 250 229 250 c 1
 229 193 237 165 284 165 c 0
 319 165 331 185 331 214 c 0
 331 249 315 262 286 262 c 0
EndSplineSet
Substitution2: "'frac' Diagonal Fractions in Latin lookup 1 subtable" sixsuperior
EndChar
StartChar: seven
Encoding: 55 55 418
Width: 550
Flags: MW
HStem: -13 21G<325 325> 449 210<49 501 49 267>
VStem: 49 452<449 659 438 659> 267 234<438 449 449 449>
LayerCount: 2
Back
Fore
SplineSet
49 449 m 1xe0
 49 659 l 1
 501 659 l 1
 501 438 l 1
 325 -13 l 1
 101 33 l 1
 267 424 l 1
 267 449 l 1xd0
 49 449 l 1xe0
EndSplineSet
Substitution2: "'frac' Diagonal Fractions in Latin lookup 1 subtable" sevensuperior
EndChar
StartChar: eight
Encoding: 56 56 419
Width: 550
Flags: MW
HStem: -13 169<260.5 287.5 260.5 344> 259 151<261 288 261 288> 505 167<260 286>
VStem: 12 222<184.5 218.5 184.5 222.5> 24 218<451 474 444.5 561.5> 307 219<451 474.5> 314 222<183 218>
LayerCount: 2
Back
Fore
SplineSet
274 672 m 0xec
 416 672 526 638 526 493 c 0xe4
 526 409 511 371 450 335 c 1
 519 301 536 268 536 175 c 0
 536 26 414 -13 274 -13 c 0
 134 -13 12 26 12 177 c 0xf2
 12 268 37 299 99 336 c 1
 41 371 24 408 24 494 c 0
 24 629 132 672 274 672 c 0xec
274 156 m 0xf2
 301 156 314 166 314 200 c 0
 314 236 288 259 288 259 c 1
 261 259 l 1
 261 259 234 237 234 200 c 0
 234 169 247 156 274 156 c 0xf2
273 505 m 0xec
 247 505 242 488 242 460 c 0
 242 429 261 410 261 410 c 1
 288 410 l 1
 288 410 307 430 307 460 c 0
 307 489 299 505 273 505 c 0xec
EndSplineSet
Substitution2: "'frac' Diagonal Fractions in Latin lookup 1 subtable" eightsuperior
EndChar
StartChar: nine
Encoding: 57 57 213
Width: 550
Flags: MW
HStem: -13 183<211 270 201 331.5> 220 177<248.5 260> 494 178<247.5 288.5>
VStem: 14 204<427.5 459.5 427.5 525> 320 213<409 437.5>
LayerCount: 2
Back
Fore
SplineSet
31 21 m 1
 47 187 l 1
 47 187 159 170 243 170 c 0
 297 170 315 195 319 238 c 0
 319 239 284 220 236 220 c 0
 84 220 14 289 14 447 c 0
 14 603 115 672 265 672 c 0
 451 672 533 557 533 336 c 0
 533 59 410 -13 253 -13 c 0
 169 -13 31 21 31 21 c 1
263 397 m 0
 298 397 320 409 320 409 c 1
 320 466 312 494 265 494 c 0
 230 494 218 474 218 445 c 0
 218 410 234 397 263 397 c 0
EndSplineSet
Substitution2: "'frac' Diagonal Fractions in Latin lookup 1 subtable" ninesuperior
EndChar
StartChar: colon
Encoding: 58 58 234
Width: 288
Flags: MW
HStem: 0 199<30 258 30 258> 265 199<30 258 30 258>
VStem: 30 228<0 199 0 199 265 464>
LayerCount: 2
Back
Fore
SplineSet
30 0 m 1
 30 199 l 1
 258 199 l 1
 258 0 l 1
 30 0 l 1
30 265 m 1
 30 464 l 1
 258 464 l 1
 258 265 l 1
 30 265 l 1
EndSplineSet
EndChar
StartChar: semicolon
Encoding: 59 59 235
Width: 294
Flags: MW
HStem: -103 296<13 277 35 198> 265 199<38 266 38 266>
VStem: 38 228<265 464 265 464>
LayerCount: 2
Back
Fore
SplineSet
13 -103 m 1
 35 193 l 1
 277 193 l 1
 198 -103 l 1
 13 -103 l 1
38 265 m 1
 38 464 l 1
 266 464 l 1
 266 265 l 1
 38 265 l 1
EndSplineSet
EndChar
StartChar: less
Encoding: 60 60 215
Width: 550
Flags: MW
HStem: -13 21G<462 462> 497 20G<462 462>
VStem: 76 386<145 218 293 366 366 366>
LayerCount: 2
Back
Fore
SplineSet
462 293 m 1
 223 261 l 1
 462 218 l 1
 462 -13 l 1
 76 145 l 1
 76 366 l 1
 462 517 l 1
 462 293 l 1
EndSplineSet
EndChar
StartChar: equal
Encoding: 61 61 236
Width: 550
Flags: MW
HStem: 57 170<59 491 59 491> 282 170<59 491 59 491>
VStem: 59 432<57 227 57 227 282 452 57 452>
LayerCount: 2
Back
Fore
SplineSet
59 282 m 1
 59 452 l 1
 491 452 l 1
 491 282 l 1
 59 282 l 1
59 57 m 1
 59 227 l 1
 491 227 l 1
 491 57 l 1
 59 57 l 1
EndSplineSet
EndChar
StartChar: greater
Encoding: 62 62 216
Width: 550
Flags: MW
HStem: -13 21G<87 87> 497 20G<87 87>
VStem: 87 386<145 218 218 218 293 366 145 517 145 517>
LayerCount: 2
Back
Fore
SplineSet
326 261 m 1
 87 293 l 1
 87 517 l 1
 473 366 l 1
 473 145 l 1
 87 -13 l 1
 87 218 l 1
 326 261 l 1
EndSplineSet
EndChar
StartChar: question
Encoding: 63 63 237
Width: 473
Flags: MW
HStem: 0 180<88 316 88 316> 523 180<181 190.5>
VStem: 88 228<0 180 0 180> 230 226<474 500>
LayerCount: 2
Back
Fore
SplineSet
456 496 m 0xd0
 456 392 432 362 368 317 c 0
 307 274 290 253 289 236 c 2
 288 217 l 1
 113 217 l 1
 113 217 90 248 90 296 c 0
 90 344 105 366 177 419 c 0
 223 453 230 460 230 488 c 0
 230 512 214 523 167 523 c 0
 100 523 24 509 24 509 c 1
 17 666 l 1
 17 666 130 703 232 703 c 0
 389 703 456 648 456 496 c 0xd0
88 0 m 1xe0
 88 180 l 1
 316 180 l 1
 316 0 l 1
 88 0 l 1xe0
EndSplineSet
EndChar
StartChar: at
Encoding: 64 64 150
Width: 1027
Flags: MW
HStem: -219 152<388.5 537 388.5 541> 0 168<791.5 821 791.5 865.5> 0 178<373.5 505.5> 324 181<363.5 519.5> 467 25<541 765> 577 152<413.5 643>
VStem: 23 157<120 395.5 120 440> 239 226<222.5 281 222.5 335> 541 224<279 300 300 320 320 320 467 492 245 492> 841 167<298 315 184 316 184 423>
LayerCount: 2
Back
Fore
SplineSet
1008 315 m 2xcfc0
 1008 298 l 2
 1008 70 956 0 775 0 c 0xcfc0
 693 0 638 17 601 53 c 1
 564 25 513 0 448 0 c 0
 299 0 239 75 239 245 c 0xb7c0
 239 425 304 505 423 505 c 0
 493 505 541 467 541 467 c 1
 541 492 l 1
 765 492 l 1
 765 300 l 2
 765 190 777 168 806 168 c 0
 836 168 841 189 841 298 c 2
 841 316 l 2
 841 530 759 577 527 577 c 0
 300 577 180 530 180 261 c 0
 180 -21 260 -67 517 -67 c 0
 557 -67 660 -57 660 -57 c 1
 663 -210 l 1
 663 -210 565 -219 517 -219 c 0
 127 -219 23 -80 23 261 c 0
 23 619 211 729 527 729 c 0
 852 729 1008 619 1008 315 c 2xcfc0
500 178 m 0xafc0
 511 178 528 182 546 189 c 1
 542 216 541 246 541 279 c 2
 541 320 l 1
 541 320 526 324 513 324 c 0
 477 324 465 312 465 250 c 0
 465 195 474 178 500 178 c 0xafc0
EndSplineSet
EndChar
StartChar: A
Encoding: 65 65 16
Width: 639
Flags: MW
HStem: 0 21G<-5 -5 -5 223 411 411 411 645> 77 177<269 368 269 392 239 368> 488 182<307 307 307 332>
VStem: -5 650<0 0>
LayerCount: 2
Back
Fore
SplineSet
-5 0 m 1
 143 670 l 1
 494 670 l 1
 645 0 l 1
 411 0 l 1
 392 77 l 1
 239 77 l 1
 223 0 l 1
 -5 0 l 1
307 488 m 1
 269 254 l 1
 368 254 l 1
 332 488 l 1
 307 488 l 1
EndSplineSet
Position2: "'cpsp' Capital Spacing in Latin lookup 0 subtable" dx=5 dy=0 dh=10 dv=0
EndChar
StartChar: B
Encoding: 66 66 28
Width: 607
Flags: MW
HStem: 0 155<262 316 316 337> 265 145<262 314 314 316 262 314> 517 153<262 313 262 262>
VStem: 30 232<155 265 155 410 410 517> 368 210<464 484.5> 375 220<188.5 231>
LayerCount: 2
Back
Fore
SplineSet
30 670 m 1xf4
 333 670 l 2
 469 670 578 632 578 504 c 0xf8
 578 424 568 385 509 343 c 1
 571 316 595 288 595 190 c 0
 595 39 473 0 337 0 c 2
 30 0 l 1
 30 670 l 1xf4
316 265 m 2xf4
 262 265 l 1
 262 155 l 1
 316 155 l 2
 362 155 375 166 375 211 c 0
 375 251 361 265 316 265 c 2xf4
313 517 m 2xf8
 262 517 l 1
 262 410 l 1
 314 410 l 2
 354 410 368 427 368 466 c 0
 368 503 351 517 313 517 c 2xf8
EndSplineSet
Position2: "'cpsp' Capital Spacing in Latin lookup 0 subtable" dx=5 dy=0 dh=10 dv=0
EndChar
StartChar: C
Encoding: 67 67 29
Width: 533
Flags: MW
HStem: -13 196<316 358.5> 487 196<315.5 351.5 198 395.5>
VStem: 18 234<269.5 403 269.5 469>
LayerCount: 2
Back
Fore
SplineSet
516 189 m 1
 519 13 l 1
 519 13 413 -13 304 -13 c 0
 84 -13 18 65 18 337 c 0
 18 601 82 683 314 683 c 0
 389 683 519 656 519 656 c 1
 513 477 l 1
 513 477 431 487 360 487 c 0
 271 487 252 469 252 337 c 0
 252 202 272 183 360 183 c 0
 431 183 516 189 516 189 c 1
EndSplineSet
Position2: "'cpsp' Capital Spacing in Latin lookup 0 subtable" dx=5 dy=0 dh=10 dv=0
EndChar
StartChar: D
Encoding: 68 68 35
Width: 654
Flags: MW
HStem: 0 189<262 303 303 323> 481 189<262 303 262 262>
VStem: 30 232<189 481 189 670 189 670> 404 234<296 391.5>
LayerCount: 2
Back
Fore
SplineSet
323 0 m 2
 30 0 l 1
 30 670 l 1
 313 670 l 2
 546 670 638 568 638 345 c 0
 638 122 556 0 323 0 c 2
404 345 m 0
 404 438 393 481 303 481 c 2
 262 481 l 1
 262 189 l 1
 303 189 l 2
 398 189 404 247 404 345 c 0
EndSplineSet
Position2: "'cpsp' Capital Spacing in Latin lookup 0 subtable" dx=5 dy=0 dh=10 dv=0
EndChar
StartChar: E
Encoding: 69 69 38
Width: 549
Flags: MW
HStem: 0 185<262 532 262 532> 245 183<262 472 262 472> 485 185<262 532 262 262>
VStem: 30 232<185 245 428 485>
LayerCount: 2
Back
Fore
SplineSet
30 0 m 1
 30 670 l 1
 532 670 l 1
 532 485 l 1
 262 485 l 1
 262 428 l 1
 472 428 l 1
 472 245 l 1
 262 245 l 1
 262 185 l 1
 532 185 l 1
 532 0 l 1
 30 0 l 1
EndSplineSet
Position2: "'cpsp' Capital Spacing in Latin lookup 0 subtable" dx=5 dy=0 dh=10 dv=0
EndChar
StartChar: F
Encoding: 70 70 48
Width: 521
Flags: MW
HStem: 0 21G<30 30 30 262> 184 189<262 453 262 453> 481 189<262 513 262 262>
VStem: 30 232<0 184 373 481>
LayerCount: 2
Back
Fore
SplineSet
30 0 m 1
 30 670 l 1
 513 670 l 1
 513 481 l 1
 262 481 l 1
 262 373 l 1
 453 373 l 1
 453 184 l 1
 262 184 l 1
 262 0 l 1
 30 0 l 1
EndSplineSet
Position2: "'cpsp' Capital Spacing in Latin lookup 0 subtable" dx=5 dy=0 dh=10 dv=0
EndChar
StartChar: G
Encoding: 71 71 49
Width: 619
Flags: MW
HStem: -9 190<303.5 348.5 303.5 371.5> 232 162<346 346 346 376> 487 196<302.5 389.5 219.5 397.5>
VStem: 17 234<283.5 394.5 283.5 466.5> 345.5 246.5
LayerCount: 2
Back
Fore
SplineSet
346 232 m 1
 345 394 l 1
 592 394 l 1
 592 20 l 1
 592 20 411 -9 332 -9 c 0
 77 -9 17 98 17 336 c 0
 17 597 107 683 332 683 c 0
 447 683 587 649 587 649 c 1
 587 474 l 1
 587 474 443 487 352 487 c 0
 253 487 251 453 251 336 c 0
 251 231 265 181 342 181 c 0
 355 181 376 182 376 182 c 1
 376 232 l 1
 346 232 l 1
EndSplineSet
Position2: "'cpsp' Capital Spacing in Latin lookup 0 subtable" dx=5 dy=0 dh=10 dv=0
EndChar
StartChar: H
Encoding: 72 72 54
Width: 655
Flags: MW
HStem: 0 21G<30 262 30 30 393 625 393 393> 234 189<262 393 262 393>
VStem: 30 232<0 234 0 423 423 670> 393 232<0 234 234 234 423 670 0 670>
LayerCount: 2
Back
Fore
SplineSet
393 0 m 1
 393 234 l 1
 262 234 l 1
 262 0 l 1
 30 0 l 1
 30 670 l 1
 262 670 l 1
 262 423 l 1
 393 423 l 1
 393 670 l 1
 625 670 l 1
 625 0 l 1
 393 0 l 1
EndSplineSet
Position2: "'cpsp' Capital Spacing in Latin lookup 0 subtable" dx=5 dy=0 dh=10 dv=0
EndChar
StartChar: I
Encoding: 73 73 57
Width: 292
Flags: MW
HStem: 0 21G<30 30 30 262>
VStem: 30 232<0 670 0 670>
LayerCount: 2
Back
Fore
SplineSet
30 0 m 1
 30 670 l 1
 262 670 l 1
 262 0 l 1
 30 0 l 1
EndSplineSet
Position2: "'cpsp' Capital Spacing in Latin lookup 0 subtable" dx=5 dy=0 dh=10 dv=0
EndChar
StartChar: J
Encoding: 74 74 67
Width: 321
Flags: MW
HStem: -13 191<15 36.5 15 101.5>
VStem: 62 232<322 670>
LayerCount: 2
Back
Fore
SplineSet
294 670 m 1
 294 177 l 2
 294 -1 188 -13 15 -13 c 1
 15 178 l 1
 58 178 62 181 62 322 c 2
 62 670 l 1
 294 670 l 1
EndSplineSet
Position2: "'cpsp' Capital Spacing in Latin lookup 0 subtable" dx=5 dy=0 dh=10 dv=0
EndChar
StartChar: K
Encoding: 75 75 69
Width: 609
Flags: MW
HStem: 0 21G<30 262 30 30 384 617 384 384> 223 210<262 302 262 303 262 302>
VStem: 30 232<0 223 0 433 433 670>
LayerCount: 2
Back
Fore
SplineSet
384 0 m 1
 303 223 l 1
 262 223 l 1
 262 0 l 1
 30 0 l 1
 30 670 l 1
 262 670 l 1
 262 433 l 1
 302 433 l 1
 377 670 l 1
 607 670 l 1
 500 346 l 1
 617 0 l 1
 384 0 l 1
EndSplineSet
Position2: "'cpsp' Capital Spacing in Latin lookup 0 subtable" dx=5 dy=0 dh=10 dv=0
EndChar
StartChar: L
Encoding: 76 76 71
Width: 489
Flags: MW
HStem: 0 189<262 480 262 480>
VStem: 30 232<189 670 189 670 189 670>
LayerCount: 2
Back
Fore
SplineSet
480 0 m 1
 30 0 l 1
 30 670 l 1
 262 670 l 1
 262 189 l 1
 480 189 l 1
 480 0 l 1
EndSplineSet
Position2: "'cpsp' Capital Spacing in Latin lookup 0 subtable" dx=5 dy=0 dh=10 dv=0
EndChar
StartChar: M
Encoding: 77 77 76
Width: 855
Flags: MW
HStem: 0 21G<30 30 30 262 593 593 593 825>
VStem: 30 232<0 345 0 670> 593 232<0 345 345 345>
LayerCount: 2
Back
Fore
SplineSet
30 0 m 1
 30 670 l 1
 375 670 l 1
 427 414 l 1
 470 670 l 1
 825 670 l 1
 825 0 l 1
 593 0 l 1
 593 345 l 1
 582 345 l 1
 524 7 l 1
 330 7 l 1
 273 345 l 1
 262 345 l 1
 262 0 l 1
 30 0 l 1
EndSplineSet
Position2: "'cpsp' Capital Spacing in Latin lookup 0 subtable" dx=5 dy=0 dh=10 dv=0
EndChar
StartChar: O
Encoding: 79 79 82
Width: 670
Flags: MW
HStem: -13 188<298 373 298 446.5> 495 188<298 373.5>
VStem: 16 234<283.5 386.5 283.5 457> 420 234<284 386.5>
LayerCount: 2
Back
Fore
SplineSet
335 175 m 0
 411 175 420 233 420 335 c 0
 420 438 412 495 335 495 c 0
 261 495 250 438 250 335 c 0
 250 232 261 175 335 175 c 0
335 -13 m 0
 115 -13 16 91 16 335 c 0
 16 579 112 683 335 683 c 0
 558 683 654 579 654 335 c 0
 654 91 558 -13 335 -13 c 0
EndSplineSet
Position2: "'cpsp' Capital Spacing in Latin lookup 0 subtable" dx=5 dy=0 dh=10 dv=0
EndChar
StartChar: P
Encoding: 80 80 94
Width: 612
Flags: MW
HStem: 0 21G<30 262 30 30> 142 183<262 283 283 293 262 283> 487 183<262 283 262 262>
VStem: 30 232<0 142 325 487> 363 234<377.5 440>
LayerCount: 2
Back
Fore
SplineSet
293 142 m 2
 262 142 l 1
 262 0 l 1
 30 0 l 1
 30 670 l 1
 293 670 l 2
 492 670 597 620 597 409 c 0
 597 198 493 142 293 142 c 2
262 325 m 1
 283 325 l 2
 340 325 363 347 363 408 c 0
 363 472 341 487 283 487 c 2
 262 487 l 1
 262 325 l 1
EndSplineSet
Position2: "'cpsp' Capital Spacing in Latin lookup 0 subtable" dx=5 dy=0 dh=10 dv=0
EndChar
StartChar: Q
Encoding: 81 81 95
Width: 667
Flags: MW
HStem: -13 188<296 337> 495 188<296 369.5>
VStem: 16 228<284 386 284 458.5> 417 234<284.5 386>
LayerCount: 2
Back
Fore
SplineSet
332 -13 m 0
 110 -13 16 88 16 335 c 0
 16 582 107 683 332 683 c 0
 557 683 651 582 651 335 c 0
 651 196 621 103 555 48 c 1
 635 -71 l 1
 459 -158 l 1
 361 -12 l 1
 352 -13 342 -13 332 -13 c 0
332 175 m 0
 406 175 417 234 417 335 c 0
 417 437 407 495 332 495 c 0
 260 495 244 437 244 335 c 0
 244 233 260 175 332 175 c 0
EndSplineSet
Position2: "'cpsp' Capital Spacing in Latin lookup 0 subtable" dx=5 dy=0 dh=10 dv=0
EndChar
StartChar: R
Encoding: 82 82 96
Width: 617
Flags: MW
HStem: 0 21G<30 262 30 30 357 357 357 593> 173 183<262 318 262 262 318 319> 487 183<261 312 261 261>
VStem: 30 232<0 173 0 670> 367 234<402 444>
LayerCount: 2
Back
Fore
SplineSet
319 173 m 1
 318 173 l 1
 262 173 l 1
 262 0 l 1
 30 0 l 1
 30 670 l 1
 312 670 l 2
 507 670 601 624 601 423 c 0
 601 329 575 267 527 228 c 1
 593 0 l 1
 357 0 l 1
 319 173 l 1
367 423 m 0
 367 465 350 487 312 487 c 2
 261 487 l 1
 261 356 l 1
 318 356 l 2
 351 356 367 381 367 423 c 0
EndSplineSet
Position2: "'cpsp' Capital Spacing in Latin lookup 0 subtable" dx=5 dy=0 dh=10 dv=0
EndChar
StartChar: S
Encoding: 83 83 100
Width: 578
Flags: MW
HStem: -14 191<233 302 233 388.5> 492 191<280.5 334.5 198 350>
VStem: 16 234<467 481 467 543.5> 16 552<130.5 543.5> 334 234<192 207>
LayerCount: 2
Back
Fore
SplineSet
546 657 m 1xd0
 540 477 l 1
 540 477 399 492 301 492 c 0
 260 492 250 488 250 474 c 0
 250 460 257 455 321 441 c 0
 512 398 568 373 568 216 c 0
 568 45 474 -14 303 -14 c 0
 160 -14 21 22 21 22 c 1
 31 199 l 1
 31 199 184 177 282 177 c 0
 322 177 334 184 334 200 c 0
 334 214 327 216 257 227 c 0
 69 256 16 308 16 448 c 0xe8
 16 639 115 683 281 683 c 0
 388 683 546 657 546 657 c 1xd0
EndSplineSet
Position2: "'cpsp' Capital Spacing in Latin lookup 0 subtable" dx=5 dy=0 dh=10 dv=0
EndChar
StartChar: T
Encoding: 84 84 106
Width: 519
Flags: MW
HStem: 0 21G<147 379 147 147> 481 189<9 509 9 147 379 379 379 509>
VStem: 147 232<0 481 0 481>
LayerCount: 2
Back
Fore
SplineSet
9 481 m 1
 9 670 l 1
 509 670 l 1
 509 481 l 1
 379 481 l 1
 379 0 l 1
 147 0 l 1
 147 481 l 1
 9 481 l 1
EndSplineSet
Position2: "'cpsp' Capital Spacing in Latin lookup 0 subtable" dx=5 dy=0 dh=10 dv=0
EndChar
StartChar: U
Encoding: 85 85 110
Width: 641
Flags: MW
HStem: -13 191<298 344 298 418.5>
VStem: 26 232<240 670> 383 232<231 244 244 670>
LayerCount: 2
Back
Fore
SplineSet
258 670 m 1
 258 231 l 2
 258 193 275 178 321 178 c 0
 367 178 383 193 383 231 c 2
 383 670 l 1
 615 670 l 1
 615 244 l 2
 615 49 516 -13 321 -13 c 0
 126 -13 26 45 26 240 c 2
 26 670 l 1
 258 670 l 1
EndSplineSet
Position2: "'cpsp' Capital Spacing in Latin lookup 0 subtable" dx=5 dy=0 dh=10 dv=0
EndChar
StartChar: V
Encoding: 86 86 121
Width: 598
Flags: MW
HStem: 0 21G<129 471 129 129> 0 234<291 309 291 471 129 309>
VStem: -7 609<670 670>
LayerCount: 2
Back
Fore
SplineSet
602 670 m 1xa0
 471 0 l 1
 129 0 l 1
 -7 670 l 1
 239 670 l 1
 291 234 l 1
 309 234 l 1x60
 356 670 l 1
 602 670 l 1xa0
EndSplineSet
Position2: "'cpsp' Capital Spacing in Latin lookup 0 subtable" dx=5 dy=0 dh=10 dv=0
EndChar
StartChar: W
Encoding: 87 87 122
Width: 915
Flags: MW
HStem: 0 234<85 287 269 287 269 416 269 493 635 653> 412.5 247.5
VStem: 6 900<670 670>
LayerCount: 2
Back
Fore
SplineSet
85 0 m 1
 6 670 l 1
 237 670 l 1
 269 234 l 1
 287 234 l 1
 332 660 l 1
 585 660 l 1
 635 234 l 1
 653 234 l 1
 673 670 l 1
 906 670 l 1
 832 0 l 1
 493 0 l 1
 460 412 l 1
 450 413 l 1
 416 0 l 1
 85 0 l 1
EndSplineSet
Position2: "'cpsp' Capital Spacing in Latin lookup 0 subtable" dx=5 dy=0 dh=10 dv=0
EndChar
StartChar: X
Encoding: 88 88 127
Width: 583
Flags: MW
HStem: 0 21G<-8 228 -8 -8 348 586 348 348>
VStem: -8 603<670 670>
LayerCount: 2
Back
Fore
SplineSet
228 670 m 1
 289 486 l 1
 367 670 l 1
 595 670 l 1
 450 351 l 1
 586 0 l 1
 348 0 l 1
 289 178 l 1
 228 0 l 1
 -8 0 l 1
 135 321 l 1
 -8 670 l 1
 228 670 l 1
EndSplineSet
Position2: "'cpsp' Capital Spacing in Latin lookup 0 subtable" dx=5 dy=0 dh=10 dv=0
EndChar
StartChar: Y
Encoding: 89 89 128
Width: 590
Flags: MW
HStem: 0 21G<178 410 178 178>
VStem: 178 232<0 210 0 210>
LayerCount: 2
Back
Fore
SplineSet
410 210 m 1
 410 0 l 1
 178 0 l 1
 178 210 l 1
 -13 670 l 1
 233 670 l 1
 296 473 l 1
 361 670 l 1
 606 670 l 1
 410 210 l 1
EndSplineSet
Position2: "'cpsp' Capital Spacing in Latin lookup 0 subtable" dx=5 dy=0 dh=10 dv=0
EndChar
StartChar: Z
Encoding: 90 90 133
Width: 569
Flags: MW
HStem: 0 189<332 549 332 549> 481 189<19 549 19 241 19 549>
VStem: 19 530<0 180 180 180 481 670 0 670>
LayerCount: 2
Back
Fore
SplineSet
19 481 m 1
 19 670 l 1
 549 670 l 1
 549 481 l 1
 332 206 l 1
 332 189 l 1
 549 189 l 1
 549 0 l 1
 19 0 l 1
 19 180 l 1
 241 464 l 1
 241 481 l 1
 19 481 l 1
EndSplineSet
Position2: "'cpsp' Capital Spacing in Latin lookup 0 subtable" dx=5 dy=0 dh=10 dv=0
EndChar
StartChar: bracketleft
Encoding: 91 91 217
Width: 341
Flags: MW
HStem: -123 181<258 322 258 322> 568 181<258 322 258 258>
VStem: 33 225<58 568 58 749 58 749>
LayerCount: 2
Back
Fore
SplineSet
322 749 m 1
 322 568 l 1
 258 568 l 1
 258 58 l 1
 322 58 l 1
 322 -123 l 1
 33 -123 l 1
 33 749 l 1
 322 749 l 1
EndSplineSet
Substitution2: "'case' Case-Sensitive Forms in Latin lookup 4 subtable" bracketleft.cap
EndChar
StartChar: backslash
Encoding: 92 92 218
Width: 550
Flags: MW
HStem: 676 21G<15 15>
VStem: 15 520
LayerCount: 2
Back
Fore
SplineSet
232 720 m 1
 535 -30 l 1
 318 -74 l 1
 15 676 l 1
 232 720 l 1
EndSplineSet
EndChar
StartChar: bracketright
Encoding: 93 93 219
Width: 339
Flags: MW
HStem: -123 181<17 81 17 306 17 81> 568 181<17 306 17 81>
VStem: 81 225<58 568 568 568>
LayerCount: 2
Back
Fore
SplineSet
17 568 m 1
 17 749 l 1
 306 749 l 1
 306 -123 l 1
 17 -123 l 1
 17 58 l 1
 81 58 l 1
 81 568 l 1
 17 568 l 1
EndSplineSet
Substitution2: "'case' Case-Sensitive Forms in Latin lookup 4 subtable" bracketright.cap
EndChar
StartChar: asciicircum
Encoding: 94 94 253
Width: 633
Flags: MW
HStem: 313 357<190 256 46 444 378 444 190 588 378 378>
VStem: 46 542<313 313>
LayerCount: 2
Back
Fore
SplineSet
378 313 m 1
 319 530 l 1
 256 313 l 1
 46 313 l 1
 190 670 l 1
 444 670 l 1
 588 313 l 1
 378 313 l 1
EndSplineSet
EndChar
StartChar: underscore
Encoding: 95 95 238
Width: 600
Flags: MW
HStem: -185 127<40 560 40 560>
VStem: 40 520<-185 -58 -185 -58>
LayerCount: 2
Back
Fore
SplineSet
40 -185 m 1
 40 -58 l 1
 560 -58 l 1
 560 -185 l 1
 40 -185 l 1
EndSplineSet
EndChar
StartChar: grave
Encoding: 96 96 11
Width: 423
Flags: MW
HStem: 557 166<187 315 78 358 187 187>
VStem: 78 280<557 723>
LayerCount: 2
Back
Fore
SplineSet
78 723 m 1
 315 723 l 1
 358 557 l 1
 187 557 l 1
 78 723 l 1
EndSplineSet
EndChar
StartChar: a
Encoding: 97 97 146
Width: 557
Flags: MW
HStem: -13 21G<132 236 399 448.5> -13 154<132 266.5 248 448.5> -1 21G<539 539> 192 122.5 344 174<218.5 264>
VStem: 10 224<156 171 156 222.5> 294 224<156 193 193 193 316 325 325 332>
LayerCount: 2
Back
Fore
SplineSet
518 342 m 2x2a
 518 152 l 1
 522 149 535 143 542 141 c 1x5e
 539 -1 l 1
 539 -1 461 -13 436 -13 c 0
 362 -13 339 22 339 22 c 1
 339 22 277 -13 195 -13 c 0
 69 -13 10 38 10 157 c 0
 10 288 92 308 222 313 c 2x9e
 294 316 l 1
 294 325 l 2
 294 339 277 344 251 344 c 0
 162 344 37 331 37 331 c 1
 32 483 l 1
 32 483 164 518 273 518 c 0
 418 518 518 487 518 342 c 2x2a
294 193 m 1
 260 191 l 2
 244 190 234 179 234 163 c 0
 234 149 240 141 256 141 c 0
 277 141 294 156 294 156 c 1
 294 193 l 1
EndSplineSet
EndChar
StartChar: b
Encoding: 98 98 387
Width: 569
Flags: MW
HStem: -13 181<273.5 301.5 273.5 384> 498 20G<336 429> 670 20G<27 251 251 251>
VStem: 27 224<171 330 502 690> 327 226<232.5 288.5>
LayerCount: 2
Back
Fore
SplineSet
355 518 m 0
 503 518 553 412 553 261 c 0
 553 58 489 -13 279 -13 c 0
 198 -13 27 10 27 10 c 1
 27 690 l 1
 251 690 l 1
 251 502 l 1
 251 502 317 518 355 518 c 0
283 168 m 0
 320 168 327 209 327 256 c 0
 327 321 313 337 283 337 c 0
 274 337 251 330 251 330 c 1
 251 171 l 1
 251 171 264 168 283 168 c 0
EndSplineSet
EndChar
StartChar: c
Encoding: 99 99 388
Width: 465
Flags: MW
HStem: -13 196<277.5 309.5> 323 195<278 304.5 177 318>
VStem: 16 226<226.5 279 226.5 355>
LayerCount: 2
Back
Fore
SplineSet
266 518 m 0
 343 518 447 492 447 492 c 1
 440 315 l 1
 440 315 337 323 299 323 c 0
 257 323 242 305 242 253 c 0
 242 200 256 183 299 183 c 0
 337 183 442 190 442 190 c 1
 449 15 l 1
 449 15 353 -13 266 -13 c 0
 70 -13 16 62 16 253 c 0
 16 457 88 518 266 518 c 0
EndSplineSet
EndChar
StartChar: e
Encoding: 101 101 389
Width: 552
Flags: MW
HStem: -13 165<271 333.5> 187 122<239 314 238 528 239 239> 362 156<262 290.5>
VStem: 15 224<187 187 187 331>
LayerCount: 2
Back
Fore
SplineSet
288 152 m 0
 380 152 523 161 523 161 c 1
 528 16 l 1
 528 16 395 -13 272 -13 c 0
 82 -13 15 66 15 243 c 0
 15 419 91 518 277 518 c 0
 450 518 538 445 538 286 c 1
 528 187 l 1
 239 187 l 1
 240 162 254 152 288 152 c 0
238 309 m 1
 314 309 l 1
 314 347 304 362 277 362 c 0
 247 362 239 346 238 309 c 1
EndSplineSet
EndChar
StartChar: f
Encoding: 102 102 390
Width: 358
Flags: MW
HStem: 0 21G<45 269 45 45> 324 181<18 45 18 45 269 349> 528 175<149 351> 670 20G<351 351>
VStem: 45 224<0 324 0 324 505 509 509 515 0 579>
LayerCount: 2
Back
Fore
SplineSet
269 324 m 1xd8
 269 0 l 1
 45 0 l 1
 45 324 l 1
 18 324 l 1
 18 505 l 1xd8
 45 505 l 1
 45 509 l 2
 45 649 81 703 217 703 c 0xe8
 281 703 351 690 351 690 c 1xd8
 351 528 l 1xe8
 289 528 269 525 269 515 c 2
 269 505 l 1
 349 505 l 1
 349 324 l 1
 269 324 l 1xd8
EndSplineSet
EndChar
StartChar: g
Encoding: 103 103 139
Width: 562
Flags: MW
HStem: -220 154<248 302 248 372.5> -35 173<259 432> 157 146<267.5 279.5 252.5 356.5> 375 143<252.5 279.5> 379 131<506 553 506 553>
VStem: 12 183<-142 -47.5> 17 210<325.5 352.5 325.5 404.5> 305 210<325.5 344 263 352.5> 347 203<-56 -43>
LayerCount: 2
Back
Fore
SplineSet
293 -220 m 0xcc80
 127 -220 12 -203 12 -81 c 0
 12 -35 26 0 76 39 c 1
 54 54 40 83 40 114 c 0xcc
 40 139 98 187 98 187 c 1
 60 205 17 244 17 338 c 0
 17 471 89 518 265 518 c 0xd3
 308 518 368 507 368 507 c 1
 553 510 l 1
 553 379 l 1
 506 379 l 1
 510 368 515 350 515 338 c 0
 515 188 440 157 273 157 c 0
 262 157 247 158 235 160 c 1xe9
 235 160 231 154 231 148 c 0
 231 140 257 138 362 138 c 0
 502 138 550 99 550 -22 c 0
 550 -150 452 -220 293 -220 c 0xcc80
281 -35 m 0
 237 -35 204 -31 204 -31 c 1
 195 -36 195 -42 195 -53 c 0
 195 -63 222 -66 274 -66 c 0
 330 -66 347 -62 347 -50 c 0
 347 -36 331 -35 281 -35 c 0
266 303 m 0xf3
 293 303 305 312 305 339 c 0
 305 366 293 375 266 375 c 0
 239 375 227 366 227 339 c 0
 227 312 239 303 266 303 c 0xf3
EndSplineSet
EndChar
StartChar: h
Encoding: 104 104 140
Width: 578
Flags: MW
HStem: 0 21G<28 252 28 28 331 331 331 555> 498 20G<340.5 431.5> 670 20G<28 252 252 252>
VStem: 28 224<0 319 501 690> 331 224<0 238 238 261 0 268.5>
LayerCount: 2
Back
Fore
SplineSet
252 0 m 1
 28 0 l 1
 28 690 l 1
 252 690 l 1
 252 501 l 1
 252 501 322 518 359 518 c 0
 504 518 555 451 555 261 c 2
 555 0 l 1
 331 0 l 1
 331 238 l 2
 331 299 320 325 293 325 c 0
 276 325 252 319 252 319 c 1
 252 0 l 1
EndSplineSet
EndChar
StartChar: i
Encoding: 105 105 391
Width: 280
Flags: MW
HStem: 0 21G<28 28 28 252> 485 20G<28 252 252 252> 537 153<27 253 27 253>
VStem: 28 224<0 505 0 505>
LayerCount: 2
Back
Fore
SplineSet
28 0 m 1
 28 505 l 1
 252 505 l 1
 252 0 l 1
 28 0 l 1
27 537 m 1
 27 690 l 1
 253 690 l 1
 253 537 l 1
 27 537 l 1
EndSplineSet
EndChar
StartChar: j
Encoding: 106 106 392
Width: 280
Flags: MW
HStem: -220 21G<11 11> 485 20G<28 252 252 252> 538 152<27 253 27 253>
VStem: 28 224<66 73 73 505>
LayerCount: 2
Back
Fore
SplineSet
27 538 m 1
 27 690 l 1
 253 690 l 1
 253 538 l 1
 27 538 l 1
28 66 m 2
 28 505 l 1
 252 505 l 1
 252 73 l 2
 252 -128 209 -158 11 -220 c 1
 -61 -50 l 1
 20 -12 28 -6 28 66 c 2
EndSplineSet
EndChar
StartChar: k
Encoding: 107 107 393
Width: 553
Flags: MW
HStem: 0 21G<28 252 28 28 329 329 329 553> 148 195<252 281 252 282 252 281> 485 20G<326 547 547 547> 670 20G<28 252 252 252>
VStem: 28 224<0 148 343 690>
LayerCount: 2
Back
Fore
SplineSet
252 0 m 1
 28 0 l 1
 28 690 l 1
 252 690 l 1
 252 343 l 1
 281 343 l 1
 326 505 l 1
 547 505 l 1
 475 261 l 1
 553 0 l 1
 329 0 l 1
 282 148 l 1
 252 148 l 1
 252 0 l 1
EndSplineSet
EndChar
StartChar: l
Encoding: 108 108 394
Width: 280
Flags: MW
HStem: 0 21G<28 28 28 252> 670 20G<28 252 252 252>
VStem: 28 224<0 690 0 690>
LayerCount: 2
Back
Fore
SplineSet
28 0 m 1
 28 690 l 1
 252 690 l 1
 252 0 l 1
 28 0 l 1
EndSplineSet
EndChar
StartChar: m
Encoding: 109 109 395
Width: 861
Flags: MW
HStem: 0 21G<28 252 28 28 321 321 321 545 614 614 614 838> 325 193<279 401.5 345.5 593> 479 26<28 251>
VStem: 28 224<0 320> 321 224<0 228 228 232 0 258.5> 614 224<0 228 228 255 0 258.5>
CounterMasks: 1 1c
LayerCount: 2
Back
Fore
SplineSet
252 0 m 1xbc
 28 0 l 1
 28 505 l 1
 251 505 l 1
 251 479 l 1xbc
 251 479 317 518 374 518 c 0
 429 518 462 498 485 473 c 1
 485 473 556 518 635 518 c 0
 798 518 838 429 838 255 c 2
 838 0 l 1
 614 0 l 1
 614 228 l 2
 614 289 605 325 581 325 c 0
 561 325 538 319 538 319 c 1
 543 304 545 267 545 232 c 2
 545 0 l 1
 321 0 l 1
 321 228 l 2
 321 289 313 325 289 325 c 0
 269 325 252 320 252 320 c 1xdc
 252 0 l 1xbc
EndSplineSet
EndChar
StartChar: n
Encoding: 110 110 148
Width: 578
Flags: MW
HStem: 0 21G<28 252 28 28 331 331 331 555> 479 26<28 251> 498 20G<337.5 432.5>
VStem: 28 224<0 318> 331 224<0 238 238 253 0 268.5>
LayerCount: 2
Back
Fore
SplineSet
252 0 m 1xd8
 28 0 l 1
 28 505 l 1
 251 505 l 1
 251 479 l 1xd8
 251 479 314 518 361 518 c 0xb8
 504 518 555 451 555 253 c 2
 555 0 l 1
 331 0 l 1
 331 238 l 2
 331 299 319 325 295 325 c 0
 276 325 252 318 252 318 c 1
 252 0 l 1xd8
EndSplineSet
EndChar
StartChar: o
Encoding: 111 111 147
Width: 564
Flags: MW
HStem: -13 181<266.5 297.5 266.5 368.5> 337 181<266.5 297.5>
VStem: 15 226<220.5 285 220.5 349> 323 226<220.5 285.5>
LayerCount: 2
Back
Fore
SplineSet
282 518 m 0
 455 518 549 445 549 253 c 0
 549 58 455 -13 282 -13 c 0
 109 -13 15 58 15 253 c 0
 15 445 109 518 282 518 c 0
282 168 m 0
 313 168 323 188 323 253 c 0
 323 318 313 337 282 337 c 0
 251 337 241 317 241 253 c 0
 241 188 251 168 282 168 c 0
EndSplineSet
EndChar
StartChar: p
Encoding: 112 112 396
Width: 570
Flags: MW
HStem: -195 21G<28 252 28 28> -13 21G<318 415.5> -13 181<274.5 415.5> 0 21G<252 252> 337 168<28 299> 479 26<28 251> 498 20G<328 429>
VStem: 28 224<-195 0 -195 171 171 330> 328 226<233 289>
LayerCount: 2
Back
Fore
SplineSet
249 505 m 1x95
 251 479 l 1x95
 251 479 300 518 356 518 c 0
 502 518 554 419 554 248 c 0xc380
 554 73 497 -13 334 -13 c 0
 302 -13 252 0 252 0 c 1
 252 -195 l 1
 28 -195 l 1
 28 505 l 1
 249 505 l 1x95
284 337 m 0xa980
 275 337 252 330 252 330 c 1
 252 171 l 1
 252 171 265 168 284 168 c 0
 321 168 328 210 328 256 c 0
 328 322 314 337 284 337 c 0xa980
EndSplineSet
EndChar
StartChar: q
Encoding: 113 113 397
Width: 570
Flags: MW
HStem: -13 21G<140 233> 338 181<267.5 295.5>
VStem: 16 226<217.5 273.5 217.5 346.5> 318 224<-194 4 4 4 175 335 335 335>
LayerCount: 2
Back
Fore
SplineSet
214 -13 m 0
 66 -13 16 94 16 245 c 0
 16 448 101 519 290 519 c 0
 371 519 542 502 542 502 c 1
 542 -194 l 1
 318 -194 l 1
 318 4 l 1
 318 4 252 -13 214 -13 c 0
286 338 m 0
 249 338 242 297 242 250 c 0
 242 185 256 169 286 169 c 0
 297 169 318 175 318 175 c 1
 318 335 l 1
 318 335 305 338 286 338 c 0
EndSplineSet
EndChar
StartChar: r
Encoding: 114 114 398
Width: 368
Flags: MW
HStem: 0 21G<28 252 28 28> 458 47<28 252> 498 20G<336.5 358>
VStem: 28 224<0 274 0 458 458 505> 252 106<0 518 458 458 458 505>
LayerCount: 2
Back
Fore
SplineSet
252 274 m 1xd0
 252 0 l 1
 28 0 l 1
 28 505 l 1
 252 505 l 1
 252 458 l 1xd0
 252 458 315 518 358 518 c 1
 358 310 l 1xa8
 320 310 252 274 252 274 c 1xd0
EndSplineSet
EndChar
StartChar: s
Encoding: 115 115 141
Width: 489
Flags: MW
HStem: -13 161<182.5 226 182.5 323> 349 169<263.5 304>
VStem: 19 453<99 406.5>
LayerCount: 2
Back
Fore
SplineSet
465 492 m 1
 457 335 l 1
 457 335 333 349 275 349 c 0
 252 349 243 347 243 341 c 0
 243 336 251 334 308 328 c 0
 430 315 472 273 472 163 c 0
 472 35 396 -13 250 -13 c 0
 109 -13 22 14 22 14 c 1
 27 165 l 1
 27 165 151 148 214 148 c 0
 238 148 248 150 248 157 c 0
 248 162 235 164 175 172 c 0
 63 187 19 229 19 334 c 0
 19 479 113 518 243 518 c 0
 371 518 465 492 465 492 c 1
EndSplineSet
EndChar
StartChar: t
Encoding: 116 116 399
Width: 371
Flags: MW
HStem: -13 21G<162 245> -13 191<162 316> 324 181<10 49 10 49 273 354>
VStem: 49 224<204 220 220 324 204 324 505 605>
LayerCount: 2
Back
Fore
SplineSet
273 324 m 1xb0
 273 220 l 2
 273 188 278 178 306 178 c 0
 326 178 351 179 351 179 c 1x70
 354 5 l 1
 354 5 268 -13 222 -13 c 0
 102 -13 49 25 49 168 c 2
 49 324 l 1
 10 324 l 1
 10 505 l 1
 49 505 l 1
 49 605 l 1
 273 605 l 1
 273 505 l 1
 354 505 l 1
 354 324 l 1
 273 324 l 1xb0
EndSplineSet
EndChar
StartChar: u
Encoding: 117 117 400
Width: 577
Flags: MW
HStem: -13 21G<140.5 238> 0 180<269 549 269 327> 485 20G<23 247 247 247 325 549 549 549>
VStem: 23 224<244 259 259 505> 325 224<186 505 0 505>
LayerCount: 2
Back
Fore
SplineSet
325 505 m 1xb8
 549 505 l 1
 549 0 l 1
 327 0 l 1x78
 327 24 l 1
 327 24 263 -13 213 -13 c 0xb8
 68 -13 23 71 23 244 c 2
 23 505 l 1
 247 505 l 1
 247 259 l 2
 247 198 257 180 281 180 c 0
 303 180 325 186 325 186 c 1x78
 325 505 l 1xb8
EndSplineSet
EndChar
StartChar: v
Encoding: 118 118 401
Width: 547
Flags: MW
HStem: 0 187<275 288 275 461> 485 20G<1 239 239 239 322 546 546 546>
VStem: 1 545<505 505>
LayerCount: 2
Back
Fore
SplineSet
1 505 m 1
 239 505 l 1
 275 187 l 1
 288 187 l 1
 322 505 l 1
 546 505 l 1
 461 0 l 1
 86 0 l 1
 1 505 l 1
EndSplineSet
EndChar
StartChar: w
Encoding: 119 119 402
Width: 792
Flags: MW
HStem: 0 187<267 279 267 375 537 549 267 411> 485 20G<10 257 257 257 560 781 781 781>
VStem: 10 771<505 505>
LayerCount: 2
Back
Fore
SplineSet
10 505 m 1
 257 505 l 1
 267 187 l 1
 279 187 l 1
 302 492 l 1
 505 492 l 1
 537 187 l 1
 549 187 l 1
 560 505 l 1
 781 505 l 1
 730 0 l 1
 411 0 l 1
 394 218 l 1
 375 0 l 1
 70 0 l 1
 10 505 l 1
EndSplineSet
EndChar
StartChar: x
Encoding: 120 120 403
Width: 538
Flags: MW
HStem: 0 21G<-1 221 -1 -1 294 536 294 294> 485 20G<-1 239 239 239 319 539 539 539>
VStem: -1 540<0 505 505 505>
LayerCount: 2
Back
Fore
SplineSet
98 250 m 1
 -1 505 l 1
 239 505 l 1
 279 363 l 1
 319 505 l 1
 539 505 l 1
 450 254 l 1
 536 0 l 1
 294 0 l 1
 254 127 l 1
 221 0 l 1
 -1 0 l 1
 98 250 l 1
EndSplineSet
EndChar
StartChar: y
Encoding: 121 121 404
Width: 546
Flags: MW
HStem: -195 21G<181 427 181 181> 0 21G<86 86 86 244> 0 187<86 289> 485 20G<1 239 239 239 321 546 546 546>
VStem: 1 545<505 505>
LayerCount: 2
Back
Fore
SplineSet
86 0 m 1xd8
 1 505 l 1
 239 505 l 1
 275 187 l 1
 289 187 l 1xb8
 321 505 l 1
 546 505 l 1
 427 -195 l 1
 181 -195 l 1
 244 0 l 1
 86 0 l 1xd8
EndSplineSet
EndChar
StartChar: z
Encoding: 122 122 405
Width: 500
Flags: MW
HStem: 0 195<322 478 322 478> 310 195<24 475 24 172> 332 173<24 475>
VStem: 24 454<0 183 183 183 0 505 0 505>
LayerCount: 2
Back
Fore
SplineSet
24 310 m 1xd0
 24 505 l 1
 475 505 l 1xd0
 475 332 l 1xb0
 322 195 l 1
 478 195 l 1
 478 0 l 1
 24 0 l 1
 24 183 l 1
 172 310 l 1
 24 310 l 1xd0
EndSplineSet
EndChar
StartChar: braceleft
Encoding: 123 123 239
Width: 361
Flags: MW
HStem: -134 180<254 344> -134 895<255 344 255 344> 581 180<255 344>
VStem: 46 227<-39.5 129.5>
LayerCount: 2
Back
Fore
SplineSet
276 211 m 0x50
 276 181 273 146 273 113 c 0
 273 63 283 51 344 46 c 1
 344 -134 l 1
 164 -134 46 -117 46 38 c 0
 46 77 59 165 59 190 c 0
 59 210 44 224 15 230 c 1
 15 399 l 1
 44 404 59 417 59 433 c 0
 59 461 46 549 46 586 c 0
 46 748 166 761 344 761 c 1
 344 581 l 1
 283 576 273 568 273 518 c 0xb0
 273 485 276 466 276 437 c 0
 276 367 263 345 220 321 c 1
 263 297 276 270 276 211 c 0x50
EndSplineSet
Substitution2: "'case' Case-Sensitive Forms in Latin lookup 4 subtable" braceleft.cap
EndChar
StartChar: bar
Encoding: 124 124 220
Width: 286
Flags: MW
HStem: -220 21G<34 34 34 252> 683 20G<34 252 252 252>
VStem: 34 218<-220 703 -220 703>
LayerCount: 2
Back
Fore
SplineSet
34 -220 m 1
 34 703 l 1
 252 703 l 1
 252 -220 l 1
 34 -220 l 1
EndSplineSet
EndChar
StartChar: braceright
Encoding: 125 125 240
Width: 359
Flags: MW
HStem: -138 180<15 104> -138 895<15 104> 577 180<15 105>
VStem: 86 227<-44 121.5>
LayerCount: 2
Back
Fore
SplineSet
83 412 m 0x50
 83 442 86 477 86 510 c 0
 86 560 76 572 15 577 c 1
 15 757 l 1
 195 757 313 740 313 585 c 0
 313 546 300 458 300 433 c 0
 300 413 315 399 344 393 c 1
 344 224 l 1
 315 219 300 206 300 190 c 0
 300 162 313 74 313 37 c 0
 313 -125 193 -138 15 -138 c 1
 15 42 l 1
 76 47 86 55 86 105 c 0xb0
 86 138 83 157 83 186 c 0
 83 256 96 278 139 302 c 1
 96 326 83 353 83 412 c 0x50
EndSplineSet
Substitution2: "'case' Case-Sensitive Forms in Latin lookup 4 subtable" braceright.cap
EndChar
StartChar: asciitilde
Encoding: 126 126 210
Width: 550
Flags: MW
HStem: 136 185<353 396.5 353 405> 180 185<156 199>
VStem: 61 426<189 312>
LayerCount: 2
Back
Fore
SplineSet
479 360 m 1xa0
 487 189 l 1
 487 189 439 136 371 136 c 0xa0
 319 136 218 180 180 180 c 0
 132 180 71 140 71 140 c 1
 61 312 l 1
 61 312 115 365 188 365 c 0x60
 239 365 329 321 377 321 c 0
 416 321 479 360 479 360 c 1xa0
EndSplineSet
EndChar
StartChar: exclamdown
Encoding: 161 161 280
Width: 290
Flags: MW
HStem: 307 198<31 259 31 259>
VStem: 31 228<307 505 307 505>
LayerCount: 2
Back
Fore
SplineSet
259 505 m 1
 259 307 l 1
 31 307 l 1
 31 505 l 1
 259 505 l 1
252 261 m 1
 266 -165 l 1
 24 -165 l 1
 38 261 l 1
 252 261 l 1
EndSplineSet
Substitution2: "'case' Case-Sensitive Forms in Latin lookup 4 subtable" exclamdown.cap
EndChar
StartChar: cent
Encoding: 162 162 241
Width: 550
Flags: MW
HStem: -86 677<248 308 248 308> 300 291<293 308 248 351.5>
VStem: 41 222<238 270 238 333> 248 60<-86 42 42 42 466 591>
LayerCount: 2
Back
Fore
SplineSet
248 -86 m 1x90
 248 42 l 1x90
 93 46 41 107 41 254 c 0x60
 41 412 108 462 248 466 c 1
 248 591 l 1
 308 591 l 1
 308 465 l 1x50
 414 462 500 446 500 446 c 1
 494 296 l 1
 494 296 392 300 311 300 c 0
 275 300 263 286 263 254 c 0
 263 222 274 208 311 208 c 0
 392 208 496 212 496 212 c 1x60
 502 64 l 1
 502 64 419 47 308 43 c 1
 308 -86 l 1
 248 -86 l 1x90
EndSplineSet
EndChar
StartChar: sterling
Encoding: 163 163 248
Width: 550
Flags: MW
HStem: 0 183<33 95 296 389 33 95> 326 60<33 95 33 95 296 433> 487 183<351 360 239.5 405.5>
VStem: 95 201<183 326 183 326 386 414 183 427 183 527>
LayerCount: 2
Back
Fore
SplineSet
95 183 m 1
 95 326 l 1
 33 326 l 1
 33 386 l 1
 95 386 l 1
 95 427 l 2
 95 627 158 670 321 670 c 0
 399 670 497 649 497 649 c 1
 491 483 l 1
 491 483 420 487 391 487 c 0
 311 487 296 467 296 414 c 2
 296 386 l 1
 433 386 l 1
 433 326 l 1
 296 326 l 1
 296 183 l 1
 389 183 l 1
 507 198 l 1
 525 16 l 1
 404 0 l 1
 33 0 l 1
 33 183 l 1
 95 183 l 1
EndSplineSet
EndChar
StartChar: currency
Encoding: 164 164 272
Width: 550
Flags: MW
HStem: 35 133 350 133
VStem: 48 133 363 133
LayerCount: 2
Back
Fore
SplineSet
511 452 m 1
 451 393 l 1
 511 314 511 203 451 125 c 1
 511 66 l 1
 468 23 l 1
 409 82 l 1
 330 20 217 19 138 79 c 1
 82 23 l 1
 39 66 l 1
 95 121 l 1
 32 201 32 316 95 396 c 1
 39 452 l 1
 82 495 l 1
 138 438 l 1
 217 499 330 498 409 435 c 1
 468 495 l 1
 511 452 l 1
207 194 m 0
 241 159 302 159 336 194 c 0
 372 228 372 289 336 323 c 0
 302 359 241 359 207 323 c 0
 172 289 172 228 207 194 c 0
EndSplineSet
EndChar
StartChar: yen
Encoding: 165 165 214
Width: 581
Flags: MW
HStem: 0 207<48 400 48 174> 147 60<48 174 48 174 400 528> 299 60<48 128 48 128 48 150 448 528>
VStem: 174 226<0 147 0 147 207 237 0 237>
LayerCount: 2
Back
Fore
SplineSet
48 299 m 1xb0
 48 359 l 1
 128 359 l 1
 16 657 l 1
 252 657 l 1
 289 450 l 1
 330 657 l 1
 566 657 l 1
 448 359 l 1
 528 359 l 1
 528 299 l 1
 424 299 l 1
 400 237 l 1
 400 207 l 1
 528 207 l 1xb0
 528 147 l 1
 400 147 l 1x70
 400 0 l 1
 174 0 l 1xb0
 174 147 l 1
 48 147 l 1x70
 48 207 l 1
 174 207 l 1
 174 237 l 1
 150 299 l 1
 48 299 l 1xb0
EndSplineSet
EndChar
StartChar: brokenbar
Encoding: 166 166 203
Width: 284
Flags: MW
HStem: -220 21G<33 251 33 33> 683 20G<33 251 251 251>
VStem: 33 218<-220 170 -220 170 308 703>
LayerCount: 2
Back
Fore
SplineSet
33 703 m 1
 251 703 l 1
 251 308 l 1
 33 308 l 1
 33 703 l 1
33 170 m 1
 251 170 l 1
 251 -220 l 1
 33 -220 l 1
 33 170 l 1
EndSplineSet
EndChar
StartChar: section
Encoding: 167 167 156
Width: 595
Flags: MW
HStem: -195 180<259.5 300 259.5 377> 489 181<298 335.5 210 352>
VStem: 22 551<222.5 250> 32 224<454.5 473 454.5 537.5> 340 223<1 21.5> 362 211<225 242>
LayerCount: 2
Back
Fore
SplineSet
552 629 m 1xe0
 546 469 l 1
 546 469 376 489 328 489 c 0
 268 489 256 482 256 464 c 0
 256 445 267 438 358 420 c 0
 517 388 573 359 573 256 c 0xd4
 573 189 554 146 528 121 c 1
 553 93 563 74 563 11 c 0
 563 -158 438 -195 316 -195 c 0
 181 -195 37 -144 37 -144 c 1
 54 16 l 1
 61 13 233 -15 286 -15 c 0
 314 -15 340 -11 340 13 c 0
 340 30 320 36 218 56 c 0
 67 86 22 119 22 225 c 0
 22 275 40 310 65 340 c 1
 32 379 32 409 32 449 c 0xd8
 32 626 139 670 281 670 c 0
 390 670 552 629 552 629 c 1xe0
301 267 m 0
 283 271 265 275 253 280 c 1
 247 270 242 256 242 243 c 0
 242 228 249 225 287 213 c 0
 313 205 339 199 353 192 c 1
 360 207 362 218 362 232 c 0
 362 252 337 260 301 267 c 0
EndSplineSet
EndChar
StartChar: dieresis
Encoding: 168 168 8
Width: 418
Flags: MW
HStem: 559 154<24 188 24 188 24 234 234 398>
VStem: 24 164<559 713 559 713> 234 164<559 713 559 713>
LayerCount: 2
Back
Fore
SplineSet
234 559 m 1
 234 713 l 1
 398 713 l 1
 398 559 l 1
 234 559 l 1
24 559 m 1
 24 713 l 1
 188 713 l 1
 188 559 l 1
 24 559 l 1
EndSplineSet
EndChar
StartChar: copyright
Encoding: 169 169 157
Width: 597
Flags: MW
HStem: 150 60<236 359.5 236 382> 269 95<304.5 321> 503 95<303.5 323 265 325> 658 60<236.5 359>
VStem: 23 62<373 495 373 516> 179 103<412.5 463.5 412.5 500.5> 512 62<372 495>
LayerCount: 2
Back
Fore
SplineSet
23 434 m 0
 23 598 139 718 299 718 c 0
 467 718 574 589 574 434 c 0
 574 273 467 150 297 150 c 0
 140 150 23 274 23 434 c 0
85 434 m 0
 85 312 175 210 297 210 c 0
 422 210 512 310 512 434 c 0
 512 556 420 658 298 658 c 0
 175 658 85 556 85 434 c 0
179 439 m 0
 179 562 219 598 311 598 c 0
 335 598 354 594 369 590 c 2
 391 583 l 1
 384 497 l 1
 362 500 l 2
 349 501 333 503 317 503 c 0
 290 503 282 488 282 439 c 0
 282 386 292 364 317 364 c 0
 333 364 349 365 362 366 c 2
 384 369 l 1
 391 287 l 1
 370 278 l 2
 355 273 335 269 307 269 c 0
 219 269 179 303 179 439 c 0
EndSplineSet
EndChar
StartChar: ordfeminine
Encoding: 170 170 207
Width: 351
Flags: MW
HStem: 379 84<92 174 159 281> 490.5 65.5 572 94<135.5 171.5>
VStem: 16 131<470 478 470 506.5> 188 130<471 491 491 491 557 562 562 565.5>
LayerCount: 2
Back
Fore
SplineSet
318 571 m 2
 318 468 l 2
 321 466 329 464 334 463 c 1
 332 385 l 1
 332 385 288 379 274 379 c 0
 235 379 207 398 207 398 c 1
 207 398 171 379 126 379 c 0xb8
 58 379 16 407 16 471 c 0
 16 542 71 553 141 555 c 2xf8
 188 557 l 1
 188 562 l 2
 188 569 179 572 164 572 c 0
 107 572 31 565 31 565 c 1
 29 647 l 1
 29 647 100 666 168 666 c 0
 273 666 318 640 318 571 c 2
188 491 m 1xe8
 170 490 l 2xf8
 153 489 147 482 147 474 c 0
 147 466 150 463 168 463 c 0
 180 463 188 471 188 471 c 1xb8
 188 491 l 1xe8
EndSplineSet
EndChar
StartChar: guillemotleft
Encoding: 171 171 384
Width: 624
Flags: MW
HStem: 10 486<173 175 175 443>
VStem: 14 591<84 261 84 261>
LayerCount: 2
Back
Fore
SplineSet
335 422 m 1
 221 253 l 1
 335 84 l 1
 173 10 l 1
 14 240 l 1
 14 261 l 1
 175 496 l 1
 335 422 l 1
605 422 m 1
 491 253 l 1
 605 84 l 1
 443 10 l 1
 284 240 l 1
 284 261 l 1
 445 496 l 1
 605 422 l 1
EndSplineSet
EndChar
StartChar: logicalnot
Encoding: 172 172 276
Width: 550
Flags: MW
HStem: 392 151<1 386 1 537>
VStem: 386 151<231 392 392 392>
LayerCount: 2
Back
Fore
SplineSet
537 543 m 1
 537 231 l 1
 386 231 l 1
 386 392 l 1
 1 392 l 1
 1 543 l 1
 537 543 l 1
EndSplineSet
EndChar
StartChar: registered
Encoding: 174 174 159
Width: 597
Flags: MW
HStem: 150 60<238.5 360 238.5 382> 369 71<274 301 301 303 274 274> 519 72<273 273 273 300> 658 60<238 359>
VStem: 23 62<373 495 373 516> 178 96<276 369 276 591> 335 93<467.5 491> 512 62<372 495>
LayerCount: 2
Back
Fore
SplineSet
23 434 m 0
 23 598 139 718 298 718 c 0
 466 718 574 589 574 434 c 0
 574 273 466 150 298 150 c 0
 140 150 23 274 23 434 c 0
85 434 m 0
 85 312 179 210 298 210 c 0
 422 210 512 310 512 434 c 0
 512 556 420 658 298 658 c 0
 178 658 85 556 85 434 c 0
274 276 m 1
 178 276 l 1
 178 591 l 1
 314 591 l 2
 379 591 428 562 428 486 c 0
 428 434 419 410 390 386 c 1
 431 276 l 1
 331 276 l 1
 303 369 l 1
 274 369 l 1
 274 276 l 1
273 519 m 1
 273 440 l 1
 301 440 l 2
 324 440 335 456 335 479 c 0
 335 503 324 519 300 519 c 2
 273 519 l 1
EndSplineSet
EndChar
StartChar: macron
Encoding: 175 175 12
Width: 443
Flags: MW
HStem: 563 144<60 387 60 387>
VStem: 60 327<563 707 563 707>
LayerCount: 2
Back
Fore
SplineSet
60 563 m 1
 60 707 l 1
 387 707 l 1
 387 563 l 1
 60 563 l 1
EndSplineSet
EndChar
StartChar: degree
Encoding: 176 176 155
Width: 550
Flags: MW
HStem: 391 113<264.5 286 264.5 319.5> 577 113<264.5 286>
VStem: 125 115<529.5 551 529.5 584.5> 312 113<529.5 551>
LayerCount: 2
Back
Fore
SplineSet
125 540 m 0
 125 629 186 690 275 690 c 0
 364 690 425 629 425 540 c 0
 425 451 364 391 275 391 c 0
 186 391 125 451 125 540 c 0
240 540 m 0
 240 519 254 504 275 504 c 0
 297 504 312 519 312 540 c 0
 312 562 297 577 275 577 c 0
 254 577 240 562 240 540 c 0
EndSplineSet
EndChar
StartChar: plusminus
Encoding: 177 177 204
Width: 550
Flags: MW
HStem: 0 170<44 506 44 506> 251 170<44 185 44 185 365 506> 485 20G<185 365 365 365>
VStem: 185 180<180 251 180 251 421 505>
LayerCount: 2
Back
Fore
SplineSet
44 251 m 1
 44 421 l 1
 185 421 l 1
 185 505 l 1
 365 505 l 1
 365 421 l 1
 506 421 l 1
 506 251 l 1
 365 251 l 1
 365 180 l 1
 185 180 l 1
 185 251 l 1
 44 251 l 1
44 170 m 1
 506 170 l 1
 506 0 l 1
 44 0 l 1
 44 170 l 1
EndSplineSet
EndChar
StartChar: twosuperior
Encoding: 178 178 257
Width: 350
Flags: MW
HStem: 273 117<193 301 193 301> 560 114<139 154>
VStem: 43 258<273 385 385 385> 182 126<521.5 544.5>
LayerCount: 2
Back
Fore
SplineSet
301 273 m 1xa0
 43 273 l 1
 43 385 l 1xa0
 98 435 l 2
 154 489 182 506 182 537 c 0
 182 552 172 560 136 560 c 0
 98 560 51 555 51 555 c 1
 45 658 l 1
 45 658 111 674 167 674 c 0
 268 674 308 633 308 555 c 0
 308 488 281 470 213 405 c 1xd0
 193 390 l 1
 301 390 l 1
 301 273 l 1xa0
EndSplineSet
Substitution2: "Single Substitution lookup 5 subtable" twoinferior
EndChar
StartChar: acute
Encoding: 180 180 2
Width: 833
Flags: MW
HStem: 557 166<219 347 176 456>
VStem: 176 280<557 723>
LayerCount: 2
Back
Fore
SplineSet
219 723 m 1
 456 723 l 1
 347 557 l 1
 176 557 l 1
 219 723 l 1
EndSplineSet
EndChar
StartChar: mu
Encoding: 181 181 222
Width: 550
Flags: MW
HStem: 0 180<245 282 261 539 261 317> 485 20G<21 245 245 245 315 539 539 539>
VStem: 21 224<-248 0 228.5 259 259 505> 315 224<186 505 0 505>
LayerCount: 2
Back
Fore
SplineSet
315 505 m 1
 539 505 l 1
 539 0 l 1
 317 0 l 1
 316 22 l 1
 316 22 287 3 245 0 c 1
 245 -248 l 1
 21 -248 l 1
 21 505 l 1
 245 505 l 1
 245 259 l 2
 245 198 251 180 271 180 c 0
 293 180 315 186 315 186 c 1
 315 505 l 1
EndSplineSet
EndChar
StartChar: paragraph
Encoding: 182 182 249
Width: 578
Flags: MW
HStem: 0 21G<259 487 259 259> 511 189<487 557 487 487>
VStem: 259 228<0 210 210 210>
LayerCount: 2
Back
Fore
SplineSet
557 511 m 1
 487 511 l 1
 487 0 l 1
 259 0 l 1
 259 210 l 1
 252 210 l 2
 119 210 16 319 16 454 c 0
 16 589 121 700 254 700 c 2
 557 700 l 1
 557 511 l 1
EndSplineSet
EndChar
StartChar: periodcentered
Encoding: 183 183 270
Width: 265
Flags: MW
HStem: 149 200<30 235 30 235>
VStem: 30 205<149 349 149 349>
LayerCount: 2
Back
Fore
SplineSet
30 149 m 1
 30 349 l 1
 235 349 l 1
 235 149 l 1
 30 149 l 1
EndSplineSet
Substitution2: "'case' Case-Sensitive Forms in Latin lookup 4 subtable" periodcentered.cap
EndChar
StartChar: cedilla
Encoding: 184 184 5
Width: 833
Flags: MW
HStem: -231 88<403.5 529> -220 21G<360 360> -101 112<403 412 403 476>
VStem: 403 73<-33 11 -33 11 -33 11> 450 164<-128.5 -112.5>
LayerCount: 2
Back
Fore
SplineSet
614 -123 m 0xa8
 614 -199 571 -231 487 -231 c 0xb0
 420 -231 360 -220 360 -220 c 1x70
 364 -142 l 1
 364 -142 395 -143 412 -143 c 0
 442 -143 450 -136 450 -121 c 0xa8
 450 -104 441 -101 412 -101 c 2
 403 -101 l 1
 403 11 l 1
 476 11 l 1
 476 -33 l 1x70
 576 -34 614 -48 614 -123 c 0xa8
EndSplineSet
EndChar
StartChar: onesuperior
Encoding: 185 185 256
Width: 350
Flags: MW
HStem: 273 397<162 297 162 297 140 297>
VStem: 140 157<273 494 494 494>
LayerCount: 2
Back
Fore
SplineSet
21 588 m 1
 162 670 l 1
 297 670 l 1
 297 273 l 1
 140 273 l 1
 140 494 l 1
 57 460 l 1
 21 588 l 1
EndSplineSet
Substitution2: "Single Substitution lookup 5 subtable" oneinferior
EndChar
StartChar: ordmasculine
Encoding: 186 186 208
Width: 353
Flags: MW
HStem: 379 100<166.5 187.5 166.5 234> 566 100<166 187.5>
VStem: 15 131<506.5 539 506.5 574.5> 207 131<506.5 539.5>
LayerCount: 2
Back
Fore
SplineSet
177 666 m 0
 291 666 338 626 338 523 c 0
 338 418 291 379 177 379 c 0
 63 379 15 418 15 523 c 0
 15 626 63 666 177 666 c 0
177 479 m 0
 198 479 207 490 207 523 c 0
 207 556 198 566 177 566 c 0
 155 566 146 555 146 523 c 0
 146 490 156 479 177 479 c 0
EndSplineSet
EndChar
StartChar: guillemotright
Encoding: 187 187 385
Width: 624
Flags: MW
HStem: 10 486<179 181 181 449>
VStem: 19 591<84 266 245 422>
LayerCount: 2
Back
Fore
SplineSet
19 84 m 1
 133 253 l 1
 19 422 l 1
 181 496 l 1
 340 266 l 1
 340 245 l 1
 179 10 l 1
 19 84 l 1
289 84 m 1
 403 253 l 1
 289 422 l 1
 451 496 l 1
 610 266 l 1
 610 245 l 1
 449 10 l 1
 289 84 l 1
EndSplineSet
EndChar
StartChar: onequarter
Encoding: 188 188 422
Width: 968
Flags: MW
HStem: 0 161<731 760 731 907> 48 113<731 760 731 760 907 922> 671 20G<708 708>
VStem: 140 157<273 494 494 494> 760 147<0 48 0 48 161 216 216 216>
LayerCount: 2
Back
Fore
SplineSet
21 588 m 1xb8
 162 670 l 1
 297 670 l 1
 297 273 l 1
 140 273 l 1
 140 494 l 1
 57 460 l 1
 21 588 l 1xb8
258 5 m 1
 561 755 l 1
 708 691 l 1
 405 -59 l 1
 258 5 l 1
760 0 m 1
 760 48 l 1
 597 48 l 1
 597 146 l 1x78
 651 397 l 1
 809 397 l 1
 731 161 l 1
 760 161 l 1
 760 216 l 1
 907 234 l 1
 907 161 l 1
 922 161 l 1xb8
 922 48 l 1
 907 48 l 1x78
 907 0 l 1
 760 0 l 1
EndSplineSet
EndChar
StartChar: onehalf
Encoding: 189 189 443
Width: 959
Flags: MW
HStem: 0 117<795 903 795 903> 287 114<741 756> 671 20G<708 708>
VStem: 140 157<273 494 494 494> 645 258<0 112 112 112> 784 126<248.5 271.5>
LayerCount: 2
Back
Fore
SplineSet
258 5 m 1xf8
 561 755 l 1
 708 691 l 1
 405 -59 l 1
 258 5 l 1xf8
21 588 m 1
 162 670 l 1
 297 670 l 1
 297 273 l 1
 140 273 l 1
 140 494 l 1
 57 460 l 1
 21 588 l 1
903 0 m 1
 645 0 l 1
 645 112 l 1xf8
 700 162 l 2
 756 216 784 233 784 264 c 0
 784 279 774 287 738 287 c 0
 700 287 653 282 653 282 c 1
 647 385 l 1
 647 385 713 401 769 401 c 0
 870 401 910 360 910 282 c 0
 910 215 883 197 815 132 c 1xf4
 795 117 l 1
 903 117 l 1
 903 0 l 1
EndSplineSet
EndChar
StartChar: threequarters
Encoding: 190 190 444
Width: 1650
Flags: MW
HStem: 0 161<731 760 731 907> 48 113<731 760 731 760 907 922> 273 111<148 161 131 224.5> 422 102<76 153 153 158 76 153> 560 110<141 156> 671 20G<708 708>
VStem: 184 140<538.5 549> 189 140<394 409> 760 147<0 48 0 48 161 216 216 216>
LayerCount: 2
Back
Fore
SplineSet
760 0 m 1xb580
 760 48 l 1
 597 48 l 1
 597 146 l 1x7580
 651 397 l 1
 809 397 l 1
 731 161 l 1
 760 161 l 1
 760 216 l 1
 907 234 l 1
 907 161 l 1
 922 161 l 1xb580
 922 48 l 1
 907 48 l 1x7580
 907 0 l 1
 760 0 l 1xb580
258 5 m 1
 561 755 l 1
 708 691 l 1
 405 -59 l 1
 258 5 l 1
49 555 m 1xba80
 46 654 l 1
 46 654 121 670 161 670 c 0
 271 670 324 645 324 560 c 0xba80
 324 517 314 499 288 481 c 1
 314 461 329 444 329 401 c 0
 329 300 274 273 175 273 c 0
 121 273 43 289 43 289 c 1
 46 390 l 1
 46 390 113 384 149 384 c 0
 173 384 189 385 189 403 c 0
 189 415 182 420 158 422 c 2xb580
 76 422 l 1
 76 524 l 1
 153 524 l 2
 175 524 184 530 184 542 c 0
 184 556 168 560 144 560 c 0
 104 560 49 555 49 555 c 1xba80
EndSplineSet
EndChar
StartChar: questiondown
Encoding: 191 191 265
Width: 471
Flags: MW
HStem: -198 180<281.5 291> -4 21G<448 448> 325 180<156 384 156 384>
VStem: 16 226<5 31 5 61> 156 228<325 505 325 505>
LayerCount: 2
Back
Fore
SplineSet
16 9 m 0xf0
 16 113 40 143 104 188 c 0x70
 165 231 182 252 183 269 c 2
 184 288 l 1
 359 288 l 1
 359 288 382 257 382 209 c 0x68
 382 161 367 139 295 86 c 0
 249 52 242 45 242 17 c 0
 242 -7 258 -18 305 -18 c 0xf0
 372 -18 448 -4 448 -4 c 1x68
 455 -161 l 1
 455 -161 342 -198 240 -198 c 0
 83 -198 16 -143 16 9 c 0xf0
384 505 m 1x68
 384 325 l 1
 156 325 l 1
 156 505 l 1
 384 505 l 1x68
EndSplineSet
Substitution2: "'case' Case-Sensitive Forms in Latin lookup 4 subtable" questiondown.cap
EndChar
StartChar: Agrave
Encoding: 192 192 20
Width: 639
Flags: MW
HStem: 0 21G<-5 -5 -5 223 411 411 411 645> 77 177<269 368 269 392 239 368> 488 182<307 307 307 332> 713 136<251 389 147 423 251 251>
VStem: -5 650<0 0>
LayerCount: 2
Back
Fore
SplineSet
147 849 m 1
 389 849 l 1
 423 713 l 1
 251 713 l 1
 147 849 l 1
-5 0 m 1
 143 670 l 1
 494 670 l 1
 645 0 l 1
 411 0 l 1
 392 77 l 1
 239 77 l 1
 223 0 l 1
 -5 0 l 1
307 488 m 1
 269 254 l 1
 368 254 l 1
 332 488 l 1
 307 488 l 1
EndSplineSet
Position2: "'cpsp' Capital Spacing in Latin lookup 0 subtable" dx=5 dy=0 dh=10 dv=0
EndChar
StartChar: Aacute
Encoding: 193 193 17
Width: 639
Flags: MW
HStem: 0 21G<-5 -5 -5 223 411 411 411 645> 77 177<269 368 269 392 239 368> 488 182<307 307 307 332> 713 136<227 360 184 469>
VStem: -5 650<0 0>
LayerCount: 2
Back
Fore
SplineSet
-5 0 m 1
 143 670 l 1
 494 670 l 1
 645 0 l 1
 411 0 l 1
 392 77 l 1
 239 77 l 1
 223 0 l 1
 -5 0 l 1
307 488 m 1
 269 254 l 1
 368 254 l 1
 332 488 l 1
 307 488 l 1
227 849 m 1
 469 849 l 1
 360 713 l 1
 184 713 l 1
 227 849 l 1
EndSplineSet
Position2: "'cpsp' Capital Spacing in Latin lookup 0 subtable" dx=5 dy=0 dh=10 dv=0
EndChar
StartChar: Acircumflex
Encoding: 194 194 19
Width: 639
Flags: MW
HStem: 0 21G<-5 -5 -5 223 411 411 411 645> 77 177<269 368 269 392 239 368> 488 182<307 307 307 332> 713 136<138 391 239 307 334 334 334 391 239 503>
VStem: -5 650<0 0>
LayerCount: 2
Back
Fore
SplineSet
-5 0 m 1
 143 670 l 1
 494 670 l 1
 645 0 l 1
 411 0 l 1
 392 77 l 1
 239 77 l 1
 223 0 l 1
 -5 0 l 1
307 488 m 1
 269 254 l 1
 368 254 l 1
 332 488 l 1
 307 488 l 1
138 713 m 1
 239 849 l 1
 391 849 l 1
 503 713 l 1
 334 713 l 1
 319 775 l 1
 307 713 l 1
 138 713 l 1
EndSplineSet
Position2: "'cpsp' Capital Spacing in Latin lookup 0 subtable" dx=5 dy=0 dh=10 dv=0
EndChar
StartChar: Atilde
Encoding: 195 195 25
Width: 639
Flags: MW
HStem: 0 21G<-5 -5 -5 223 411 411 411 645> 77 177<269 368 269 392 239 368> 488 182<307 307 307 332> 712 142<377 404 377 422> 746 140<232 262.5>
VStem: -5 650<0 0>
LayerCount: 2
Back
Fore
SplineSet
-5 0 m 1xec
 143 670 l 1
 494 670 l 1
 645 0 l 1
 411 0 l 1
 392 77 l 1
 239 77 l 1
 223 0 l 1
 -5 0 l 1xec
307 488 m 1
 269 254 l 1
 368 254 l 1
 332 488 l 1
 307 488 l 1
473 877 m 1xf4
 502 770 l 1
 502 770 449 712 395 712 c 0xf4
 343 712 279 746 246 746 c 0
 218 746 166 721 166 721 c 1
 137 827 l 1
 137 827 191 886 244 886 c 0xec
 305 886 363 854 391 854 c 0
 417 854 473 877 473 877 c 1xf4
EndSplineSet
Position2: "'cpsp' Capital Spacing in Latin lookup 0 subtable" dx=5 dy=0 dh=10 dv=0
EndChar
StartChar: Adieresis
Encoding: 196 196 21
Width: 639
Flags: MW
HStem: 0 21G<-5 -5 -5 223 411 411 411 645> 77 177<269 368 269 392 239 368> 488 182<307 307 307 332> 713 144<136 297 136 297 136 343 343 504>
VStem: 136 161<713 857 713 857> 343 161<713 857 713 857>
LayerCount: 2
Back
Fore
SplineSet
-5 0 m 1
 143 670 l 1
 494 670 l 1
 645 0 l 1
 411 0 l 1
 392 77 l 1
 239 77 l 1
 223 0 l 1
 -5 0 l 1
307 488 m 1
 269 254 l 1
 368 254 l 1
 332 488 l 1
 307 488 l 1
343 713 m 1
 343 857 l 1
 504 857 l 1
 504 713 l 1
 343 713 l 1
136 713 m 1
 136 857 l 1
 297 857 l 1
 297 713 l 1
 136 713 l 1
EndSplineSet
Position2: "'cpsp' Capital Spacing in Latin lookup 0 subtable" dx=5 dy=0 dh=10 dv=0
EndChar
StartChar: AE
Encoding: 198 198 26
Width: 882
Flags: MW
HStem: 0 185<592 865 592 865> 77 179<270 366 270 366 239 366> 248 177<592 805 592 805> 485 185<307 307 307 366 592 865 592 592>
VStem: 366 226<0 248 77 248 425 485>
LayerCount: 2
Back
Fore
SplineSet
366 0 m 1xb8
 366 77 l 1
 239 77 l 1x58
 223 0 l 1
 -5 0 l 1
 143 670 l 1
 865 670 l 1
 865 485 l 1
 592 485 l 1
 592 425 l 1
 805 425 l 1
 805 248 l 1
 592 248 l 1
 592 185 l 1
 865 185 l 1
 865 0 l 1
 366 0 l 1xb8
307 485 m 1
 270 256 l 1
 366 256 l 1
 366 485 l 1
 307 485 l 1
EndSplineSet
Position2: "'cpsp' Capital Spacing in Latin lookup 0 subtable" dx=5 dy=0 dh=10 dv=0
EndChar
StartChar: Ccedilla
Encoding: 199 199 32
Width: 533
Flags: MW
HStem: -220 88<257.5 383> -209 21G<214 214> -90 68<257 330> -11 21G<257 257> 487 196<315.5 351.5 198 395.5>
VStem: 18 234<269.5 403 269.5 469> 257 73<-22 -12 -22 -11 -22 -11> 304 164<-117.5 -101.5>
LayerCount: 2
Back
Fore
SplineSet
468 -112 m 0xb9
 468 -188 425 -220 341 -220 c 0x9a
 274 -220 214 -209 214 -209 c 1x5a
 218 -131 l 1
 218 -131 249 -132 266 -132 c 0
 296 -132 304 -125 304 -110 c 0xb9
 304 -93 295 -90 266 -90 c 2
 257 -90 l 1xba
 257 -11 l 1x9a
 74 0 18 85 18 337 c 0
 18 601 82 683 314 683 c 0
 389 683 519 656 519 656 c 1
 513 477 l 1
 513 477 431 487 360 487 c 0
 271 487 252 469 252 337 c 0x9c
 252 202 272 183 360 183 c 0
 431 183 516 189 516 189 c 1
 519 13 l 1
 519 13 429 -9 330 -12 c 1
 330 -22 l 1xba
 430 -23 468 -37 468 -112 c 0xb9
EndSplineSet
Position2: "'cpsp' Capital Spacing in Latin lookup 0 subtable" dx=5 dy=0 dh=10 dv=0
EndChar
StartChar: Egrave
Encoding: 200 200 45
Width: 549
Flags: MW
HStem: 0 185<262 532 262 532> 245 183<262 472 262 472> 485 185<262 532 262 262> 713 136<217 355 113 389 217 217>
VStem: 30 232<185 245 428 485>
LayerCount: 2
Back
Fore
SplineSet
30 0 m 1
 30 670 l 1
 532 670 l 1
 532 485 l 1
 262 485 l 1
 262 428 l 1
 472 428 l 1
 472 245 l 1
 262 245 l 1
 262 185 l 1
 532 185 l 1
 532 0 l 1
 30 0 l 1
113 849 m 1
 355 849 l 1
 389 713 l 1
 217 713 l 1
 113 849 l 1
EndSplineSet
Position2: "'cpsp' Capital Spacing in Latin lookup 0 subtable" dx=5 dy=0 dh=10 dv=0
EndChar
StartChar: Ecircumflex
Encoding: 202 202 42
Width: 549
Flags: MW
HStem: 0 185<262 532 262 532> 245 183<262 472 262 472> 485 185<262 532 262 262> 713 136<94 347 195 263 290 290 290 347 195 459>
VStem: 30 232<185 245 428 485>
LayerCount: 2
Back
Fore
SplineSet
30 0 m 1
 30 670 l 1
 532 670 l 1
 532 485 l 1
 262 485 l 1
 262 428 l 1
 472 428 l 1
 472 245 l 1
 262 245 l 1
 262 185 l 1
 532 185 l 1
 532 0 l 1
 30 0 l 1
94 713 m 1
 195 849 l 1
 347 849 l 1
 459 713 l 1
 290 713 l 1
 275 775 l 1
 263 713 l 1
 94 713 l 1
EndSplineSet
Position2: "'cpsp' Capital Spacing in Latin lookup 0 subtable" dx=5 dy=0 dh=10 dv=0
EndChar
StartChar: Edieresis
Encoding: 203 203 43
Width: 549
Flags: MW
HStem: 0 185<262 532 262 532> 245 183<262 472 262 472> 485 185<262 532 262 262> 713 144<97 258 97 258 97 304 304 465>
VStem: 30 232<185 245 428 485> 97 161<713 857 713 857> 304 161<713 857 713 857>
LayerCount: 2
Back
Fore
SplineSet
30 0 m 1xfa
 30 670 l 1
 532 670 l 1
 532 485 l 1
 262 485 l 1
 262 428 l 1
 472 428 l 1
 472 245 l 1
 262 245 l 1
 262 185 l 1
 532 185 l 1
 532 0 l 1
 30 0 l 1xfa
304 713 m 1
 304 857 l 1
 465 857 l 1
 465 713 l 1
 304 713 l 1
97 713 m 1xf6
 97 857 l 1
 258 857 l 1
 258 713 l 1
 97 713 l 1xf6
EndSplineSet
Position2: "'cpsp' Capital Spacing in Latin lookup 0 subtable" dx=5 dy=0 dh=10 dv=0
EndChar
StartChar: Igrave
Encoding: 204 204 63
Width: 286
Flags: MW
HStem: 0 21G<30 30 30 256> 713 136<74 212 -30 246 74 74>
VStem: 30 226<0 670 0 670>
LayerCount: 2
Back
Fore
SplineSet
30 0 m 1
 30 670 l 1
 256 670 l 1
 256 0 l 1
 30 0 l 1
-30 849 m 1
 212 849 l 1
 246 713 l 1
 74 713 l 1
 -30 849 l 1
EndSplineSet
Position2: "'cpsp' Capital Spacing in Latin lookup 0 subtable" dx=5 dy=0 dh=10 dv=0
EndChar
StartChar: Iacute
Encoding: 205 205 58
Width: 292
Flags: MW
HStem: 0 21G<30 30 30 262> 713 136<83 216 40 325>
VStem: 30 232<0 670 0 670>
LayerCount: 2
Back
Fore
SplineSet
30 0 m 1
 30 670 l 1
 262 670 l 1
 262 0 l 1
 30 0 l 1
83 849 m 1
 325 849 l 1
 216 713 l 1
 40 713 l 1
 83 849 l 1
EndSplineSet
Position2: "'cpsp' Capital Spacing in Latin lookup 0 subtable" dx=5 dy=0 dh=10 dv=0
EndChar
StartChar: Icircumflex
Encoding: 206 206 60
Width: 286
Flags: MW
HStem: 0 21G<30 30 30 256> 713 136<-39 214 62 130 157 157 157 214 62 326>
VStem: 30 226<0 670 0 670>
LayerCount: 2
Back
Fore
SplineSet
30 0 m 1
 30 670 l 1
 256 670 l 1
 256 0 l 1
 30 0 l 1
-39 713 m 1
 62 849 l 1
 214 849 l 1
 326 713 l 1
 157 713 l 1
 142 775 l 1
 130 713 l 1
 -39 713 l 1
EndSplineSet
Position2: "'cpsp' Capital Spacing in Latin lookup 0 subtable" dx=5 dy=0 dh=10 dv=0
EndChar
StartChar: Idieresis
Encoding: 207 207 61
Width: 292
Flags: MW
HStem: 0 21G<30 30 30 262> 713 144<-38 123 -38 123 -38 169 169 330>
VStem: 30 93<0 857 670 857> 169 93<0 857>
LayerCount: 2
Back
Fore
SplineSet
30 0 m 1
 30 670 l 1
 262 670 l 1
 262 0 l 1
 30 0 l 1
169 713 m 1
 169 857 l 1
 330 857 l 1
 330 713 l 1
 169 713 l 1
-38 713 m 1
 -38 857 l 1
 123 857 l 1
 123 713 l 1
 -38 713 l 1
EndSplineSet
Position2: "'cpsp' Capital Spacing in Latin lookup 0 subtable" dx=5 dy=0 dh=10 dv=0
EndChar
StartChar: Ntilde
Encoding: 209 209 81
Width: 688
Flags: MW
HStem: 0 21G<30 30 30 262 429 429 429 658> 712 142<401 428 401 446> 746 140<256 286.5>
VStem: 30 232<0 273 0 670> 426 232<416 670 0 670>
LayerCount: 2
Back
Fore
SplineSet
30 0 m 1xb8
 30 670 l 1
 258 670 l 1
 412 416 l 1
 426 416 l 1
 426 670 l 1
 658 670 l 1
 658 0 l 1
 429 0 l 1
 277 273 l 1
 262 273 l 1
 262 0 l 1
 30 0 l 1xb8
497 877 m 1xd8
 526 770 l 1
 526 770 473 712 419 712 c 0xd8
 367 712 303 746 270 746 c 0
 242 746 190 721 190 721 c 1
 161 827 l 1
 161 827 215 886 268 886 c 0xb8
 329 886 387 854 415 854 c 0
 441 854 497 877 497 877 c 1xd8
EndSplineSet
Position2: "'cpsp' Capital Spacing in Latin lookup 0 subtable" dx=5 dy=0 dh=10 dv=0
EndChar
StartChar: Ocircumflex
Encoding: 212 212 85
Width: 670
Flags: MW
HStem: -13 188<298 373 298 446.5> 495 188<298 373.5> 713 136<153 406 254 322 349 349 349 406 254 518>
VStem: 16 234<283.5 386.5 283.5 457> 420 234<284 386.5>
LayerCount: 2
Back
Fore
SplineSet
335 175 m 0
 411 175 420 233 420 335 c 0
 420 438 412 495 335 495 c 0xf8
 261 495 250 438 250 335 c 0
 250 232 261 175 335 175 c 0
335 -13 m 0
 115 -13 16 91 16 335 c 0
 16 579 112 683 335 683 c 0xf8
 558 683 654 579 654 335 c 0
 654 91 558 -13 335 -13 c 0
153 713 m 1
 254 849 l 1
 406 849 l 1
 518 713 l 1
 349 713 l 1
 334 775 l 1
 322 713 l 1
 153 713 l 1
EndSplineSet
Position2: "'cpsp' Capital Spacing in Latin lookup 0 subtable" dx=5 dy=0 dh=10 dv=0
EndChar
StartChar: Otilde
Encoding: 213 213 92
Width: 670
Flags: MW
HStem: -13 188<298 373 298 446.5> 495 188<298 373.5> 712 142<393 420 393 438> 746 140<248 278.5>
VStem: 16 234<283.5 386.5 283.5 457> 420 234<284 386.5>
LayerCount: 2
Back
Fore
SplineSet
335 175 m 0xdc
 411 175 420 233 420 335 c 0
 420 438 412 495 335 495 c 0
 261 495 250 438 250 335 c 0
 250 232 261 175 335 175 c 0xdc
335 -13 m 0
 115 -13 16 91 16 335 c 0
 16 579 112 683 335 683 c 0
 558 683 654 579 654 335 c 0
 654 91 558 -13 335 -13 c 0
489 877 m 1xec
 518 770 l 1
 518 770 465 712 411 712 c 0xec
 359 712 295 746 262 746 c 0
 234 746 182 721 182 721 c 1
 153 827 l 1
 153 827 207 886 260 886 c 0xdc
 321 886 379 854 407 854 c 0
 433 854 489 877 489 877 c 1xec
EndSplineSet
Position2: "'cpsp' Capital Spacing in Latin lookup 0 subtable" dx=5 dy=0 dh=10 dv=0
EndChar
StartChar: Odieresis
Encoding: 214 214 86
Width: 670
Flags: MW
HStem: -13 188<298 373 298 446.5> 495 188<298 373.5> 713 144<151 312 151 312 151 358 358 519>
VStem: 16 234<283.5 386.5 283.5 457> 151 161<713 857 713 857> 358 161<713 857 713 857> 420 234<284 386.5>
LayerCount: 2
Back
Fore
SplineSet
335 175 m 0xf2
 411 175 420 233 420 335 c 0
 420 438 412 495 335 495 c 0
 261 495 250 438 250 335 c 0
 250 232 261 175 335 175 c 0xf2
335 -13 m 0
 115 -13 16 91 16 335 c 0
 16 579 112 683 335 683 c 0
 558 683 654 579 654 335 c 0
 654 91 558 -13 335 -13 c 0
358 713 m 1xac
 358 857 l 1
 519 857 l 1
 519 713 l 1
 358 713 l 1xac
151 713 m 1
 151 857 l 1
 312 857 l 1
 312 713 l 1
 151 713 l 1
EndSplineSet
Position2: "'cpsp' Capital Spacing in Latin lookup 0 subtable" dx=5 dy=0 dh=10 dv=0
EndChar
StartChar: multiply
Encoding: 215 215 182
Width: 550
Flags: MW
HStem: 3 500<148 148 148 402>
VStem: 25 500<125 126 126 381>
LayerCount: 2
Back
Fore
SplineSet
148 503 m 1
 274 376 l 1
 401 503 l 1
 525 380 l 1
 398 253 l 1
 525 126 l 1
 402 3 l 1
 274 129 l 1
 148 3 l 1
 25 125 l 1
 151 253 l 1
 25 381 l 1
 148 503 l 1
EndSplineSet
EndChar
StartChar: Uacute
Encoding: 218 218 111
Width: 641
Flags: MW
HStem: -13 191<298 344 298 418.5> 713 136<229 362 186 471>
VStem: 26 232<240 670> 383 232<231 244 244 670>
LayerCount: 2
Back
Fore
SplineSet
258 670 m 1
 258 231 l 2
 258 193 275 178 321 178 c 0
 367 178 383 193 383 231 c 2
 383 670 l 1
 615 670 l 1
 615 244 l 2
 615 49 516 -13 321 -13 c 0
 126 -13 26 45 26 240 c 2
 26 670 l 1
 258 670 l 1
229 849 m 1
 471 849 l 1
 362 713 l 1
 186 713 l 1
 229 849 l 1
EndSplineSet
Position2: "'cpsp' Capital Spacing in Latin lookup 0 subtable" dx=5 dy=0 dh=10 dv=0
EndChar
StartChar: Ucircumflex
Encoding: 219 219 113
Width: 634
Flags: MW
HStem: -13 191<293 341 293 414> 713 136<135 388 236 304 331 331 331 388 236 500>
VStem: 26 226<240 670> 382 226<231 244 244 670>
LayerCount: 2
Back
Fore
SplineSet
252 670 m 1
 252 231 l 2
 252 193 269 178 317 178 c 0
 365 178 382 193 382 231 c 2
 382 670 l 1
 608 670 l 1
 608 244 l 2
 608 50 511 -13 317 -13 c 0
 123 -13 26 46 26 240 c 2
 26 670 l 1
 252 670 l 1
135 713 m 1
 236 849 l 1
 388 849 l 1
 500 713 l 1
 331 713 l 1
 316 775 l 1
 304 713 l 1
 135 713 l 1
EndSplineSet
Position2: "'cpsp' Capital Spacing in Latin lookup 0 subtable" dx=5 dy=0 dh=10 dv=0
EndChar
StartChar: Udieresis
Encoding: 220 220 114
Width: 641
Flags: MW
HStem: -13 191<298 344 298 418.5> 713 144<136 297 136 297 136 343 343 504>
VStem: 136 122 383 121<231 857 670 857>
LayerCount: 2
Back
Fore
SplineSet
258 670 m 1
 258 231 l 2
 258 193 275 178 321 178 c 0
 367 178 383 193 383 231 c 2
 383 670 l 1
 615 670 l 1
 615 244 l 2
 615 49 516 -13 321 -13 c 0
 126 -13 26 45 26 240 c 2
 26 670 l 1
 258 670 l 1
343 713 m 1
 343 857 l 1
 504 857 l 1
 504 713 l 1
 343 713 l 1
136 713 m 1
 136 857 l 1
 297 857 l 1
 297 713 l 1
 136 713 l 1
EndSplineSet
Position2: "'cpsp' Capital Spacing in Latin lookup 0 subtable" dx=5 dy=0 dh=10 dv=0
EndChar
StartChar: Yacute
Encoding: 221 221 129
Width: 590
Flags: MW
HStem: 0 21G<178 410 178 178> 713 136<236 369 193 478>
VStem: 178 232<0 210 0 210>
LayerCount: 2
Back
Fore
SplineSet
410 210 m 1
 410 0 l 1
 178 0 l 1
 178 210 l 1
 -13 670 l 1
 233 670 l 1
 296 473 l 1
 361 670 l 1
 606 670 l 1
 410 210 l 1
236 849 m 1
 478 849 l 1
 369 713 l 1
 193 713 l 1
 236 849 l 1
EndSplineSet
Position2: "'cpsp' Capital Spacing in Latin lookup 0 subtable" dx=5 dy=0 dh=10 dv=0
EndChar
StartChar: Thorn
Encoding: 222 222 191
Width: 611
Flags: MW
HStem: 0 21G<30 256 30 30> 72 183<256 280 280 290 256 280> 417 183<256 280 256 290>
VStem: 30 226<0 72 255 417 600 670> 363 228<307.5 370>
LayerCount: 2
Back
Fore
SplineSet
290 72 m 2
 256 72 l 1
 256 0 l 1
 30 0 l 1
 30 670 l 1
 256 670 l 1
 256 600 l 1
 290 600 l 2
 487 600 591 549 591 339 c 0
 591 129 488 72 290 72 c 2
256 255 m 1
 280 255 l 2
 340 255 363 277 363 338 c 0
 363 402 341 417 280 417 c 2
 256 417 l 1
 256 255 l 1
EndSplineSet
Position2: "'cpsp' Capital Spacing in Latin lookup 0 subtable" dx=5 dy=0 dh=10 dv=0
EndChar
StartChar: germandbls
Encoding: 223 223 187
Width: 697
Flags: MW
HStem: -13 161<442 449.5 407.5 572.5> 0 148 515 188<311 359>
VStem: 28 224<0 453 453 460>
LayerCount: 2
Back
Fore
SplineSet
252 0 m 1x70
 28 0 l 1x70
 28 453 l 2
 28 647 110 703 340 703 c 0
 543 703 615 650 615 538 c 0
 615 472 606 458 553 429 c 0
 503 402 494 395 494 382 c 0
 494 362 507 355 573 332 c 0
 668 298 692 268 692 175 c 0
 692 43 645 -13 500 -13 c 0
 384 -13 292 11 292 11 c 1
 299 158 l 1
 299 158 377 148 438 148 c 0
 461 148 476 154 476 167 c 0
 476 177 461 184 380 215 c 0xb0
 307 243 288 275 288 324 c 0
 288 374 304 397 345 430 c 0
 386 463 389 472 389 484 c 0
 389 501 379 515 339 515 c 0
 283 515 252 502 252 460 c 2
 252 0 l 1x70
EndSplineSet
EndChar
StartChar: agrave
Encoding: 224 224 161
Width: 557
Flags: MW
HStem: -13 21G<132 236 399 448.5> -13 154<132 266.5 248 448.5> -1 21G<539 539> 192 122.5 344 174<218.5 264> 557 166<203 331 94 374 203 203>
VStem: 10 224<156 171 156 222.5> 294 224<156 193 193 193 316 325 325 332>
LayerCount: 2
Back
Fore
SplineSet
518 342 m 2x2d
 518 152 l 1
 522 149 535 143 542 141 c 1x5f
 539 -1 l 1
 539 -1 461 -13 436 -13 c 0
 362 -13 339 22 339 22 c 1
 339 22 277 -13 195 -13 c 0
 69 -13 10 38 10 157 c 0
 10 288 92 308 222 313 c 2x9f
 294 316 l 1
 294 325 l 2
 294 339 277 344 251 344 c 0
 162 344 37 331 37 331 c 1
 32 483 l 1
 32 483 164 518 273 518 c 0
 418 518 518 487 518 342 c 2x2d
294 193 m 1
 260 191 l 2
 244 190 234 179 234 163 c 0
 234 149 240 141 256 141 c 0
 277 141 294 156 294 156 c 1
 294 193 l 1
94 723 m 1
 331 723 l 1
 374 557 l 1
 203 557 l 1
 94 723 l 1
EndSplineSet
EndChar
StartChar: atilde
Encoding: 227 227 164
Width: 557
Flags: MW
HStem: -13 21G<132 236 399 448.5> -13 154<132 266.5 248 448.5> -1 21G<539 539> 192 122.5 344 174<218.5 264> 547 141<334 361 334 379> 591 140<189 219.5>
VStem: 10 224<156 171 156 222.5> 294 224<156 193 193 193 316 325 325 332>
LayerCount: 2
Back
Fore
SplineSet
518 342 m 2x2a80
 518 152 l 1
 522 149 535 143 542 141 c 1x5d80
 539 -1 l 1
 539 -1 461 -13 436 -13 c 0
 362 -13 339 22 339 22 c 1
 339 22 277 -13 195 -13 c 0
 69 -13 10 38 10 157 c 0
 10 288 92 308 222 313 c 2x9b80
 294 316 l 1
 294 325 l 2
 294 339 277 344 251 344 c 0
 162 344 37 331 37 331 c 1
 32 483 l 1
 32 483 164 518 273 518 c 0
 418 518 518 487 518 342 c 2x2a80
294 193 m 1
 260 191 l 2
 244 190 234 179 234 163 c 0
 234 149 240 141 256 141 c 0
 277 141 294 156 294 156 c 1
 294 193 l 1
430 727 m 1
 459 610 l 1
 459 610 406 547 352 547 c 0x2c80
 300 547 236 591 203 591 c 0
 175 591 123 551 123 551 c 1
 94 667 l 1
 94 667 148 731 201 731 c 0x2a80
 262 731 320 688 348 688 c 0
 374 688 430 727 430 727 c 1
EndSplineSet
EndChar
StartChar: aring
Encoding: 229 229 165
Width: 557
Flags: MW
HStem: -13 21G<132 236 399 448.5> -13 154<132 266.5 248 448.5> -1 21G<539 539> 192 122.5 344 174<218.5 264> 543 77<269 285 269 317.5> 663 78<269 285>
VStem: 10 224<156 171 156 222.5> 142 104<634.5 649 634.5 676.5> 294 224<156 193 193 193 316 325 325 332> 307 103<634.5 649>
LayerCount: 2
Back
Fore
SplineSet
518 342 m 2x2ac0
 518 152 l 1
 522 149 535 143 542 141 c 1x5b40
 539 -1 l 1
 539 -1 461 -13 436 -13 c 0
 362 -13 339 22 339 22 c 1
 339 22 277 -13 195 -13 c 0
 69 -13 10 38 10 157 c 0x9b40
 10 288 92 308 222 313 c 2x3ac0
 294 316 l 1
 294 325 l 2
 294 339 277 344 251 344 c 0
 162 344 37 331 37 331 c 1
 32 483 l 1
 32 483 164 518 273 518 c 0
 418 518 518 487 518 342 c 2x2ac0
294 193 m 1
 260 191 l 2
 244 190 234 179 234 163 c 0
 234 149 240 141 256 141 c 0
 277 141 294 156 294 156 c 1
 294 193 l 1
142 642 m 0x2ea0
 142 711 197 741 276 741 c 0
 354 741 410 711 410 642 c 0
 410 578 359 543 276 543 c 0
 197 543 142 573 142 642 c 0x2ea0
246 642 m 0
 246 627 261 620 277 620 c 0
 293 620 307 627 307 642 c 0
 307 656 293 663 277 663 c 0
 261 663 246 656 246 642 c 0
EndSplineSet
EndChar
StartChar: ae
Encoding: 230 230 223
Width: 807
Flags: MW
HStem: -13 154<134.5 260.5> -13 165<526 588.5> 187 122<494 571 493 783 494 494> 192 122.5 344 174<212.5 258> 362 156<517 545.5>
VStem: 10 218<156 171 156 224.5> 10 783<97.5 365.5> 571 222<309 329>
LayerCount: 2
Back
Fore
SplineSet
543 152 m 0x65
 635 152 778 161 778 161 c 1
 783 16 l 1
 783 16 650 -13 527 -13 c 0
 460 -13 414 -2 383 21 c 1
 368 16 270 -13 189 -13 c 0
 80 -13 10 38 10 157 c 0
 10 292 81 306 220 313 c 2x56
 288 316 l 1
 288 325 l 2
 288 339 271 344 245 344 c 0
 156 344 37 331 37 331 c 1x69
 32 483 l 1
 32 483 158 518 267 518 c 0
 332 518 377 512 408 492 c 1
 439 509 479 518 532 518 c 0
 705 518 793 445 793 286 c 1
 783 187 l 1x6480
 494 187 l 1
 495 162 509 152 543 152 c 0x65
493 309 m 1x6480
 571 309 l 1
 571 349 559 362 532 362 c 0
 502 362 494 346 493 309 c 1x6480
288 193 m 1x96
 254 191 l 2
 238 190 228 179 228 163 c 0
 228 149 234 141 250 141 c 0
 271 141 288 156 288 156 c 1
 288 193 l 1x96
EndSplineSet
EndChar
StartChar: ccedilla
Encoding: 231 231 188
Width: 466
Flags: MW
HStem: -231 88<208.5 334> -220 21G<165 165> -101 68<208 281> -13 21G<281 281> -10 21G<208 208> 323 195<279 305.5 178 319>
VStem: 17 226<226.5 279 226.5 355> 208 73<-33 -13 -33 -10 -33 -10> 255 164<-128.5 -112.5>
LayerCount: 2
Back
Fore
SplineSet
419 -123 m 0xac80
 419 -199 376 -231 292 -231 c 0x8d
 225 -231 165 -220 165 -220 c 1x4d
 169 -142 l 1
 169 -142 200 -143 217 -143 c 0
 247 -143 255 -136 255 -121 c 0xac80
 255 -104 246 -101 217 -101 c 2
 208 -101 l 1x6d
 208 -10 l 1x4d
 60 5 17 83 17 253 c 0
 17 457 89 518 267 518 c 0
 344 518 448 492 448 492 c 1
 441 315 l 1
 441 315 338 323 300 323 c 0
 258 323 243 305 243 253 c 0
 243 200 257 183 300 183 c 0x4e
 338 183 443 190 443 190 c 1
 450 15 l 1
 450 15 364 -10 281 -13 c 1x55
 281 -33 l 1x6d
 381 -34 419 -48 419 -123 c 0xac80
EndSplineSet
EndChar
StartChar: eacute
Encoding: 233 233 166
Width: 552
Flags: MW
HStem: -13 165<271 333.5> 187 122<239 314 238 528 239 239> 362 156<262 290.5> 557 166<210 338 167 447>
VStem: 15 224<187 187 187 331>
LayerCount: 2
Back
Fore
SplineSet
288 152 m 0
 380 152 523 161 523 161 c 1
 528 16 l 1
 528 16 395 -13 272 -13 c 0
 82 -13 15 66 15 243 c 0
 15 419 91 518 277 518 c 0
 450 518 538 445 538 286 c 1
 528 187 l 1
 239 187 l 1
 240 162 254 152 288 152 c 0
238 309 m 1
 314 309 l 1
 314 347 304 362 277 362 c 0
 247 362 239 346 238 309 c 1
210 723 m 1
 447 723 l 1
 338 557 l 1
 167 557 l 1
 210 723 l 1
EndSplineSet
EndChar
StartChar: edieresis
Encoding: 235 235 169
Width: 552
Flags: MW
HStem: -13 165<271 333.5> 187 122<239 314 238 528 239 239> 362 156<262 290.5> 559 154<89 253 89 253 89 299 299 463>
VStem: 15 224<187 187 187 331> 89 164<559 713 559 713> 299 164<559 713 559 713>
LayerCount: 2
Back
Fore
SplineSet
288 152 m 0xfa
 380 152 523 161 523 161 c 1
 528 16 l 1
 528 16 395 -13 272 -13 c 0
 82 -13 15 66 15 243 c 0
 15 419 91 518 277 518 c 0
 450 518 538 445 538 286 c 1
 528 187 l 1
 239 187 l 1
 240 162 254 152 288 152 c 0xfa
238 309 m 1
 314 309 l 1
 314 347 304 362 277 362 c 0
 247 362 239 346 238 309 c 1
299 559 m 1
 299 713 l 1
 463 713 l 1
 463 559 l 1
 299 559 l 1
89 559 m 1xf6
 89 713 l 1
 253 713 l 1
 253 559 l 1
 89 559 l 1xf6
EndSplineSet
EndChar
StartChar: igrave
Encoding: 236 236 185
Width: 280
Flags: MW
HStem: 0 21G<28 28 28 252> 485 20G<28 252 252 252> 557 166<71 199 -38 242 71 71>
VStem: 28 224<0 505 0 505>
LayerCount: 2
Back
Fore
SplineSet
28 0 m 1
 28 505 l 1
 252 505 l 1
 252 0 l 1
 28 0 l 1
-38 723 m 1
 199 723 l 1
 242 557 l 1
 71 557 l 1
 -38 723 l 1
EndSplineSet
EndChar
StartChar: iacute
Encoding: 237 237 184
Width: 280
Flags: MW
HStem: 0 21G<28 28 28 252> 485 20G<28 252 252 252> 557 166<81 209 38 318>
VStem: 28 224<0 505 0 505>
LayerCount: 2
Back
Fore
SplineSet
28 0 m 1
 28 505 l 1
 252 505 l 1
 252 0 l 1
 28 0 l 1
81 723 m 1
 318 723 l 1
 209 557 l 1
 38 557 l 1
 81 723 l 1
EndSplineSet
EndChar
StartChar: icircumflex
Encoding: 238 238 186
Width: 280
Flags: MW
HStem: 0 21G<28 28 28 252> 485 20G<28 252 252 252> 557 166<-35 214 56 127 154 154 154 214 56 316>
VStem: 28 224<0 505 0 505>
LayerCount: 2
Back
Fore
SplineSet
28 0 m 1
 28 505 l 1
 252 505 l 1
 252 0 l 1
 28 0 l 1
-35 557 m 1
 56 723 l 1
 214 723 l 1
 316 557 l 1
 154 557 l 1
 139 629 l 1
 127 557 l 1
 -35 557 l 1
EndSplineSet
EndChar
StartChar: idieresis
Encoding: 239 239 170
Width: 280
Flags: MW
HStem: 0 21G<28 28 28 252> 485 20G<28 252 252 252> 559 154<-48 116 -48 116 -48 162 162 326>
VStem: 28 88<0 713 505 713> 162 90<0 713>
LayerCount: 2
Back
Fore
SplineSet
28 0 m 1
 28 505 l 1
 252 505 l 1
 252 0 l 1
 28 0 l 1
162 559 m 1
 162 713 l 1
 326 713 l 1
 326 559 l 1
 162 559 l 1
-48 559 m 1
 -48 713 l 1
 116 713 l 1
 116 559 l 1
 -48 559 l 1
EndSplineSet
EndChar
StartChar: eth
Encoding: 240 240 190
Width: 529
Flags: MW
HStem: -9 142<218 275 218 340> 302 139<214 244 150.5 259.5>
VStem: 6 170<192.5 236 192.5 284> 342 170<232 286>
LayerCount: 2
Back
Fore
SplineSet
142 444 m 1
 79 533 l 1
 146 577 l 1
 117 583 84 589 46 595 c 1
 65 705 l 1
 152 702 228 693 291 673 c 1
 384 735 l 1
 405 706 425 675 446 646 c 1
 403 617 l 1
 474 562 512 475 512 345 c 0
 512 112 434 -9 246 -9 c 0
 88 -9 6 60 6 217 c 0
 6 351 73 441 228 441 c 0
 260 441 319 442 343 423 c 1
 336 471 320 506 275 533 c 1
 142 444 l 1
237 302 m 0
 191 302 176 255 176 217 c 0
 176 168 190 133 246 133 c 0
 304 133 342 178 342 286 c 1
 297 302 282 302 237 302 c 0
EndSplineSet
EndChar
StartChar: ntilde
Encoding: 241 241 171
Width: 578
Flags: MW
HStem: 0 21G<28 252 28 28 331 331 331 555> 479 26<28 251> 498 20G<337.5 432.5> 547 141<354 381 354 399> 591 140<209 239.5>
VStem: 28 224<0 318> 331 224<0 238 238 253 0 268.5>
LayerCount: 2
Back
Fore
SplineSet
252 0 m 1xce
 28 0 l 1
 28 505 l 1
 251 505 l 1
 251 479 l 1xd6
 251 479 314 518 361 518 c 0xae
 504 518 555 451 555 253 c 2
 555 0 l 1
 331 0 l 1
 331 238 l 2
 331 299 319 325 295 325 c 0
 276 325 252 318 252 318 c 1
 252 0 l 1xce
450 727 m 1
 479 610 l 1
 479 610 426 547 372 547 c 0xd6
 320 547 256 591 223 591 c 0
 195 591 143 551 143 551 c 1
 114 667 l 1
 114 667 168 731 221 731 c 0xce
 282 731 340 688 368 688 c 0
 394 688 450 727 450 727 c 1
EndSplineSet
EndChar
StartChar: oacute
Encoding: 243 243 172
Width: 564
Flags: MW
HStem: -13 181<266.5 297.5 266.5 368.5> 337 181<266.5 297.5> 557 166<227 355 184 464>
VStem: 15 226<220.5 285 220.5 349> 323 226<220.5 285.5>
LayerCount: 2
Back
Fore
SplineSet
282 518 m 0
 455 518 549 445 549 253 c 0
 549 58 455 -13 282 -13 c 0
 109 -13 15 58 15 253 c 0
 15 445 109 518 282 518 c 0
282 168 m 0
 313 168 323 188 323 253 c 0
 323 318 313 337 282 337 c 0
 251 337 241 317 241 253 c 0
 241 188 251 168 282 168 c 0
227 723 m 1
 464 723 l 1
 355 557 l 1
 184 557 l 1
 227 723 l 1
EndSplineSet
EndChar
StartChar: otilde
Encoding: 245 245 176
Width: 564
Flags: MW
HStem: -13 181<266.5 297.5 266.5 368.5> 337 181<266.5 297.5> 547 141<340 367 340 385> 591 140<195 225.5>
VStem: 15 226<220.5 285 220.5 349> 323 226<220.5 285.5>
LayerCount: 2
Back
Fore
SplineSet
282 518 m 0xdc
 455 518 549 445 549 253 c 0
 549 58 455 -13 282 -13 c 0
 109 -13 15 58 15 253 c 0
 15 445 109 518 282 518 c 0xdc
282 168 m 0
 313 168 323 188 323 253 c 0
 323 318 313 337 282 337 c 0
 251 337 241 317 241 253 c 0
 241 188 251 168 282 168 c 0
436 727 m 1xec
 465 610 l 1
 465 610 412 547 358 547 c 0xec
 306 547 242 591 209 591 c 0
 181 591 129 551 129 551 c 1
 100 667 l 1
 100 667 154 731 207 731 c 0xdc
 268 731 326 688 354 688 c 0
 380 688 436 727 436 727 c 1xec
EndSplineSet
EndChar
StartChar: odieresis
Encoding: 246 246 175
Width: 564
Flags: MW
HStem: -13 181<266.5 297.5 266.5 368.5> 337 181<266.5 297.5> 559 154<95 259 95 259 95 305 305 469>
VStem: 15 226<220.5 285 220.5 349> 95 164<559 713 559 713> 305 164<559 713 559 713> 323 226<220.5 285.5>
LayerCount: 2
Back
Fore
SplineSet
282 518 m 0xf2
 455 518 549 445 549 253 c 0
 549 58 455 -13 282 -13 c 0
 109 -13 15 58 15 253 c 0
 15 445 109 518 282 518 c 0xf2
282 168 m 0
 313 168 323 188 323 253 c 0
 323 318 313 337 282 337 c 0
 251 337 241 317 241 253 c 0
 241 188 251 168 282 168 c 0
305 559 m 1xec
 305 713 l 1
 469 713 l 1
 469 559 l 1
 305 559 l 1xec
95 559 m 1
 95 713 l 1
 259 713 l 1
 259 559 l 1
 95 559 l 1
EndSplineSet
EndChar
StartChar: divide
Encoding: 247 247 244
Width: 550
Flags: MW
HStem: 10 140<175 375 175 375> 170 170<43 507 43 507> 360 140<175 375 175 375>
VStem: 175 200<10 150 10 150 360 500>
LayerCount: 2
Back
Fore
SplineSet
43 340 m 1
 507 340 l 1
 507 170 l 1
 43 170 l 1
 43 340 l 1
175 360 m 1
 175 500 l 1
 375 500 l 1
 375 360 l 1
 175 360 l 1
175 10 m 1
 175 150 l 1
 375 150 l 1
 375 10 l 1
 175 10 l 1
EndSplineSet
EndChar
StartChar: oslash
Encoding: 248 248 192
Width: 564
Flags: MW
HStem: -13 181<276 297.5 266.5 368.5> -12 21G<247 252.5> 337 181<266.5 286.5 195.5 297.5> 498 20G<195.5 286.5>
VStem: 15 226<220.5 285 220.5 349> 323 226<220.5 285.5>
LayerCount: 2
Back
Fore
SplineSet
212 -74 m 1x5c
 -5 -30 l 1
 57 78 l 1
 29 120 15 177 15 253 c 0
 15 445 109 518 282 518 c 0
 291 518 299 518 308 517 c 1
 328 552 349 588 349 589 c 0
 349 590 566 546 566 546 c 1
 502 433 l 1
 533 391 549 332 549 253 c 0
 549 58 455 -13 282 -13 c 0
 270 -13 258 -12 247 -12 c 1
 212 -74 l 1x5c
282 168 m 0xac
 313 168 323 188 323 253 c 0
 323 318 313 337 282 337 c 0
 251 337 241 317 241 253 c 0
 241 188 251 168 282 168 c 0xac
EndSplineSet
EndChar
StartChar: uacute
Encoding: 250 250 177
Width: 577
Flags: MW
HStem: -13 21G<140.5 238> 0 180<269 549 269 327> 485 20G<23 247 247 247 325 549 549 549> 557 166<229 357 186 466>
VStem: 23 224<244 259 259 505> 325 224<186 505 0 505>
LayerCount: 2
Back
Fore
SplineSet
325 505 m 1xbc
 549 505 l 1
 549 0 l 1
 327 0 l 1x7c
 327 24 l 1
 327 24 263 -13 213 -13 c 0xbc
 68 -13 23 71 23 244 c 2
 23 505 l 1
 247 505 l 1
 247 259 l 2
 247 198 257 180 281 180 c 0
 303 180 325 186 325 186 c 1x7c
 325 505 l 1xbc
229 723 m 1
 466 723 l 1
 357 557 l 1
 186 557 l 1
 229 723 l 1
EndSplineSet
EndChar
StartChar: udieresis
Encoding: 252 252 180
Width: 577
Flags: MW
HStem: -13 21G<140.5 238> 0 180<269 549 269 327> 485 20G<23 247 247 247 325 549 549 549> 559 154<104 268 104 268 104 314 314 478>
VStem: 23 224<244 259 259 505> 104 164<559 713 559 713> 314 164<559 713 559 713> 325 224<186 505 0 505>
LayerCount: 2
Back
Fore
SplineSet
325 505 m 1xb5
 549 505 l 1
 549 0 l 1
 327 0 l 1x75
 327 24 l 1
 327 24 263 -13 213 -13 c 0xb9
 68 -13 23 71 23 244 c 2
 23 505 l 1
 247 505 l 1
 247 259 l 2
 247 198 257 180 281 180 c 0
 303 180 325 186 325 186 c 1x79
 325 505 l 1xb5
314 559 m 1xb6
 314 713 l 1
 478 713 l 1
 478 559 l 1
 314 559 l 1xb6
104 559 m 1
 104 713 l 1
 268 713 l 1
 268 559 l 1
 104 559 l 1
EndSplineSet
EndChar
StartChar: yacute
Encoding: 253 253 153
Width: 546
Flags: MW
HStem: -195 21G<181 427 181 181> 0 21G<86 86 86 244> 0 187<86 289> 485 20G<1 239 239 239 321 546 546 546> 557 166<223 351 180 460>
VStem: 1 545<505 505>
LayerCount: 2
Back
Fore
SplineSet
86 0 m 1xdc
 1 505 l 1
 239 505 l 1
 275 187 l 1
 289 187 l 1xbc
 321 505 l 1
 546 505 l 1
 427 -195 l 1
 181 -195 l 1
 244 0 l 1
 86 0 l 1xdc
223 723 m 1
 460 723 l 1
 351 557 l 1
 180 557 l 1
 223 723 l 1
EndSplineSet
EndChar
StartChar: thorn
Encoding: 254 254 448
Width: 569
Flags: MW
HStem: -195 21G<27 251 27 27> -13 21G<317 414.5> -13 181<273.5 414.5> 0 21G<251 251> 498 20G<336.5 428> 683 20G<27 251 251 251>
VStem: 27 224<-195 0 -195 171 171 330 502 703> 327 226<233 289>
LayerCount: 2
Back
Fore
SplineSet
251 703 m 1x9e
 251 502 l 1
 251 502 318 518 355 518 c 0
 501 518 553 419 553 248 c 0xcf
 553 73 496 -13 333 -13 c 0
 301 -13 251 0 251 0 c 1
 251 -195 l 1
 27 -195 l 1
 27 703 l 1
 251 703 l 1x9e
283 337 m 0
 274 337 251 330 251 330 c 1
 251 171 l 1
 251 171 264 168 283 168 c 0
 320 168 327 210 327 256 c 0xaf
 327 322 313 337 283 337 c 0
EndSplineSet
EndChar
StartChar: ydieresis
Encoding: 255 255 151
Width: 546
Flags: MW
HStem: -195 21G<181 427 181 181> 0 21G<86 86 86 244> 0 187<86 289> 485 20G<1 239 239 239 321 546 546 546> 559 154<86 250 86 250 86 296 296 460>
VStem: 86 164<559 713 559 713> 296 164<559 713 559 713>
LayerCount: 2
Back
Fore
SplineSet
86 0 m 1xde
 1 505 l 1
 239 505 l 1
 275 187 l 1
 289 187 l 1xbe
 321 505 l 1
 546 505 l 1
 427 -195 l 1
 181 -195 l 1
 244 0 l 1
 86 0 l 1xde
296 559 m 1
 296 713 l 1
 460 713 l 1
 460 559 l 1
 296 559 l 1
86 559 m 1
 86 713 l 1
 250 713 l 1
 250 559 l 1
 86 559 l 1
EndSplineSet
EndChar
StartChar: Amacron
Encoding: 256 256 22
Width: 639
Flags: MW
HStem: 0 21G<-5 -5 -5 223 411 411 411 645> 77 177<269 368 269 392 239 368> 488 182<307 307 307 332> 713 136<159 480 159 480>
VStem: -5 650<0 0> 159 321<713 849 713 849>
LayerCount: 2
Back
Fore
SplineSet
-5 0 m 1xf8
 143 670 l 1
 494 670 l 1
 645 0 l 1
 411 0 l 1
 392 77 l 1
 239 77 l 1
 223 0 l 1
 -5 0 l 1xf8
307 488 m 1
 269 254 l 1
 368 254 l 1
 332 488 l 1
 307 488 l 1
159 713 m 1xf4
 159 849 l 1
 480 849 l 1
 480 713 l 1
 159 713 l 1xf4
EndSplineSet
Position2: "'cpsp' Capital Spacing in Latin lookup 0 subtable" dx=5 dy=0 dh=10 dv=0
EndChar
StartChar: amacron
Encoding: 257 257 302
Width: 557
Flags: MW
HStem: -13 21G<132 236 399 448.5> -13 154<132 266.5 248 448.5> -1 21G<539 539> 192 122.5 344 174<218.5 264> 563 144<113 440 113 440>
VStem: 10 224<156 171 156 222.5> 113 327<563 707 563 707> 294 224<156 193 193 193 316 325 325 332>
LayerCount: 2
Back
Fore
SplineSet
518 342 m 2x2c80
 518 152 l 1
 522 149 535 143 542 141 c 1x5e80
 539 -1 l 1
 539 -1 461 -13 436 -13 c 0
 362 -13 339 22 339 22 c 1
 339 22 277 -13 195 -13 c 0
 69 -13 10 38 10 157 c 0
 10 288 92 308 222 313 c 2x9e80
 294 316 l 1
 294 325 l 2
 294 339 277 344 251 344 c 0
 162 344 37 331 37 331 c 1
 32 483 l 1
 32 483 164 518 273 518 c 0
 418 518 518 487 518 342 c 2x2c80
294 193 m 1
 260 191 l 2
 244 190 234 179 234 163 c 0
 234 149 240 141 256 141 c 0
 277 141 294 156 294 156 c 1
 294 193 l 1
113 563 m 1x2d
 113 707 l 1
 440 707 l 1
 440 563 l 1
 113 563 l 1x2d
EndSplineSet
EndChar
StartChar: Abreve
Encoding: 258 258 18
Width: 639
Flags: MW
HStem: 0 21G<-5 -5 -5 223 411 411 411 645> 77 177<269 368 269 392 239 368> 488 182<307 307 307 332> 712 115<305 335 305 382.5>
VStem: -5 650<0 0>
LayerCount: 2
Back
Fore
SplineSet
-5 0 m 1
 143 670 l 1
 494 670 l 1
 645 0 l 1
 411 0 l 1
 392 77 l 1
 239 77 l 1
 223 0 l 1
 -5 0 l 1
307 488 m 1
 269 254 l 1
 368 254 l 1
 332 488 l 1
 307 488 l 1
364 872 m 1
 480 862 l 1
 480 787 445 712 320 712 c 0
 195 712 160 787 160 862 c 1
 276 872 l 1
 279 846 290 827 320 827 c 0
 350 827 361 846 364 872 c 1
EndSplineSet
Position2: "'cpsp' Capital Spacing in Latin lookup 0 subtable" dx=5 dy=0 dh=10 dv=0
EndChar
StartChar: abreve
Encoding: 259 259 303
Width: 557
Flags: MW
HStem: -13 21G<132 236 399 448.5> -13 154<132 266.5 248 448.5> -1 21G<539 539> 192 122.5 344 174<218.5 264> 548 125<257 287 257 337>
VStem: 10 224<156 171 156 222.5> 294 224<156 193 193 193 316 325 325 332>
LayerCount: 2
Back
Fore
SplineSet
518 342 m 2x29
 518 152 l 1
 522 149 535 143 542 141 c 1x5f
 539 -1 l 1
 539 -1 461 -13 436 -13 c 0
 362 -13 339 22 339 22 c 1
 339 22 277 -13 195 -13 c 0
 69 -13 10 38 10 157 c 0
 10 288 92 308 222 313 c 2x9b
 294 316 l 1
 294 325 l 2
 294 339 277 344 251 344 c 0
 162 344 37 331 37 331 c 1
 32 483 l 1
 32 483 164 518 273 518 c 0
 418 518 518 487 518 342 c 2x29
294 193 m 1
 260 191 l 2
 244 190 234 179 234 163 c 0
 234 149 240 141 256 141 c 0
 277 141 294 156 294 156 c 1
 294 193 l 1
316 718 m 1
 432 708 l 1
 432 628 402 548 272 548 c 0
 142 548 112 628 112 708 c 1
 228 718 l 1
 231 692 242 673 272 673 c 0
 302 673 313 692 316 718 c 1
EndSplineSet
EndChar
StartChar: Aogonek
Encoding: 260 260 23
Width: 639
Flags: MW
HStem: -219 115<464 595.5> 0 21G<-5 223 -5 -5 411 411 643 643 643 645> 77 177<269 368 269 392 239 368> 488 182<307 307 307 332>
VStem: -5 650<0 1>
LayerCount: 2
Back
Fore
SplineSet
631 -100 m 1
 644 -204 l 1
 644 -204 595 -219 508 -219 c 0
 420 -219 353 -193 353 -103 c 0
 353 -54 381 -20 411 0 c 1
 392 77 l 1
 239 77 l 1
 223 0 l 1
 -5 0 l 1
 143 670 l 1
 494 670 l 1
 645 1 l 1
 645 0 l 1
 643 0 l 1
 634 -5 563 -49 563 -82 c 0
 563 -95 569 -104 585 -104 c 0
 606 -104 631 -100 631 -100 c 1
307 488 m 1
 269 254 l 1
 368 254 l 1
 332 488 l 1
 307 488 l 1
EndSplineSet
Position2: "'cpsp' Capital Spacing in Latin lookup 0 subtable" dx=5 dy=0 dh=10 dv=0
EndChar
StartChar: aogonek
Encoding: 261 261 305
Width: 557
Flags: MW
HStem: -220 21G<362 449.5> -220 115<362 493.5> -205 21G<542 542> -13 21G<132 236> -13 154<132 266.5> -1 21G<539 539> 192 122.5 344 174<218.5 264>
VStem: 10 224<156 171 156 222.5> 251 210<-89.5 -71.5 -89.5 -70> 294 224<156 193 193 193 316 325 325 332>
LayerCount: 2
Back
Fore
SplineSet
529 -101 m 1x4540
 542 -205 l 1
 542 -205 493 -220 406 -220 c 0
 318 -220 251 -194 251 -104 c 0
 251 -36 305 1 341 19 c 1
 340 20 339 22 339 22 c 1x9140
 339 22 277 -13 195 -13 c 0
 69 -13 10 38 10 157 c 0
 10 288 92 308 222 313 c 2x33a0
 294 316 l 1
 294 325 l 2
 294 339 277 344 251 344 c 0
 162 344 37 331 37 331 c 1
 32 483 l 1
 32 483 164 518 273 518 c 0
 418 518 518 487 518 342 c 2
 518 152 l 1
 522 149 535 143 542 141 c 1x2920
 539 -1 l 1x2520
 539 -1 527 -3 512 -5 c 1
 490 -26 461 -60 461 -83 c 0
 461 -96 467 -105 483 -105 c 0
 504 -105 529 -101 529 -101 c 1x4540
294 193 m 1x2ba0
 260 191 l 2
 244 190 234 179 234 163 c 0
 234 149 240 141 256 141 c 0
 277 141 294 156 294 156 c 1
 294 193 l 1x2ba0
EndSplineSet
EndChar
StartChar: Cacute
Encoding: 262 262 30
Width: 533
Flags: MW
HStem: -13 196<316 358.5> 487 196<315.5 351.5 198 395.5> 713 136<221 354 178 463>
VStem: 18 234<269.5 403 269.5 469>
LayerCount: 2
Back
Fore
SplineSet
516 189 m 1
 519 13 l 1
 519 13 413 -13 304 -13 c 0
 84 -13 18 65 18 337 c 0
 18 601 82 683 314 683 c 0
 389 683 519 656 519 656 c 1
 513 477 l 1
 513 477 431 487 360 487 c 0xf0
 271 487 252 469 252 337 c 0
 252 202 272 183 360 183 c 0
 431 183 516 189 516 189 c 1
221 849 m 1xb0
 463 849 l 1
 354 713 l 1
 178 713 l 1
 221 849 l 1xb0
EndSplineSet
Position2: "'cpsp' Capital Spacing in Latin lookup 0 subtable" dx=5 dy=0 dh=10 dv=0
EndChar
StartChar: Ccircumflex
Encoding: 264 264 33
Width: 533
Flags: MW
HStem: -13 196<316 358.5> 487 196<315.5 351.5 198 395.5> 713 136<106 359 207 275 302 302 302 359 207 471>
VStem: 18 234<269.5 403 269.5 469>
LayerCount: 2
Back
Fore
SplineSet
516 189 m 1
 519 13 l 1
 519 13 413 -13 304 -13 c 0
 84 -13 18 65 18 337 c 0
 18 601 82 683 314 683 c 0
 389 683 519 656 519 656 c 1
 513 477 l 1
 513 477 431 487 360 487 c 0xf0
 271 487 252 469 252 337 c 0
 252 202 272 183 360 183 c 0
 431 183 516 189 516 189 c 1
106 713 m 1xb0
 207 849 l 1
 359 849 l 1
 471 713 l 1
 302 713 l 1
 287 775 l 1
 275 713 l 1
 106 713 l 1xb0
EndSplineSet
Position2: "'cpsp' Capital Spacing in Latin lookup 0 subtable" dx=5 dy=0 dh=10 dv=0
EndChar
StartChar: ccircumflex
Encoding: 265 265 308
Width: 465
Flags: MW
HStem: -13 196<277.5 309.5> 323 195<278 304.5 177 318> 557 166<57 306 148 219 246 246 246 306 148 408>
VStem: 16 226<226.5 279 226.5 355>
LayerCount: 2
Back
Fore
SplineSet
266 518 m 0
 343 518 447 492 447 492 c 1
 440 315 l 1
 440 315 337 323 299 323 c 0
 257 323 242 305 242 253 c 0
 242 200 256 183 299 183 c 0
 337 183 442 190 442 190 c 1
 449 15 l 1
 449 15 353 -13 266 -13 c 0
 70 -13 16 62 16 253 c 0
 16 457 88 518 266 518 c 0
57 557 m 1
 148 723 l 1
 306 723 l 1
 408 557 l 1
 246 557 l 1
 231 629 l 1
 219 557 l 1
 57 557 l 1
EndSplineSet
EndChar
StartChar: cdotaccent
Encoding: 267 267 310
Width: 465
Flags: MW
HStem: -13 196<277.5 309.5> 323 195<278 304.5 177 318> 563 153<149 335 149 335>
VStem: 16 226<226.5 279 226.5 355> 149 186<563 716 563 716>
LayerCount: 2
Back
Fore
SplineSet
266 518 m 0xe8
 343 518 447 492 447 492 c 1
 440 315 l 1
 440 315 337 323 299 323 c 0
 257 323 242 305 242 253 c 0
 242 200 256 183 299 183 c 0
 337 183 442 190 442 190 c 1
 449 15 l 1
 449 15 353 -13 266 -13 c 0
 70 -13 16 62 16 253 c 0xf0
 16 457 88 518 266 518 c 0xe8
149 563 m 1
 149 716 l 1
 335 716 l 1
 335 563 l 1
 149 563 l 1
EndSplineSet
EndChar
StartChar: Ccaron
Encoding: 268 268 31
Width: 533
Flags: MW
HStem: -13 196<316 358.5> 487 196<315.5 351.5 198 395.5> 712 136<197 197 197 265 292 349>
VStem: 18 234<269.5 403 269.5 469>
LayerCount: 2
Back
Fore
SplineSet
516 189 m 1
 519 13 l 1
 519 13 413 -13 304 -13 c 0
 84 -13 18 65 18 337 c 0
 18 601 82 683 314 683 c 0
 389 683 519 656 519 656 c 1
 513 477 l 1
 513 477 431 487 360 487 c 0xf0
 271 487 252 469 252 337 c 0
 252 202 272 183 360 183 c 0
 431 183 516 189 516 189 c 1
197 712 m 1xb0
 96 848 l 1
 265 848 l 1
 279 786 l 1
 292 848 l 1
 461 848 l 1
 349 712 l 1
 197 712 l 1xb0
EndSplineSet
Position2: "'cpsp' Capital Spacing in Latin lookup 0 subtable" dx=5 dy=0 dh=10 dv=0
EndChar
StartChar: Dcaron
Encoding: 270 270 36
Width: 654
Flags: MW
HStem: 0 189<262 303 303 323> 481 189<262 303 262 262> 712 136<222 222 222 290 317 374>
VStem: 30 232<189 481 189 670 189 670> 404 234<296 391.5>
LayerCount: 2
Back
Fore
SplineSet
323 0 m 2
 30 0 l 1
 30 670 l 1
 313 670 l 2
 546 670 638 568 638 345 c 0
 638 122 556 0 323 0 c 2
404 345 m 0
 404 438 393 481 303 481 c 2
 262 481 l 1
 262 189 l 1
 303 189 l 2
 398 189 404 247 404 345 c 0
222 712 m 1
 121 848 l 1
 290 848 l 1
 304 786 l 1
 317 848 l 1
 486 848 l 1
 374 712 l 1
 222 712 l 1
EndSplineSet
Position2: "'cpsp' Capital Spacing in Latin lookup 0 subtable" dx=5 dy=0 dh=10 dv=0
EndChar
StartChar: dcaron
Encoding: 271 271 311
Width: 748
Flags: MW
HStem: -13 21G<136.5 239> 0 168<267 542 267 321> 337 181<156.5 291> 454 215<581 805 601 743> 454 236<318 581 318 743> 492 20G<318 318>
VStem: 16 226<229.5 274.5 229.5 332.5> 318 224<171 334 334 334 512 690 0 690>
LayerCount: 2
Back
Fore
SplineSet
581 454 m 1x89
 601 669 l 1
 805 669 l 1x91
 743 454 l 1
 581 454 l 1x89
542 690 m 1x89
 542 0 l 1
 321 0 l 1x63
 319 22 l 1
 319 22 264 -13 214 -13 c 0
 59 -13 16 91 16 252 c 0xa3
 16 413 76 518 237 518 c 0
 265 518 318 512 318 512 c 1x85
 318 690 l 1
 542 690 l 1x89
287 168 m 0
 294 168 318 171 318 171 c 1
 318 334 l 1
 318 334 296 337 286 337 c 0
 247 337 242 297 242 252 c 0
 242 207 247 168 287 168 c 0
EndSplineSet
EndChar
StartChar: Dcroat
Encoding: 272 272 37
Width: 661
Flags: MW
HStem: 0 189<269 310 310 330> 270 137<-1 37 -1 37 269 324> 481 189<269 310 269 269>
VStem: 37 232<189 270 189 270 189 270 407 481 189 670> 411 234<296 391.5>
LayerCount: 2
Back
Fore
SplineSet
-1 270 m 1
 -1 407 l 1
 37 407 l 1
 37 670 l 1
 320 670 l 2
 553 670 645 568 645 345 c 0
 645 122 563 0 330 0 c 2
 37 0 l 1
 37 270 l 1
 -1 270 l 1
411 345 m 0
 411 438 400 481 310 481 c 2
 269 481 l 1
 269 407 l 1
 324 407 l 1
 324 270 l 1
 269 270 l 1
 269 189 l 1
 310 189 l 2
 405 189 411 247 411 345 c 0
EndSplineSet
Position2: "'cpsp' Capital Spacing in Latin lookup 0 subtable" dx=5 dy=0 dh=10 dv=0
EndChar
StartChar: Emacron
Encoding: 274 274 46
Width: 549
Flags: MW
HStem: 0 185<262 532 262 532> 245 183<262 472 262 472> 485 185<262 532 262 262> 713 136<121 442 121 442>
VStem: 30 232<185 245 428 485> 121 321<713 849 713 849>
LayerCount: 2
Back
Fore
SplineSet
30 0 m 1xf8
 30 670 l 1
 532 670 l 1
 532 485 l 1
 262 485 l 1
 262 428 l 1
 472 428 l 1
 472 245 l 1
 262 245 l 1
 262 185 l 1
 532 185 l 1
 532 0 l 1
 30 0 l 1xf8
121 713 m 1xf4
 121 849 l 1
 442 849 l 1
 442 713 l 1
 121 713 l 1xf4
EndSplineSet
Position2: "'cpsp' Capital Spacing in Latin lookup 0 subtable" dx=5 dy=0 dh=10 dv=0
EndChar
StartChar: emacron
Encoding: 275 275 314
Width: 552
Flags: MW
HStem: -13 165<271 333.5> 187 122<239 314 238 528 239 239> 362 156<262 290.5> 563 144<113 440 113 440>
VStem: 15 224<187 187 187 331> 113 327<563 707 563 707>
LayerCount: 2
Back
Fore
SplineSet
288 152 m 0xf8
 380 152 523 161 523 161 c 1
 528 16 l 1
 528 16 395 -13 272 -13 c 0
 82 -13 15 66 15 243 c 0
 15 419 91 518 277 518 c 0
 450 518 538 445 538 286 c 1
 528 187 l 1
 239 187 l 1
 240 162 254 152 288 152 c 0xf8
238 309 m 1
 314 309 l 1
 314 347 304 362 277 362 c 0
 247 362 239 346 238 309 c 1
113 563 m 1xf4
 113 707 l 1
 440 707 l 1
 440 563 l 1
 113 563 l 1xf4
EndSplineSet
EndChar
StartChar: Ebreve
Encoding: 276 276 40
Width: 549
Flags: MW
HStem: 0 185<262 532 262 532> 245 183<262 472 262 472> 485 185<262 532 262 262> 712 115<256 286 256 333.5>
VStem: 30 232<185 245 428 485>
LayerCount: 2
Back
Fore
SplineSet
30 0 m 1
 30 670 l 1
 532 670 l 1
 532 485 l 1
 262 485 l 1
 262 428 l 1
 472 428 l 1
 472 245 l 1
 262 245 l 1
 262 185 l 1
 532 185 l 1
 532 0 l 1
 30 0 l 1
315 872 m 1
 431 862 l 1
 431 787 396 712 271 712 c 0
 146 712 111 787 111 862 c 1
 227 872 l 1
 230 846 241 827 271 827 c 0
 301 827 312 846 315 872 c 1
EndSplineSet
Position2: "'cpsp' Capital Spacing in Latin lookup 0 subtable" dx=5 dy=0 dh=10 dv=0
EndChar
StartChar: ebreve
Encoding: 277 277 315
Width: 552
Flags: MW
HStem: -13 165<271 333.5> 187 122<239 314 238 528 239 239> 362 156<262 290.5> 548 125<262 292 262 342>
VStem: 15 224<187 187 187 331> 15 523<286 331>
LayerCount: 2
Back
Fore
SplineSet
288 152 m 0xe8
 380 152 523 161 523 161 c 1
 528 16 l 1
 528 16 395 -13 272 -13 c 0
 82 -13 15 66 15 243 c 0
 15 419 91 518 277 518 c 0
 450 518 538 445 538 286 c 1
 528 187 l 1
 239 187 l 1
 240 162 254 152 288 152 c 0xe8
238 309 m 1
 314 309 l 1
 314 347 304 362 277 362 c 0
 247 362 239 346 238 309 c 1
321 718 m 1xf4
 437 708 l 1
 437 628 407 548 277 548 c 0
 147 548 117 628 117 708 c 1
 233 718 l 1
 236 692 247 673 277 673 c 0
 307 673 318 692 321 718 c 1xf4
EndSplineSet
EndChar
StartChar: Edotaccent
Encoding: 278 278 44
Width: 549
Flags: MW
HStem: 0 185<262 532 262 532> 245 183<262 472 262 472> 485 185<262 532 262 262> 713 143<191 371 191 371>
VStem: 30 232<185 245 428 485> 191 180<713 856 713 856>
LayerCount: 2
Back
Fore
SplineSet
30 0 m 1xf8
 30 670 l 1
 532 670 l 1
 532 485 l 1
 262 485 l 1
 262 428 l 1
 472 428 l 1
 472 245 l 1
 262 245 l 1
 262 185 l 1
 532 185 l 1
 532 0 l 1
 30 0 l 1xf8
191 713 m 1xf4
 191 856 l 1
 371 856 l 1
 371 713 l 1
 191 713 l 1xf4
EndSplineSet
Position2: "'cpsp' Capital Spacing in Latin lookup 0 subtable" dx=5 dy=0 dh=10 dv=0
EndChar
StartChar: Eogonek
Encoding: 280 280 47
Width: 549
Flags: MW
HStem: -220 21G<353 440.5> -220 115<353 484.5> -205 21G<533 533> 0 185<262 300 508 508 508 532> 245 183<262 472 262 472> 485 185<262 532 262 262>
VStem: 30 232<185 245 428 485>
LayerCount: 2
Back
Fore
SplineSet
30 0 m 1x3e
 30 670 l 1
 532 670 l 1
 532 485 l 1
 262 485 l 1
 262 428 l 1
 472 428 l 1
 472 245 l 1
 262 245 l 1
 262 185 l 1
 532 185 l 1
 532 0 l 1
 508 0 l 1
 487 -21 452 -58 452 -83 c 0
 452 -96 458 -105 474 -105 c 0
 495 -105 520 -101 520 -101 c 1x5e
 533 -205 l 1
 533 -205 484 -220 397 -220 c 0x9e
 309 -220 242 -194 242 -104 c 0
 242 -54 271 -21 300 0 c 1
 30 0 l 1x3e
EndSplineSet
Position2: "'cpsp' Capital Spacing in Latin lookup 0 subtable" dx=5 dy=0 dh=10 dv=0
EndChar
StartChar: eogonek
Encoding: 281 281 317
Width: 552
Flags: MW
HStem: -220 21G<355 442.5> -220 115<355 486.5> -13 165<271 272 272 286> 187 122<239 314 238 528 239 239> 362 156<262 290.5>
VStem: 15 224<187 187 187 331> 15 523<286 331>
LayerCount: 2
Back
Fore
SplineSet
522 -101 m 1x7a
 535 -205 l 1
 535 -205 486 -220 399 -220 c 0
 311 -220 244 -194 244 -104 c 0
 244 -63 263 -34 286 -13 c 1
 272 -13 l 2
 82 -13 15 66 15 243 c 0
 15 419 91 518 277 518 c 0
 450 518 538 445 538 286 c 1
 528 187 l 1
 239 187 l 1
 240 162 254 152 288 152 c 0xbc
 380 152 523 161 523 161 c 1
 528 16 l 1
 528 16 454 -48 454 -83 c 0
 454 -96 460 -105 476 -105 c 0
 497 -105 522 -101 522 -101 c 1x7a
238 309 m 1
 314 309 l 1
 314 347 304 362 277 362 c 0
 247 362 239 346 238 309 c 1
EndSplineSet
EndChar
StartChar: Ecaron
Encoding: 282 282 41
Width: 549
Flags: MW
HStem: 0 185<262 532 262 532> 245 183<262 472 262 472> 485 185<262 532 262 262> 712 136<190 190 190 258 285 342>
VStem: 30 232<185 245 428 485>
LayerCount: 2
Back
Fore
SplineSet
30 0 m 1
 30 670 l 1
 532 670 l 1
 532 485 l 1
 262 485 l 1
 262 428 l 1
 472 428 l 1
 472 245 l 1
 262 245 l 1
 262 185 l 1
 532 185 l 1
 532 0 l 1
 30 0 l 1
190 712 m 1
 89 848 l 1
 258 848 l 1
 272 786 l 1
 285 848 l 1
 454 848 l 1
 342 712 l 1
 190 712 l 1
EndSplineSet
Position2: "'cpsp' Capital Spacing in Latin lookup 0 subtable" dx=5 dy=0 dh=10 dv=0
EndChar
StartChar: Gcircumflex
Encoding: 284 284 51
Width: 619
Flags: MW
HStem: -9 190<303.5 348.5 303.5 371.5> 232 162<346 346 346 376> 487 196<302.5 389.5 219.5 397.5> 713 136<142 395 243 311 338 338 338 395 243 507>
VStem: 17 234<283.5 394.5 283.5 466.5> 345.5 246.5
LayerCount: 2
Back
Fore
SplineSet
346 232 m 1
 345 394 l 1
 592 394 l 1
 592 20 l 1
 592 20 411 -9 332 -9 c 0
 77 -9 17 98 17 336 c 0
 17 597 107 683 332 683 c 0
 447 683 587 649 587 649 c 1
 587 474 l 1
 587 474 443 487 352 487 c 0xfc
 253 487 251 453 251 336 c 0
 251 231 265 181 342 181 c 0
 355 181 376 182 376 182 c 1
 376 232 l 1
 346 232 l 1
142 713 m 1xdc
 243 849 l 1
 395 849 l 1
 507 713 l 1
 338 713 l 1
 323 775 l 1
 311 713 l 1
 142 713 l 1xdc
EndSplineSet
Position2: "'cpsp' Capital Spacing in Latin lookup 0 subtable" dx=5 dy=0 dh=10 dv=0
EndChar
StartChar: Gbreve
Encoding: 286 286 50
Width: 619
Flags: MW
HStem: -9 190<303.5 348.5 303.5 371.5> 232 162<346 346 346 376> 487 196<302.5 389.5 219.5 397.5> 712 115<309 339 309 386.5>
VStem: 17 234<283.5 394.5 283.5 466.5> 345.5 246.5
LayerCount: 2
Back
Fore
SplineSet
346 232 m 1
 345 394 l 1
 592 394 l 1
 592 20 l 1
 592 20 411 -9 332 -9 c 0
 77 -9 17 98 17 336 c 0
 17 597 107 683 332 683 c 0
 447 683 587 649 587 649 c 1
 587 474 l 1
 587 474 443 487 352 487 c 0
 253 487 251 453 251 336 c 0
 251 231 265 181 342 181 c 0
 355 181 376 182 376 182 c 1
 376 232 l 1
 346 232 l 1
368 872 m 1xfc
 484 862 l 1
 484 787 449 712 324 712 c 0
 199 712 164 787 164 862 c 1
 280 872 l 1
 283 846 294 827 324 827 c 0
 354 827 365 846 368 872 c 1xfc
EndSplineSet
Position2: "'cpsp' Capital Spacing in Latin lookup 0 subtable" dx=5 dy=0 dh=10 dv=0
EndChar
StartChar: gbreve
Encoding: 287 287 319
Width: 562
Flags: MW
HStem: -220 154<248 302 248 372.5> -35 173<259 432> 157 146<267.5 279.5 252.5 356.5> 375 143<252.5 279.5> 379 131<506 553 506 553> 548 125<268 298 268 348>
VStem: 12 183<-142 -47.5> 17 210<325.5 352.5 325.5 404.5> 305 210<325.5 344 263 352.5> 347 203<-56 -43>
LayerCount: 2
Back
Fore
SplineSet
293 -220 m 0xce40
 127 -220 12 -203 12 -81 c 0
 12 -35 26 0 76 39 c 1
 54 54 40 83 40 114 c 0xce
 40 139 98 187 98 187 c 1
 60 205 17 244 17 338 c 0
 17 471 89 518 265 518 c 0xd580
 308 518 368 507 368 507 c 1
 553 510 l 1
 553 379 l 1
 506 379 l 1
 510 368 515 350 515 338 c 0
 515 188 440 157 273 157 c 0
 262 157 247 158 235 160 c 1xec80
 235 160 231 154 231 148 c 0
 231 140 257 138 362 138 c 0
 502 138 550 99 550 -22 c 0
 550 -150 452 -220 293 -220 c 0xce40
281 -35 m 0
 237 -35 204 -31 204 -31 c 1
 195 -36 195 -42 195 -53 c 0
 195 -63 222 -66 274 -66 c 0
 330 -66 347 -62 347 -50 c 0
 347 -36 331 -35 281 -35 c 0
266 303 m 0xf580
 293 303 305 312 305 339 c 0
 305 366 293 375 266 375 c 0
 239 375 227 366 227 339 c 0
 227 312 239 303 266 303 c 0xf580
327 718 m 1xcc80
 443 708 l 1
 443 628 413 548 283 548 c 0
 153 548 123 628 123 708 c 1
 239 718 l 1
 242 692 253 673 283 673 c 0
 313 673 324 692 327 718 c 1xcc80
EndSplineSet
EndChar
StartChar: Gdotaccent
Encoding: 288 288 53
Width: 619
Flags: MW
HStem: -9 190<303.5 348.5 303.5 371.5> 232 162<346 346 346 376> 487 196<302.5 389.5 219.5 397.5> 706 153<211 397 211 397>
VStem: 17 234<283.5 394.5 283.5 466.5> 211 186<706 859 706 859> 345.5 246.5
LayerCount: 2
Back
Fore
SplineSet
346 232 m 1xfa
 345 394 l 1
 592 394 l 1
 592 20 l 1
 592 20 411 -9 332 -9 c 0
 77 -9 17 98 17 336 c 0
 17 597 107 683 332 683 c 0
 447 683 587 649 587 649 c 1
 587 474 l 1
 587 474 443 487 352 487 c 0
 253 487 251 453 251 336 c 0
 251 231 265 181 342 181 c 0
 355 181 376 182 376 182 c 1
 376 232 l 1
 346 232 l 1xfa
211 706 m 1xd4
 211 859 l 1
 397 859 l 1
 397 706 l 1
 211 706 l 1xd4
EndSplineSet
Position2: "'cpsp' Capital Spacing in Latin lookup 0 subtable" dx=5 dy=0 dh=10 dv=0
EndChar
StartChar: gcommaaccent
Encoding: 291 291 321
Width: 562
Flags: MW
HStem: -220 154<248 302 248 372.5> -35 173<259 432> 157 146<267.5 279.5 252.5 356.5> 375 143<252.5 279.5> 379 131<506 553 506 553> 563 215<228 370 166 390>
VStem: 12 183<-142 -47.5> 12 541<-142 510> 17 210<325.5 352.5 325.5 404.5> 305 210<325.5 344 263 352.5> 347 203<-56 -43>
LayerCount: 2
Back
Fore
SplineSet
390 778 m 1xcd
 370 563 l 1
 166 563 l 1
 228 778 l 1
 390 778 l 1xcd
293 -220 m 0xce20
 127 -220 12 -203 12 -81 c 0
 12 -35 26 0 76 39 c 1
 54 54 40 83 40 114 c 0xce
 40 139 98 187 98 187 c 1
 60 205 17 244 17 338 c 0
 17 471 89 518 265 518 c 0xd4c0
 308 518 368 507 368 507 c 1
 553 510 l 1
 553 379 l 1
 506 379 l 1
 510 368 515 350 515 338 c 0
 515 188 440 157 273 157 c 0
 262 157 247 158 235 160 c 1xec40
 235 160 231 154 231 148 c 0
 231 140 257 138 362 138 c 0
 502 138 550 99 550 -22 c 0
 550 -150 452 -220 293 -220 c 0xce20
281 -35 m 0
 237 -35 204 -31 204 -31 c 1
 195 -36 195 -42 195 -53 c 0
 195 -63 222 -66 274 -66 c 0
 330 -66 347 -62 347 -50 c 0
 347 -36 331 -35 281 -35 c 0
266 303 m 0xf4c0
 293 303 305 312 305 339 c 0
 305 366 293 375 266 375 c 0
 239 375 227 366 227 339 c 0
 227 312 239 303 266 303 c 0xf4c0
EndSplineSet
EndChar
StartChar: Hcircumflex
Encoding: 292 292 56
Width: 655
Flags: MW
HStem: 0 21G<30 262 30 30 393 625 393 393> 234 189<262 393 262 393> 713 136<145 398 246 314 341 341 341 398 246 510>
VStem: 30 232<0 234 0 423 423 670> 393 232<0 234 234 234 423 670 0 670>
LayerCount: 2
Back
Fore
SplineSet
393 0 m 1
 393 234 l 1
 262 234 l 1
 262 0 l 1
 30 0 l 1
 30 670 l 1
 262 670 l 1
 262 423 l 1
 393 423 l 1
 393 670 l 1
 625 670 l 1
 625 0 l 1
 393 0 l 1
145 713 m 1
 246 849 l 1
 398 849 l 1
 510 713 l 1
 341 713 l 1
 326 775 l 1
 314 713 l 1
 145 713 l 1
EndSplineSet
Position2: "'cpsp' Capital Spacing in Latin lookup 0 subtable" dx=5 dy=0 dh=10 dv=0
EndChar
StartChar: Hbar
Encoding: 294 294 55
Width: 659
Flags: MW
HStem: 0 21G<32 264 32 32 395 627 395 395> 234 189<264 395 264 395> 473 132<4 32 4 32 264 395 627 655>
VStem: 32 232<0 234 423 473 605 670> 395 232<0 234 234 234 423 473 0 473 605 670 0 670>
LayerCount: 2
Back
Fore
SplineSet
4 473 m 1
 4 605 l 1
 32 605 l 1
 32 670 l 1
 264 670 l 1
 264 605 l 1
 395 605 l 1
 395 670 l 1
 627 670 l 1
 627 605 l 1
 655 605 l 1
 655 473 l 1
 627 473 l 1
 627 0 l 1
 395 0 l 1
 395 234 l 1
 264 234 l 1
 264 0 l 1
 32 0 l 1
 32 473 l 1
 4 473 l 1
264 423 m 1
 395 423 l 1
 395 473 l 1
 264 473 l 1
 264 423 l 1
EndSplineSet
Position2: "'cpsp' Capital Spacing in Latin lookup 0 subtable" dx=5 dy=0 dh=10 dv=0
EndChar
StartChar: Itilde
Encoding: 296 296 66
Width: 292
Flags: MW
HStem: 0 21G<30 30 30 262> 712 142<204 231 204 249> 746 140<59 89.5>
VStem: 30 232<0 670 0 670>
LayerCount: 2
Back
Fore
SplineSet
30 0 m 1xb0
 30 670 l 1
 262 670 l 1
 262 0 l 1
 30 0 l 1xb0
300 877 m 1xd0
 329 770 l 1
 329 770 276 712 222 712 c 0xd0
 170 712 106 746 73 746 c 0
 45 746 -7 721 -7 721 c 1
 -36 827 l 1
 -36 827 18 886 71 886 c 0xb0
 132 886 190 854 218 854 c 0
 244 854 300 877 300 877 c 1xd0
EndSplineSet
Position2: "'cpsp' Capital Spacing in Latin lookup 0 subtable" dx=5 dy=0 dh=10 dv=0
EndChar
StartChar: itilde
Encoding: 297 297 324
Width: 280
Flags: MW
HStem: 0 21G<28 28 28 252> 485 20G<28 252 252 252> 547 141<198 225 198 243> 591 140<53 83.5>
VStem: 28 224<0 505 0 505>
LayerCount: 2
Back
Fore
SplineSet
28 0 m 1xd8
 28 505 l 1
 252 505 l 1
 252 0 l 1
 28 0 l 1xd8
294 727 m 1xe8
 323 610 l 1
 323 610 270 547 216 547 c 0xe8
 164 547 100 591 67 591 c 0
 39 591 -13 551 -13 551 c 1
 -42 667 l 1
 -42 667 12 731 65 731 c 0xd8
 126 731 184 688 212 688 c 0
 238 688 294 727 294 727 c 1xe8
EndSplineSet
EndChar
StartChar: Imacron
Encoding: 298 298 64
Width: 292
Flags: MW
HStem: 0 21G<30 30 30 262> 713 136<-14 307 -14 307>
VStem: 30 232<0 670 0 670>
LayerCount: 2
Back
Fore
SplineSet
30 0 m 1
 30 670 l 1
 262 670 l 1
 262 0 l 1
 30 0 l 1
-14 713 m 1
 -14 849 l 1
 307 849 l 1
 307 713 l 1
 -14 713 l 1
EndSplineSet
Position2: "'cpsp' Capital Spacing in Latin lookup 0 subtable" dx=5 dy=0 dh=10 dv=0
EndChar
StartChar: imacron
Encoding: 299 299 325
Width: 280
Flags: MW
HStem: 0 21G<28 28 28 252> 485 20G<28 252 252 252> 563 144<-27 300 -27 300>
VStem: 28 224<0 505 0 505>
LayerCount: 2
Back
Fore
SplineSet
28 0 m 1
 28 505 l 1
 252 505 l 1
 252 0 l 1
 28 0 l 1
-27 563 m 1
 -27 707 l 1
 300 707 l 1
 300 563 l 1
 -27 563 l 1
EndSplineSet
EndChar
StartChar: Ibreve
Encoding: 300 300 59
Width: 292
Flags: MW
HStem: 0 21G<30 30 30 262> 712 115<131 161 131 208.5>
VStem: 30 232<0 670 0 670>
LayerCount: 2
Back
Fore
SplineSet
30 0 m 1
 30 670 l 1
 262 670 l 1
 262 0 l 1
 30 0 l 1
190 872 m 1
 306 862 l 1
 306 787 271 712 146 712 c 0
 21 712 -14 787 -14 862 c 1
 102 872 l 1
 105 846 116 827 146 827 c 0
 176 827 187 846 190 872 c 1
EndSplineSet
Position2: "'cpsp' Capital Spacing in Latin lookup 0 subtable" dx=5 dy=0 dh=10 dv=0
EndChar
StartChar: ibreve
Encoding: 301 301 326
Width: 280
Flags: MW
HStem: 0 21G<28 28 28 252> 485 20G<28 252 252 252> 548 125<122 152 122 202>
VStem: 28 224<0 505 0 505>
LayerCount: 2
Back
Fore
SplineSet
28 0 m 1
 28 505 l 1
 252 505 l 1
 252 0 l 1
 28 0 l 1
181 718 m 1
 297 708 l 1
 297 628 267 548 137 548 c 0
 7 548 -23 628 -23 708 c 1
 93 718 l 1
 96 692 107 673 137 673 c 0
 167 673 178 692 181 718 c 1
EndSplineSet
EndChar
StartChar: Iogonek
Encoding: 302 302 65
Width: 292
Flags: MW
HStem: -221 115<82 213.5> -206 21G<262 262> 0 21G<30 30 30 31 238 238 238 262>
VStem: 30 232<0 670>
LayerCount: 2
Back
Fore
SplineSet
30 0 m 1x70
 30 670 l 1
 262 670 l 1
 262 0 l 1
 238 0 l 1
 217 -20 181 -59 181 -84 c 0
 181 -97 187 -106 203 -106 c 0
 224 -106 249 -102 249 -102 c 1xb0
 262 -206 l 1x70
 262 -206 213 -221 126 -221 c 0xb0
 38 -221 -29 -195 -29 -105 c 0
 -29 -55 1 -21 31 0 c 1
 30 0 l 1x70
EndSplineSet
Position2: "'cpsp' Capital Spacing in Latin lookup 0 subtable" dx=5 dy=0 dh=10 dv=0
EndChar
StartChar: iogonek
Encoding: 303 303 327
Width: 280
Flags: MW
HStem: -220 115<71 202.5> 0 21G<252 252> 485 20G<28 252 252 252> 537 153<27 253 27 253>
VStem: 28 224<6 505 0 505>
LayerCount: 2
Back
Fore
SplineSet
238 -101 m 1
 251 -205 l 1
 251 -205 202 -220 115 -220 c 0
 27 -220 -40 -194 -40 -104 c 0
 -40 -49 -4 -14 28 6 c 1
 28 505 l 1
 252 505 l 1
 252 0 l 1
 252 0 170 -48 170 -83 c 0
 170 -96 176 -105 192 -105 c 0
 213 -105 238 -101 238 -101 c 1
27 537 m 1
 27 690 l 1
 253 690 l 1
 253 537 l 1
 27 537 l 1
EndSplineSet
EndChar
StartChar: Idotaccent
Encoding: 304 304 62
Width: 292
Flags: MW
HStem: 0 21G<30 30 30 262> 706 153<53 239 53 239>
VStem: 30 232<0 670 0 670> 53 186<706 859 706 859>
LayerCount: 2
Back
Fore
SplineSet
30 0 m 1xe0
 30 670 l 1
 262 670 l 1
 262 0 l 1
 30 0 l 1xe0
53 706 m 1xd0
 53 859 l 1
 239 859 l 1
 239 706 l 1
 53 706 l 1xd0
EndSplineSet
Position2: "'cpsp' Capital Spacing in Latin lookup 0 subtable" dx=5 dy=0 dh=10 dv=0
EndChar
StartChar: dotlessi
Encoding: 305 305 183
Width: 280
Flags: MW
HStem: 0 21G<28 28 28 252> 485 20G<28 252 252 252>
VStem: 28 224<0 505 0 505>
LayerCount: 2
Back
Fore
SplineSet
28 0 m 1
 28 505 l 1
 252 505 l 1
 252 0 l 1
 28 0 l 1
EndSplineSet
EndChar
StartChar: Jcircumflex
Encoding: 308 308 68
Width: 321
Flags: MW
HStem: -13 191<15 36.5 15 101.5> 713 136<2 255 103 171 198 198 198 255 103 367>
VStem: 62 232<322 670>
LayerCount: 2
Back
Fore
SplineSet
294 670 m 1
 294 177 l 2
 294 -1 188 -13 15 -13 c 1
 15 178 l 1
 58 178 62 181 62 322 c 2
 62 670 l 1
 294 670 l 1
2 713 m 1
 103 849 l 1
 255 849 l 1
 367 713 l 1
 198 713 l 1
 183 775 l 1
 171 713 l 1
 2 713 l 1
EndSplineSet
Position2: "'cpsp' Capital Spacing in Latin lookup 0 subtable" dx=5 dy=0 dh=10 dv=0
EndChar
StartChar: jcircumflex
Encoding: 309 309 328
Width: 280
Flags: MW
HStem: -220 21G<11 11> 485 20G<28 252 252 252> 557 166<-35 214 56 127 154 154 154 214 56 316>
VStem: 28 224<66 73 73 505>
LayerCount: 2
Back
Fore
SplineSet
28 66 m 2
 28 505 l 1
 252 505 l 1
 252 73 l 2
 252 -128 209 -158 11 -220 c 1
 -61 -50 l 1
 20 -12 28 -6 28 66 c 2
-35 557 m 1
 56 723 l 1
 214 723 l 1
 316 557 l 1
 154 557 l 1
 139 629 l 1
 127 557 l 1
 -35 557 l 1
EndSplineSet
EndChar
StartChar: Kcommaaccent
Encoding: 310 310 70
Width: 609
Flags: MW
HStem: -260 215<174 398 194 336> 0 21G<30 262 30 30 384 617 384 384> 223 210<262 302 262 303 262 302>
VStem: 30 232<0 223 0 433 433 670>
LayerCount: 2
Back
Fore
SplineSet
174 -260 m 1
 194 -45 l 1
 398 -45 l 1
 336 -260 l 1
 174 -260 l 1
384 0 m 1
 303 223 l 1
 262 223 l 1
 262 0 l 1
 30 0 l 1
 30 670 l 1
 262 670 l 1
 262 433 l 1
 302 433 l 1
 377 670 l 1
 607 670 l 1
 500 346 l 1
 617 0 l 1
 384 0 l 1
EndSplineSet
Position2: "'cpsp' Capital Spacing in Latin lookup 0 subtable" dx=5 dy=0 dh=10 dv=0
EndChar
StartChar: kcommaaccent
Encoding: 311 311 329
Width: 553
Flags: MW
HStem: -260 215<178 402 198 340> 0 21G<28 252 28 28 329 329 329 553> 148 195<252 281 252 282 252 281> 485 20G<326 547 547 547> 670 20G<28 252 252 252>
VStem: 28 224<0 148 343 690>
LayerCount: 2
Back
Fore
SplineSet
178 -260 m 1
 198 -45 l 1
 402 -45 l 1
 340 -260 l 1
 178 -260 l 1
252 0 m 1
 28 0 l 1
 28 690 l 1
 252 690 l 1
 252 343 l 1
 281 343 l 1
 326 505 l 1
 547 505 l 1
 475 261 l 1
 553 0 l 1
 329 0 l 1
 282 148 l 1
 252 148 l 1
 252 0 l 1
EndSplineSet
EndChar
StartChar: Lacute
Encoding: 313 313 72
Width: 489
Flags: MW
HStem: 0 189<262 480 262 480> 713 136<83 216 40 325>
VStem: 30 232<189 670 189 670 189 670>
LayerCount: 2
Back
Fore
SplineSet
480 0 m 1
 30 0 l 1
 30 670 l 1
 262 670 l 1
 262 189 l 1
 480 189 l 1
 480 0 l 1
83 849 m 1
 325 849 l 1
 216 713 l 1
 40 713 l 1
 83 849 l 1
EndSplineSet
Position2: "'cpsp' Capital Spacing in Latin lookup 0 subtable" dx=5 dy=0 dh=10 dv=0
EndChar
StartChar: lacute
Encoding: 314 314 330
Width: 280
Flags: MW
HStem: 0 21G<28 28 28 252> 670 20G<28 252 252 252> 741 166<71 199 28 308>
VStem: 28 224<0 690 0 690 0 741>
LayerCount: 2
Back
Fore
SplineSet
28 0 m 1
 28 690 l 1
 252 690 l 1
 252 0 l 1
 28 0 l 1
71 907 m 1
 308 907 l 1
 199 741 l 1
 28 741 l 1
 71 907 l 1
EndSplineSet
EndChar
StartChar: Lcommaaccent
Encoding: 315 315 74
Width: 489
Flags: MW
HStem: -260 215<135 359 155 297> 0 189<262 480 262 480>
VStem: 30 232<189 670 189 670 189 670>
LayerCount: 2
Back
Fore
SplineSet
135 -260 m 1
 155 -45 l 1
 359 -45 l 1
 297 -260 l 1
 135 -260 l 1
480 0 m 1
 30 0 l 1
 30 670 l 1
 262 670 l 1
 262 189 l 1
 480 189 l 1
 480 0 l 1
EndSplineSet
Position2: "'cpsp' Capital Spacing in Latin lookup 0 subtable" dx=5 dy=0 dh=10 dv=0
EndChar
StartChar: lcommaaccent
Encoding: 316 316 332
Width: 280
Flags: MW
HStem: -260 215<28 252 48 190> 0 21G<28 28 28 252> 670 20G<28 252 252 252>
VStem: 28 224<-260 -45 0 690>
LayerCount: 2
Back
Fore
SplineSet
28 -260 m 1
 48 -45 l 1
 252 -45 l 1
 190 -260 l 1
 28 -260 l 1
28 0 m 1
 28 690 l 1
 252 690 l 1
 252 0 l 1
 28 0 l 1
EndSplineSet
EndChar
StartChar: Lcaron
Encoding: 317 317 73
Width: 512
Flags: MW
HStem: 0 189<262 480 262 480> 488 182<30 318 30 480> 488 215<318 542 338 480>
VStem: 30 232<189 670 189 670 189 670>
LayerCount: 2
Back
Fore
SplineSet
318 488 m 1xb0
 338 703 l 1
 542 703 l 1
 480 488 l 1
 318 488 l 1xb0
480 0 m 1
 30 0 l 1
 30 670 l 1
 262 670 l 1xd0
 262 189 l 1
 480 189 l 1
 480 0 l 1
EndSplineSet
Position2: "'cpsp' Capital Spacing in Latin lookup 0 subtable" dx=5 dy=0 dh=10 dv=0
EndChar
StartChar: lcaron
Encoding: 318 318 331
Width: 459
Flags: MW
HStem: 0 21G<28 28 28 252> 454 215<292 516 312 454> 454 236<28 292 28 454>
VStem: 28 224<0 690 0 690>
LayerCount: 2
Back
Fore
SplineSet
292 454 m 1xb0
 312 669 l 1
 516 669 l 1xd0
 454 454 l 1
 292 454 l 1xb0
28 0 m 1
 28 690 l 1
 252 690 l 1xb0
 252 0 l 1
 28 0 l 1
EndSplineSet
EndChar
StartChar: Lslash
Encoding: 321 321 75
Width: 493
Flags: MW
HStem: 0 189<266 484 266 484> 486 20G<340 340>
VStem: 34 232<0 282 166 282 469 670>
LayerCount: 2
Back
Fore
SplineSet
3 151 m 1
 3 338 l 1
 34 353 l 1
 34 670 l 1
 266 670 l 1
 266 469 l 1
 340 506 l 1
 340 319 l 1
 266 282 l 1
 266 189 l 1
 484 189 l 1
 484 0 l 1
 34 0 l 1
 34 166 l 1
 3 151 l 1
EndSplineSet
Position2: "'cpsp' Capital Spacing in Latin lookup 0 subtable" dx=5 dy=0 dh=10 dv=0
EndChar
StartChar: lslash
Encoding: 322 322 189
Width: 308
Flags: MW
HStem: 0 21G<41 265 41 41> 670 20G<41 265 265 265>
VStem: 41 224<0 149 149 149 448 690>
LayerCount: 2
Back
Fore
SplineSet
4 131 m 1
 4 318 l 1
 41 336 l 1
 41 690 l 1
 265 690 l 1
 265 448 l 1
 304 468 l 1
 304 281 l 1
 265 261 l 1
 265 0 l 1
 41 0 l 1
 41 149 l 1
 4 131 l 1
EndSplineSet
EndChar
StartChar: Nacute
Encoding: 323 323 78
Width: 688
Flags: MW
HStem: 0 21G<30 30 30 262 429 429 429 658> 713 136<255 388 212 497>
VStem: 30 232<0 273 0 670> 426 232<416 670 0 670>
LayerCount: 2
Back
Fore
SplineSet
30 0 m 1
 30 670 l 1
 258 670 l 1
 412 416 l 1
 426 416 l 1
 426 670 l 1
 658 670 l 1
 658 0 l 1
 429 0 l 1
 277 273 l 1
 262 273 l 1
 262 0 l 1
 30 0 l 1
255 849 m 1
 497 849 l 1
 388 713 l 1
 212 713 l 1
 255 849 l 1
EndSplineSet
Position2: "'cpsp' Capital Spacing in Latin lookup 0 subtable" dx=5 dy=0 dh=10 dv=0
EndChar
StartChar: nacute
Encoding: 324 324 333
Width: 578
Flags: MW
HStem: 0 21G<28 252 28 28 331 331 331 555> 479 26<28 251> 498 20G<337.5 432.5> 557 166<213 341 170 450>
VStem: 28 224<0 318> 331 224<0 238 238 253 0 268.5>
LayerCount: 2
Back
Fore
SplineSet
252 0 m 1xdc
 28 0 l 1
 28 505 l 1
 251 505 l 1
 251 479 l 1xdc
 251 479 314 518 361 518 c 0xbc
 504 518 555 451 555 253 c 2
 555 0 l 1
 331 0 l 1
 331 238 l 2
 331 299 319 325 295 325 c 0
 276 325 252 318 252 318 c 1
 252 0 l 1xdc
213 723 m 1
 450 723 l 1
 341 557 l 1
 170 557 l 1
 213 723 l 1
EndSplineSet
EndChar
StartChar: Ncommaaccent
Encoding: 325 325 80
Width: 688
Flags: MW
HStem: -260 215<242 466 262 404> 0 21G<30 30 30 262 429 429 429 658>
VStem: 30 232<0 273> 426 232<416 670 0 670>
LayerCount: 2
Back
Fore
SplineSet
242 -260 m 1
 262 -45 l 1
 466 -45 l 1
 404 -260 l 1
 242 -260 l 1
30 0 m 1
 30 670 l 1
 258 670 l 1
 412 416 l 1
 426 416 l 1
 426 670 l 1
 658 670 l 1
 658 0 l 1
 429 0 l 1
 277 273 l 1
 262 273 l 1
 262 0 l 1
 30 0 l 1
EndSplineSet
Position2: "'cpsp' Capital Spacing in Latin lookup 0 subtable" dx=5 dy=0 dh=10 dv=0
EndChar
StartChar: ncommaaccent
Encoding: 326 326 335
Width: 578
Flags: MW
HStem: -260 215<179 403 199 341> 0 21G<28 252 28 28 331 331 331 555> 479 26<28 251> 498 20G<337.5 432.5>
VStem: 28 224<0 318> 331 224<0 238 238 253 0 268.5>
LayerCount: 2
Back
Fore
SplineSet
179 -260 m 1xec
 199 -45 l 1
 403 -45 l 1
 341 -260 l 1
 179 -260 l 1xec
252 0 m 1
 28 0 l 1
 28 505 l 1
 251 505 l 1
 251 479 l 1xec
 251 479 314 518 361 518 c 0xdc
 504 518 555 451 555 253 c 2
 555 0 l 1
 331 0 l 1
 331 238 l 2
 331 299 319 325 295 325 c 0
 276 325 252 318 252 318 c 1
 252 0 l 1
EndSplineSet
EndChar
StartChar: Ncaron
Encoding: 327 327 79
Width: 688
Flags: MW
HStem: 0 21G<30 30 30 262 429 429 429 658> 712 136<263 263 263 331 358 415>
VStem: 30 232<0 273 0 670> 426 232<416 670 0 670>
LayerCount: 2
Back
Fore
SplineSet
30 0 m 1
 30 670 l 1
 258 670 l 1
 412 416 l 1
 426 416 l 1
 426 670 l 1
 658 670 l 1
 658 0 l 1
 429 0 l 1
 277 273 l 1
 262 273 l 1
 262 0 l 1
 30 0 l 1
263 712 m 1
 162 848 l 1
 331 848 l 1
 345 786 l 1
 358 848 l 1
 527 848 l 1
 415 712 l 1
 263 712 l 1
EndSplineSet
Position2: "'cpsp' Capital Spacing in Latin lookup 0 subtable" dx=5 dy=0 dh=10 dv=0
EndChar
StartChar: ncaron
Encoding: 328 328 334
Width: 578
Flags: MW
HStem: 0 21G<28 252 28 28 331 331 331 555> 479 26<28 251> 498 20G<337.5 432.5> 557 166<197 197 197 268 295 355>
VStem: 28 224<0 318> 331 224<0 238 238 253 0 268.5>
LayerCount: 2
Back
Fore
SplineSet
252 0 m 1xdc
 28 0 l 1
 28 505 l 1
 251 505 l 1
 251 479 l 1xdc
 251 479 314 518 361 518 c 0xbc
 504 518 555 451 555 253 c 2
 555 0 l 1
 331 0 l 1
 331 238 l 2
 331 299 319 325 295 325 c 0
 276 325 252 318 252 318 c 1
 252 0 l 1xdc
197 557 m 1
 106 723 l 1
 268 723 l 1
 282 651 l 1
 295 723 l 1
 457 723 l 1
 355 557 l 1
 197 557 l 1
EndSplineSet
EndChar
StartChar: eng
Encoding: 331 331 449
Width: 578
Flags: MW
HStem: -220 21G<314 314> 0 21G<28 252 28 28> 479 26<28 251> 498 20G<337.5 432.5>
VStem: 28 224<0 318 0 505 0 505> 331 224<66 73 73 80 80 238 238 253 -27.5 268.5>
LayerCount: 2
Back
Fore
SplineSet
331 66 m 2xec
 331 80 l 1
 331 238 l 2
 331 299 319 325 295 325 c 0
 276 325 252 318 252 318 c 1
 252 0 l 1
 28 0 l 1
 28 505 l 1
 251 505 l 1
 251 479 l 1xec
 251 479 314 518 361 518 c 0xdc
 504 518 555 451 555 253 c 2
 555 73 l 2
 555 -128 512 -158 314 -220 c 1
 242 -50 l 1
 323 -12 331 -6 331 66 c 2xec
EndSplineSet
EndChar
StartChar: Omacron
Encoding: 332 332 89
Width: 670
Flags: MW
HStem: -13 188<298 373 298 446.5> 495 188<298 373.5> 713 136<175 496 175 496>
VStem: 16 234<283.5 386.5 283.5 457> 175 321<713 849 713 849> 420 234<284 386.5>
LayerCount: 2
Back
Fore
SplineSet
335 175 m 0xb4
 411 175 420 233 420 335 c 0
 420 438 412 495 335 495 c 0xf4
 261 495 250 438 250 335 c 0
 250 232 261 175 335 175 c 0xb4
335 -13 m 0
 115 -13 16 91 16 335 c 0
 16 579 112 683 335 683 c 0xf4
 558 683 654 579 654 335 c 0
 654 91 558 -13 335 -13 c 0
175 713 m 1xa8
 175 849 l 1
 496 849 l 1
 496 713 l 1
 175 713 l 1xa8
EndSplineSet
Position2: "'cpsp' Capital Spacing in Latin lookup 0 subtable" dx=5 dy=0 dh=10 dv=0
EndChar
StartChar: omacron
Encoding: 333 333 336
Width: 564
Flags: MW
HStem: -13 181<266.5 297.5 266.5 368.5> 337 181<266.5 297.5> 563 144<119 446 119 446>
VStem: 15 226<220.5 285 220.5 349> 119 327<563 707 563 707> 323 226<220.5 285.5>
LayerCount: 2
Back
Fore
SplineSet
282 518 m 0xf4
 455 518 549 445 549 253 c 0
 549 58 455 -13 282 -13 c 0
 109 -13 15 58 15 253 c 0
 15 445 109 518 282 518 c 0xf4
282 168 m 0
 313 168 323 188 323 253 c 0
 323 318 313 337 282 337 c 0
 251 337 241 317 241 253 c 0
 241 188 251 168 282 168 c 0
119 563 m 1xe8
 119 707 l 1
 446 707 l 1
 446 563 l 1
 119 563 l 1xe8
EndSplineSet
EndChar
StartChar: Obreve
Encoding: 334 334 84
Width: 670
Flags: MW
HStem: -13 188<298 373 298 446.5> 495 188<298 373.5> 712 115<320 350 320 397.5>
VStem: 16 234<283.5 386.5 283.5 457> 420 234<284 386.5>
LayerCount: 2
Back
Fore
SplineSet
335 175 m 0
 411 175 420 233 420 335 c 0
 420 438 412 495 335 495 c 0
 261 495 250 438 250 335 c 0
 250 232 261 175 335 175 c 0
335 -13 m 0
 115 -13 16 91 16 335 c 0
 16 579 112 683 335 683 c 0
 558 683 654 579 654 335 c 0
 654 91 558 -13 335 -13 c 0
379 872 m 1xf8
 495 862 l 1
 495 787 460 712 335 712 c 0
 210 712 175 787 175 862 c 1
 291 872 l 1
 294 846 305 827 335 827 c 0
 365 827 376 846 379 872 c 1xf8
EndSplineSet
Position2: "'cpsp' Capital Spacing in Latin lookup 0 subtable" dx=5 dy=0 dh=10 dv=0
EndChar
StartChar: Ohungarumlaut
Encoding: 336 336 88
Width: 670
Flags: MW
HStem: -13 188<298 373 298 446.5> 495 188<298 373.5> 713 136<181 279 148 368 363 363 363 368 396 494>
VStem: 16 234<283.5 386.5 283.5 457> 420 234<284 386.5>
LayerCount: 2
Back
Fore
SplineSet
335 175 m 0
 411 175 420 233 420 335 c 0
 420 438 412 495 335 495 c 0xf8
 261 495 250 438 250 335 c 0
 250 232 261 175 335 175 c 0
335 -13 m 0
 115 -13 16 91 16 335 c 0
 16 579 112 683 335 683 c 0xf8
 558 683 654 579 654 335 c 0
 654 91 558 -13 335 -13 c 0
181 849 m 1
 368 849 l 1
 279 713 l 1
 148 713 l 1
 181 849 l 1
396 849 m 1
 583 849 l 1
 494 713 l 1
 363 713 l 1
 396 849 l 1
EndSplineSet
Position2: "'cpsp' Capital Spacing in Latin lookup 0 subtable" dx=5 dy=0 dh=10 dv=0
EndChar
StartChar: ohungarumlaut
Encoding: 337 337 338
Width: 564
Flags: MW
HStem: -13 181<266.5 297.5 266.5 368.5> 337 181<266.5 297.5> 559 166<120 223 87 312 307 307 307 312 340 443>
VStem: 15 226<220.5 285 220.5 349> 323 226<220.5 285.5>
LayerCount: 2
Back
Fore
SplineSet
282 518 m 0
 455 518 549 445 549 253 c 0
 549 58 455 -13 282 -13 c 0
 109 -13 15 58 15 253 c 0
 15 445 109 518 282 518 c 0
282 168 m 0
 313 168 323 188 323 253 c 0
 323 318 313 337 282 337 c 0
 251 337 241 317 241 253 c 0
 241 188 251 168 282 168 c 0
120 725 m 1
 312 725 l 1
 223 559 l 1
 87 559 l 1
 120 725 l 1
340 725 m 1
 532 725 l 1
 443 559 l 1
 307 559 l 1
 340 725 l 1
EndSplineSet
EndChar
StartChar: OE
Encoding: 338 338 93
Width: 886
Flags: MW
HStem: -13 188<184 398> 0 185<630 869 630 869 484 869> 246 181<630 809 630 809> 485 185<630 869 630 630>
VStem: 18 228<282 401 282 465.5> 398 232<185 246 427 485>
LayerCount: 2
Back
Fore
SplineSet
301 683 m 0x7c
 346 683 484 670 484 670 c 1
 869 670 l 1
 869 485 l 1
 630 485 l 1
 630 427 l 1
 809 427 l 1
 809 246 l 1
 630 246 l 1
 630 185 l 1
 869 185 l 1
 869 0 l 1
 484 0 l 1x7c
 484 0 370 -13 291 -13 c 0xbc
 77 -13 18 94 18 340 c 0
 18 591 83 683 301 683 c 0x7c
357 175 m 2xbc
 398 175 l 1
 398 493 l 1
 384 494 371 495 357 495 c 0
 260 495 246 462 246 340 c 0
 246 224 249 175 357 175 c 2xbc
EndSplineSet
Position2: "'cpsp' Capital Spacing in Latin lookup 0 subtable" dx=5 dy=0 dh=10 dv=0
EndChar
StartChar: oe
Encoding: 339 339 225
Width: 860
Flags: MW
HStem: -13 165<579 641.5> -13 181<266.5 297.5 266.5 318> 187 122<547 624 546 836 547 547> 337 181<266.5 297.5> 362 156<570 598.5>
VStem: 15 226<220.5 285 220.5 349> 624 222<309 329>
LayerCount: 2
Back
Fore
SplineSet
596 152 m 0xae
 688 152 831 161 831 161 c 1
 836 16 l 1
 836 16 703 -13 580 -13 c 0
 506 -13 461 2 434 31 c 1
 402 1 354 -13 282 -13 c 0
 109 -13 15 58 15 253 c 0
 15 445 109 518 282 518 c 0
 361 518 411 502 442 470 c 1
 470 501 515 518 585 518 c 0
 758 518 846 445 846 286 c 1
 836 187 l 1
 547 187 l 1
 548 162 562 152 596 152 c 0xae
282 168 m 0x76
 313 168 323 188 323 253 c 0
 323 318 313 337 282 337 c 0
 251 337 241 317 241 253 c 0
 241 188 251 168 282 168 c 0x76
546 309 m 1xae
 624 309 l 1
 624 349 612 362 585 362 c 0
 555 362 547 346 546 309 c 1xae
EndSplineSet
EndChar
StartChar: Racute
Encoding: 340 340 97
Width: 617
Flags: MW
HStem: 0 21G<30 262 30 30 357 357 357 593> 173 183<262 318 262 262 318 319> 487 183<261 312 261 261> 713 136<226 359 183 468>
VStem: 30 232<0 173 0 670> 367 234<402 444>
LayerCount: 2
Back
Fore
SplineSet
319 173 m 1
 318 173 l 1
 262 173 l 1
 262 0 l 1
 30 0 l 1
 30 670 l 1
 312 670 l 2
 507 670 601 624 601 423 c 0
 601 329 575 267 527 228 c 1
 593 0 l 1
 357 0 l 1
 319 173 l 1
226 849 m 1
 468 849 l 1
 359 713 l 1
 183 713 l 1
 226 849 l 1
367 423 m 0
 367 465 350 487 312 487 c 2
 261 487 l 1
 261 356 l 1
 318 356 l 2
 351 356 367 381 367 423 c 0
EndSplineSet
Position2: "'cpsp' Capital Spacing in Latin lookup 0 subtable" dx=5 dy=0 dh=10 dv=0
EndChar
StartChar: racute
Encoding: 341 341 339
Width: 368
Flags: MW
HStem: 0 21G<28 252 28 28> 458 47<28 252> 498 20G<336.5 358> 557 166<100 228 57 337>
VStem: 28 224<0 274 0 458 458 505> 252 106<0 518 458 458 458 505>
LayerCount: 2
Back
Fore
SplineSet
252 274 m 1xd8
 252 0 l 1
 28 0 l 1
 28 505 l 1
 252 505 l 1
 252 458 l 1xd8
 252 458 315 518 358 518 c 1
 358 310 l 1xb4
 320 310 252 274 252 274 c 1xd8
100 723 m 1
 337 723 l 1
 228 557 l 1
 57 557 l 1
 100 723 l 1
EndSplineSet
EndChar
StartChar: rcommaaccent
Encoding: 343 343 340
Width: 368
Flags: MW
HStem: -260 215<28 252 48 190> 0 21G<28 252 28 28> 458 47<28 252> 498 20G<336.5 358>
VStem: 28 224<-260 -45 0 274 458 505> 252 106<0 518 458 458 458 505>
LayerCount: 2
Back
Fore
SplineSet
28 -260 m 1xe8
 48 -45 l 1
 252 -45 l 1
 190 -260 l 1
 28 -260 l 1xe8
252 274 m 1
 252 0 l 1
 28 0 l 1
 28 505 l 1
 252 505 l 1
 252 458 l 1xe8
 252 458 315 518 358 518 c 1
 358 310 l 1xd4
 320 310 252 274 252 274 c 1
EndSplineSet
EndChar
StartChar: Rcaron
Encoding: 344 344 98
Width: 617
Flags: MW
HStem: 0 21G<30 262 30 30 357 357 357 593> 173 183<262 318 262 262 318 319> 487 183<261 312 261 261> 712 136<234 234 234 302 329 386>
VStem: 30 232<0 173 0 670> 367 234<402 444>
LayerCount: 2
Back
Fore
SplineSet
319 173 m 1
 318 173 l 1
 262 173 l 1
 262 0 l 1
 30 0 l 1
 30 670 l 1
 312 670 l 2
 507 670 601 624 601 423 c 0
 601 329 575 267 527 228 c 1
 593 0 l 1
 357 0 l 1
 319 173 l 1
234 712 m 1
 133 848 l 1
 302 848 l 1
 316 786 l 1
 329 848 l 1
 498 848 l 1
 386 712 l 1
 234 712 l 1
367 423 m 0
 367 465 350 487 312 487 c 2
 261 487 l 1
 261 356 l 1
 318 356 l 2
 351 356 367 381 367 423 c 0
EndSplineSet
Position2: "'cpsp' Capital Spacing in Latin lookup 0 subtable" dx=5 dy=0 dh=10 dv=0
EndChar
StartChar: rcaron
Encoding: 345 345 341
Width: 368
Flags: MW
HStem: 0 21G<28 252 28 28> 458 47<28 252> 498 20G<336.5 358> 557 166<96 96 96 167 194 254>
VStem: 28 224<0 274 0 458 458 505> 252 106<0 518 458 458 458 505>
LayerCount: 2
Back
Fore
SplineSet
252 274 m 1xd8
 252 0 l 1
 28 0 l 1
 28 505 l 1
 252 505 l 1
 252 458 l 1xd8
 252 458 315 518 358 518 c 1
 358 310 l 1xb4
 320 310 252 274 252 274 c 1xd8
96 557 m 1
 5 723 l 1
 167 723 l 1
 181 651 l 1
 194 723 l 1
 356 723 l 1
 254 557 l 1
 96 557 l 1
EndSplineSet
EndChar
StartChar: Sacute
Encoding: 346 346 101
Width: 578
Flags: MW
HStem: -14 191<233 302 233 388.5> 492 191<280.5 334.5 198 350> 713 136<204 337 161 446>
VStem: 16 234<467 481 467 543.5> 16 552<130.5 543.5> 334 234<192 207>
LayerCount: 2
Back
Fore
SplineSet
546 657 m 1x68
 540 477 l 1
 540 477 399 492 301 492 c 0
 260 492 250 488 250 474 c 0
 250 460 257 455 321 441 c 0
 512 398 568 373 568 216 c 0
 568 45 474 -14 303 -14 c 0
 160 -14 21 22 21 22 c 1
 31 199 l 1
 31 199 184 177 282 177 c 0
 322 177 334 184 334 200 c 0
 334 214 327 216 257 227 c 0
 69 256 16 308 16 448 c 0xf4
 16 639 115 683 281 683 c 0
 388 683 546 657 546 657 c 1x68
204 849 m 1x30
 446 849 l 1
 337 713 l 1
 161 713 l 1
 204 849 l 1x30
EndSplineSet
Position2: "'cpsp' Capital Spacing in Latin lookup 0 subtable" dx=5 dy=0 dh=10 dv=0
EndChar
StartChar: scircumflex
Encoding: 349 349 343
Width: 489
Flags: MW
HStem: -13 161<182.5 226 182.5 323> 349 169<263.5 304> 557 166<70 319 161 232 259 259 259 319 161 421>
VStem: 19 453<99 406.5>
LayerCount: 2
Back
Fore
SplineSet
465 492 m 1
 457 335 l 1
 457 335 333 349 275 349 c 0
 252 349 243 347 243 341 c 0
 243 336 251 334 308 328 c 0
 430 315 472 273 472 163 c 0
 472 35 396 -13 250 -13 c 0
 109 -13 22 14 22 14 c 1
 27 165 l 1
 27 165 151 148 214 148 c 0
 238 148 248 150 248 157 c 0
 248 162 235 164 175 172 c 0
 63 187 19 229 19 334 c 0
 19 479 113 518 243 518 c 0
 371 518 465 492 465 492 c 1
70 557 m 1
 161 723 l 1
 319 723 l 1
 421 557 l 1
 259 557 l 1
 244 629 l 1
 232 557 l 1
 70 557 l 1
EndSplineSet
EndChar
StartChar: Scedilla
Encoding: 350 350 103
Width: 578
Flags: MW
HStem: -231 88<221.5 347> -220 21G<178 178> -101 68<221 294> -14 191<294 302 233 303 294 294> -10 21G<221 221> 492 191<280.5 334.5 198 350>
VStem: 16 234<467 481 467 543.5> 221 73<-33 -14 -33 -10 -33 -10> 268 164<-128.5 -112.5> 334 234<192 207>
LayerCount: 2
Back
Fore
SplineSet
432 -123 m 0xac80
 432 -199 389 -231 305 -231 c 0x8d
 238 -231 178 -220 178 -220 c 1x4d
 182 -142 l 1
 182 -142 213 -143 230 -143 c 0
 260 -143 268 -136 268 -121 c 0xac80
 268 -104 259 -101 230 -101 c 2
 221 -101 l 1x6d
 221 -10 l 1x4d
 111 -1 21 22 21 22 c 1x4e
 31 199 l 1
 31 199 184 177 282 177 c 0
 322 177 334 184 334 200 c 0
 334 214 327 216 257 227 c 0
 69 256 16 308 16 448 c 0
 16 639 115 683 281 683 c 0
 388 683 546 657 546 657 c 1
 540 477 l 1
 540 477 399 492 301 492 c 0
 260 492 250 488 250 474 c 0x5640
 250 460 257 455 321 441 c 0
 512 398 568 373 568 216 c 0
 568 45 474 -14 303 -14 c 2
 294 -14 l 1x5540
 294 -33 l 1x6d
 394 -34 432 -48 432 -123 c 0xac80
EndSplineSet
Substitution2: "'locl' Localized Forms in Latin lookup 0 subtable" Scommaaccent
Position2: "'cpsp' Capital Spacing in Latin lookup 0 subtable" dx=5 dy=0 dh=10 dv=0
EndChar
StartChar: scedilla
Encoding: 351 351 344
Width: 489
Flags: MW
HStem: -231 88<180.5 306> -220 21G<137 137> -101 68<180 253> -13 161<182.5 253> 349 169<263.5 304>
VStem: 180 73<-33 -13 -33 -11 -33 -11> 227 164<-128.5 -112.5>
LayerCount: 2
Back
Fore
SplineSet
391 -123 m 0xba
 391 -199 348 -231 264 -231 c 0x9c
 197 -231 137 -220 137 -220 c 1x5c
 141 -142 l 1
 141 -142 172 -143 189 -143 c 0
 219 -143 227 -136 227 -121 c 0xba
 227 -104 218 -101 189 -101 c 2
 180 -101 l 1x7c
 180 -11 l 1
 80 -4 22 14 22 14 c 1
 27 165 l 1
 27 165 151 148 214 148 c 0
 238 148 248 150 248 157 c 0
 248 162 235 164 175 172 c 0
 63 187 19 229 19 334 c 0
 19 479 113 518 243 518 c 0
 371 518 465 492 465 492 c 1
 457 335 l 1
 457 335 333 349 275 349 c 0
 252 349 243 347 243 341 c 0
 243 336 251 334 308 328 c 0
 430 315 472 273 472 163 c 0
 472 36 397 -12 253 -13 c 1x5c
 253 -33 l 1x7c
 353 -34 391 -48 391 -123 c 0xba
EndSplineSet
Substitution2: "'locl' Localized Forms in Latin lookup 0 subtable" scommaaccent
EndChar
StartChar: Tcedilla
Encoding: 354 354 451
Width: 519
Flags: MW
HStem: -231 88<226.5 352> -220 21G<183 183> -101 68<226 299> 0 21G<147 226 147 147 299 299 299 379> 481 189<9 147 9 509 379 379 379 509>
VStem: 147 232<0 481 0 481> 226 73<-33 0 -33 0 -33 0> 273 164<-128.5 -112.5>
LayerCount: 2
Back
Fore
SplineSet
437 -123 m 0xb9
 437 -199 394 -231 310 -231 c 0x9c
 243 -231 183 -220 183 -220 c 1x5c
 187 -142 l 1
 187 -142 218 -143 235 -143 c 0
 265 -143 273 -136 273 -121 c 0xb9
 273 -104 264 -101 235 -101 c 2
 226 -101 l 1
 226 0 l 1
 147 0 l 1
 147 481 l 1
 9 481 l 1
 9 670 l 1
 509 670 l 1
 509 481 l 1
 379 481 l 1
 379 0 l 1x7c
 299 0 l 1
 299 -33 l 1x7a
 399 -34 437 -48 437 -123 c 0xb9
EndSplineSet
Substitution2: "'locl' Localized Forms in Latin lookup 0 subtable" Tcommaaccent
EndChar
StartChar: tcedilla
Encoding: 355 355 452
Width: 371
Flags: MW
HStem: -231 88<152.5 278> -220 21G<109 109> -101 68<152 225> -13 21G<225 225> -6 21G<152 152> 324 181<10 49 10 49 273 354>
VStem: 49 224<204 220 220 324 204 324 505 605> 152 73<-33 -13 -33 -6 -33 -6> 199 164<-128.5 -112.5>
LayerCount: 2
Back
Fore
SplineSet
363 -123 m 0xac80
 363 -199 320 -231 236 -231 c 0x8d
 169 -231 109 -220 109 -220 c 1x4d
 113 -142 l 1
 113 -142 144 -143 161 -143 c 0
 191 -143 199 -136 199 -121 c 0xac80
 199 -104 190 -101 161 -101 c 2
 152 -101 l 1x6d
 152 -6 l 1x4d
 81 9 49 56 49 168 c 2
 49 324 l 1
 10 324 l 1
 10 505 l 1
 49 505 l 1
 49 605 l 1
 273 605 l 1
 273 505 l 1
 354 505 l 1
 354 324 l 1
 273 324 l 1
 273 220 l 2
 273 188 278 178 306 178 c 0
 326 178 351 179 351 179 c 1
 354 5 l 1x56
 354 5 271 -12 225 -13 c 1x55
 225 -33 l 1x6d
 325 -34 363 -48 363 -123 c 0xac80
EndSplineSet
Substitution2: "'locl' Localized Forms in Latin lookup 0 subtable" tcommaaccent
EndChar
StartChar: Tcaron
Encoding: 356 356 108
Width: 519
Flags: MW
HStem: 0 21G<147 379 147 147> 481 189<9 509 9 147 379 379 379 509> 712 136<178 178 178 246 273 330>
VStem: 147 232<0 481 0 481>
LayerCount: 2
Back
Fore
SplineSet
9 481 m 1
 9 670 l 1
 509 670 l 1
 509 481 l 1
 379 481 l 1
 379 0 l 1
 147 0 l 1
 147 481 l 1
 9 481 l 1
178 712 m 1
 77 848 l 1
 246 848 l 1
 260 786 l 1
 273 848 l 1
 442 848 l 1
 330 712 l 1
 178 712 l 1
EndSplineSet
Position2: "'cpsp' Capital Spacing in Latin lookup 0 subtable" dx=5 dy=0 dh=10 dv=0
EndChar
StartChar: tcaron
Encoding: 357 357 346
Width: 371
Flags: MW
HStem: -13 21G<162 245> -13 191<162 316> 324 181<10 49 10 49 273 354> 539 66<49 311 49 465>
VStem: 49 224<204 220 220 324 204 324 505 605> 311 43
LayerCount: 2
Back
Fore
SplineSet
311 539 m 1xbc
 330 744 l 1
 524 744 l 1
 465 539 l 1
 311 539 l 1xbc
273 324 m 1
 273 220 l 2
 273 188 278 178 306 178 c 0
 326 178 351 179 351 179 c 1x7c
 354 5 l 1
 354 5 268 -13 222 -13 c 0
 102 -13 49 25 49 168 c 2
 49 324 l 1
 10 324 l 1
 10 505 l 1
 49 505 l 1
 49 605 l 1
 273 605 l 1
 273 505 l 1
 354 505 l 1
 354 324 l 1
 273 324 l 1
EndSplineSet
EndChar
StartChar: Tbar
Encoding: 358 358 107
Width: 519
Flags: MW
HStem: 0 21G<147 379 147 147> 190 137<100 147 100 147 379 426> 481 189<9 509 9 147 379 379 379 509>
VStem: 147 232<0 190 0 190 327 481>
LayerCount: 2
Back
Fore
SplineSet
9 481 m 1
 9 670 l 1
 509 670 l 1
 509 481 l 1
 379 481 l 1
 379 327 l 1
 426 327 l 1
 426 190 l 1
 379 190 l 1
 379 0 l 1
 147 0 l 1
 147 190 l 1
 100 190 l 1
 100 327 l 1
 147 327 l 1
 147 481 l 1
 9 481 l 1
EndSplineSet
Position2: "'cpsp' Capital Spacing in Latin lookup 0 subtable" dx=5 dy=0 dh=10 dv=0
EndChar
StartChar: tbar
Encoding: 359 359 348
Width: 370
Flags: MW
HStem: -13 21G<162 245> -13 181<49 245> 206 105<12 49 12 49 273 337> 345 160<10 49 10 49 273 354>
VStem: 49 224<191.5 206 191.5 206 191.5 206 311 345 191.5 345 505 605>
LayerCount: 2
Back
Fore
SplineSet
273 345 m 1xb8
 273 311 l 1
 337 311 l 1
 337 206 l 1
 273 206 l 1
 273 177 279 168 306 168 c 0
 326 168 351 169 351 169 c 1x78
 354 5 l 1
 354 5 268 -13 222 -13 c 0
 102 -13 49 25 49 168 c 2
 49 206 l 1
 12 206 l 1
 12 311 l 1
 49 311 l 1
 49 345 l 1
 10 345 l 1
 10 505 l 1
 49 505 l 1
 49 605 l 1
 273 605 l 1
 273 505 l 1
 354 505 l 1
 354 345 l 1
 273 345 l 1xb8
EndSplineSet
EndChar
StartChar: Utilde
Encoding: 360 360 120
Width: 641
Flags: MW
HStem: -13 191<298 344 298 418.5> 712 142<378 405 378 423> 746 140<233 263.5>
VStem: 26 232<240 670> 383 232<231 244 244 670>
LayerCount: 2
Back
Fore
SplineSet
258 670 m 1xb8
 258 231 l 2
 258 193 275 178 321 178 c 0
 367 178 383 193 383 231 c 2
 383 670 l 1
 615 670 l 1
 615 244 l 2
 615 49 516 -13 321 -13 c 0
 126 -13 26 45 26 240 c 2
 26 670 l 1
 258 670 l 1xb8
474 877 m 1xd8
 503 770 l 1
 503 770 450 712 396 712 c 0xd8
 344 712 280 746 247 746 c 0
 219 746 167 721 167 721 c 1
 138 827 l 1
 138 827 192 886 245 886 c 0xb8
 306 886 364 854 392 854 c 0
 418 854 474 877 474 877 c 1xd8
EndSplineSet
Position2: "'cpsp' Capital Spacing in Latin lookup 0 subtable" dx=5 dy=0 dh=10 dv=0
EndChar
StartChar: utilde
Encoding: 361 361 349
Width: 577
Flags: MW
HStem: -13 21G<140.5 238> 0 180<269 549 269 327> 485 20G<23 247 247 247 325 549 549 549> 547 141<349 376 349 394> 591 140<204 234.5>
VStem: 23 224<244 259 259 505> 325 224<186 505 0 505>
LayerCount: 2
Back
Fore
SplineSet
325 505 m 1xae
 549 505 l 1
 549 0 l 1
 327 0 l 1x76
 327 24 l 1
 327 24 263 -13 213 -13 c 0xae
 68 -13 23 71 23 244 c 2
 23 505 l 1
 247 505 l 1
 247 259 l 2
 247 198 257 180 281 180 c 0
 303 180 325 186 325 186 c 1x6e
 325 505 l 1xae
445 727 m 1
 474 610 l 1
 474 610 421 547 367 547 c 0xb6
 315 547 251 591 218 591 c 0
 190 591 138 551 138 551 c 1
 109 667 l 1
 109 667 163 731 216 731 c 0xae
 277 731 335 688 363 688 c 0
 389 688 445 727 445 727 c 1
EndSplineSet
EndChar
StartChar: Umacron
Encoding: 362 362 117
Width: 641
Flags: MW
HStem: -13 191<298 344 298 418.5> 713 136<160 481 160 481>
VStem: 160 98 383 98<231 849 670 849>
LayerCount: 2
Back
Fore
SplineSet
258 670 m 1
 258 231 l 2
 258 193 275 178 321 178 c 0
 367 178 383 193 383 231 c 2
 383 670 l 1
 615 670 l 1
 615 244 l 2
 615 49 516 -13 321 -13 c 0
 126 -13 26 45 26 240 c 2
 26 670 l 1
 258 670 l 1
160 713 m 1
 160 849 l 1
 481 849 l 1
 481 713 l 1
 160 713 l 1
EndSplineSet
Position2: "'cpsp' Capital Spacing in Latin lookup 0 subtable" dx=5 dy=0 dh=10 dv=0
EndChar
StartChar: umacron
Encoding: 363 363 350
Width: 577
Flags: MW
HStem: -13 21G<140.5 238> 0 180<269 549 269 327> 485 20G<23 247 247 247 325 549 549 549> 563 144<128 455 128 455>
VStem: 128 119 325 224<186 505 0 505>
LayerCount: 2
Back
Fore
SplineSet
325 505 m 1xbc
 549 505 l 1
 549 0 l 1
 327 0 l 1x7c
 327 24 l 1
 327 24 263 -13 213 -13 c 0xbc
 68 -13 23 71 23 244 c 2
 23 505 l 1
 247 505 l 1
 247 259 l 2
 247 198 257 180 281 180 c 0
 303 180 325 186 325 186 c 1x7c
 325 505 l 1xbc
128 563 m 1
 128 707 l 1
 455 707 l 1
 455 563 l 1
 128 563 l 1
EndSplineSet
EndChar
StartChar: Ubreve
Encoding: 364 364 112
Width: 641
Flags: MW
HStem: -13 191<298 344 298 418.5> 712 115<305 335 305 382.5>
VStem: 26 232<240 670> 383 232<231 244 244 670>
LayerCount: 2
Back
Fore
SplineSet
258 670 m 1
 258 231 l 2
 258 193 275 178 321 178 c 0
 367 178 383 193 383 231 c 2
 383 670 l 1
 615 670 l 1
 615 244 l 2
 615 49 516 -13 321 -13 c 0
 126 -13 26 45 26 240 c 2
 26 670 l 1
 258 670 l 1
364 872 m 1
 480 862 l 1
 480 787 445 712 320 712 c 0
 195 712 160 787 160 862 c 1
 276 872 l 1
 279 846 290 827 320 827 c 0
 350 827 361 846 364 872 c 1
EndSplineSet
Position2: "'cpsp' Capital Spacing in Latin lookup 0 subtable" dx=5 dy=0 dh=10 dv=0
EndChar
StartChar: ubreve
Encoding: 365 365 351
Width: 577
Flags: MW
HStem: -13 21G<140.5 238> 0 180<269 549 269 327> 485 20G<23 247 247 247 325 549 549 549> 548 125<271 301 271 351>
VStem: 23 224<244 259 259 505> 325 224<186 505 0 505>
LayerCount: 2
Back
Fore
SplineSet
325 505 m 1xbc
 549 505 l 1
 549 0 l 1
 327 0 l 1x7c
 327 24 l 1
 327 24 263 -13 213 -13 c 0xbc
 68 -13 23 71 23 244 c 2
 23 505 l 1
 247 505 l 1
 247 259 l 2
 247 198 257 180 281 180 c 0
 303 180 325 186 325 186 c 1x7c
 325 505 l 1xbc
330 718 m 1
 446 708 l 1
 446 628 416 548 286 548 c 0
 156 548 126 628 126 708 c 1
 242 718 l 1
 245 692 256 673 286 673 c 0
 316 673 327 692 330 718 c 1
EndSplineSet
EndChar
StartChar: Uring
Encoding: 366 366 119
Width: 641
Flags: MW
HStem: -13 191<298 344 298 418.5> 702 74<313 329 313 361.5> 819 75<313 329>
VStem: 26 232<240 670> 183 107<790.5 805 790.5 832.5> 351 106<790.5 805> 383 232<231 244 244 670>
LayerCount: 2
Back
Fore
SplineSet
258 670 m 1xf2
 258 231 l 2
 258 193 275 178 321 178 c 0
 367 178 383 193 383 231 c 2
 383 670 l 1
 615 670 l 1
 615 244 l 2
 615 49 516 -13 321 -13 c 0
 126 -13 26 45 26 240 c 2
 26 670 l 1
 258 670 l 1xf2
183 798 m 0
 183 867 241 894 320 894 c 0
 398 894 457 867 457 798 c 0
 457 734 403 702 320 702 c 0
 241 702 183 729 183 798 c 0
290 798 m 0xec
 290 783 305 776 321 776 c 0
 337 776 351 783 351 798 c 0
 351 812 337 819 321 819 c 0
 305 819 290 812 290 798 c 0xec
EndSplineSet
Position2: "'cpsp' Capital Spacing in Latin lookup 0 subtable" dx=5 dy=0 dh=10 dv=0
EndChar
StartChar: uring
Encoding: 367 367 352
Width: 577
Flags: MW
HStem: -13 21G<140.5 238> 0 180<269 549 269 327> 485 20G<23 247 247 247 325 549 549 549> 543 77<284 300 284 332.5> 663 78<284 300>
VStem: 23 224<244 259 259 505> 157 104<634.5 649 634.5 676.5> 322 103<634.5 649> 325 224<186 505 0 505>
LayerCount: 2
Back
Fore
SplineSet
325 505 m 1xbc80
 549 505 l 1
 549 0 l 1
 327 0 l 1x7c80
 327 24 l 1
 327 24 263 -13 213 -13 c 0xbc80
 68 -13 23 71 23 244 c 2
 23 505 l 1
 247 505 l 1
 247 259 l 2
 247 198 257 180 281 180 c 0
 303 180 325 186 325 186 c 1x7c80
 325 505 l 1xbc80
157 642 m 0
 157 711 212 741 291 741 c 0
 369 741 425 711 425 642 c 0
 425 578 374 543 291 543 c 0
 212 543 157 573 157 642 c 0
261 642 m 0xbb
 261 627 276 620 292 620 c 0
 308 620 322 627 322 642 c 0
 322 656 308 663 292 663 c 0
 276 663 261 656 261 642 c 0xbb
EndSplineSet
EndChar
StartChar: Uhungarumlaut
Encoding: 368 368 116
Width: 641
Flags: MW
HStem: -13 191<298 344 298 418.5> 713 136<146 244 113 333 328 328 328 333 361 459>
VStem: 26 232<240 670> 383 232<231 244 244 670>
LayerCount: 2
Back
Fore
SplineSet
258 670 m 1
 258 231 l 2
 258 193 275 178 321 178 c 0
 367 178 383 193 383 231 c 2
 383 670 l 1
 615 670 l 1
 615 244 l 2
 615 49 516 -13 321 -13 c 0
 126 -13 26 45 26 240 c 2
 26 670 l 1
 258 670 l 1
146 849 m 1
 333 849 l 1
 244 713 l 1
 113 713 l 1
 146 849 l 1
361 849 m 1
 548 849 l 1
 459 713 l 1
 328 713 l 1
 361 849 l 1
EndSplineSet
Position2: "'cpsp' Capital Spacing in Latin lookup 0 subtable" dx=5 dy=0 dh=10 dv=0
EndChar
StartChar: Uogonek
Encoding: 370 370 118
Width: 641
Flags: MW
HStem: -220 115<261 392.5> -3 21G
VStem: 26 232<240 670> 383 232<231 244 244 670>
LayerCount: 2
Back
Fore
SplineSet
428 -101 m 1
 441 -205 l 1
 441 -205 392 -220 305 -220 c 0
 217 -220 150 -194 150 -104 c 0
 150 -57 176 -25 204 -3 c 1
 86 20 26 89 26 240 c 2
 26 670 l 1
 258 670 l 1
 258 231 l 2
 258 193 275 178 321 178 c 0
 367 178 383 193 383 231 c 2
 383 670 l 1
 615 670 l 1
 615 244 l 2
 615 81 546 11 409 -7 c 1
 387 -29 360 -61 360 -83 c 0
 360 -96 366 -105 382 -105 c 0
 403 -105 428 -101 428 -101 c 1
EndSplineSet
Position2: "'cpsp' Capital Spacing in Latin lookup 0 subtable" dx=5 dy=0 dh=10 dv=0
EndChar
StartChar: uogonek
Encoding: 371 371 354
Width: 577
Flags: MW
HStem: -219 21G<368 455.5> -219 115<368 499.5> -13 21G<140.5 238> 0 21G<547 549 547 547> 485 20G<23 247 247 247 325 549 549 549>
VStem: 23 224<244 259 259 505> 325 224<186 505 0 505>
LayerCount: 2
Back
Fore
SplineSet
535 -100 m 1x5e
 548 -204 l 1
 548 -204 499 -219 412 -219 c 0
 324 -219 257 -193 257 -103 c 0
 257 -47 294 -11 327 9 c 1
 327 24 l 1
 327 24 263 -13 213 -13 c 0xae
 68 -13 23 71 23 244 c 2
 23 505 l 1
 247 505 l 1
 247 259 l 2
 247 198 257 180 281 180 c 0
 303 180 325 186 325 186 c 1
 325 505 l 1
 549 505 l 1
 549 0 l 1
 547 0 l 1
 538 -5 467 -49 467 -82 c 0
 467 -95 473 -104 489 -104 c 0
 510 -104 535 -100 535 -100 c 1x5e
EndSplineSet
EndChar
StartChar: Wcircumflex
Encoding: 372 372 124
Width: 915
Flags: MW
HStem: 0 234<85 287 269 287 269 416 269 493 635 653> 412.5 247.5 713 136<274 527 375 443 470 470 470 527 375 639>
VStem: 6 900<670 670>
LayerCount: 2
Back
Fore
SplineSet
85 0 m 1
 6 670 l 1
 237 670 l 1
 269 234 l 1
 287 234 l 1
 332 660 l 1
 585 660 l 1
 635 234 l 1
 653 234 l 1
 673 670 l 1
 906 670 l 1
 832 0 l 1
 493 0 l 1
 460 412 l 1
 450 413 l 1
 416 0 l 1
 85 0 l 1
274 713 m 1
 375 849 l 1
 527 849 l 1
 639 713 l 1
 470 713 l 1
 455 775 l 1
 443 713 l 1
 274 713 l 1
EndSplineSet
Position2: "'cpsp' Capital Spacing in Latin lookup 0 subtable" dx=5 dy=0 dh=10 dv=0
EndChar
StartChar: wcircumflex
Encoding: 373 373 357
Width: 792
Flags: MW
HStem: 0 187<267 279 267 375 537 549 267 411> 485 20G<10 257 257 257 560 781 781 781> 557 166<220 469 311 382 409 409 409 469 311 571>
VStem: 10 771<505 505>
LayerCount: 2
Back
Fore
SplineSet
10 505 m 1
 257 505 l 1
 267 187 l 1
 279 187 l 1
 302 492 l 1
 505 492 l 1
 537 187 l 1
 549 187 l 1
 560 505 l 1
 781 505 l 1
 730 0 l 1
 411 0 l 1
 394 218 l 1
 375 0 l 1
 70 0 l 1
 10 505 l 1
220 557 m 1
 311 723 l 1
 469 723 l 1
 571 557 l 1
 409 557 l 1
 394 629 l 1
 382 557 l 1
 220 557 l 1
EndSplineSet
EndChar
StartChar: Ycircumflex
Encoding: 374 374 130
Width: 590
Flags: MW
HStem: 0 21G<178 410 178 178> 713 136<114 367 215 283 310 310 310 367 215 479>
VStem: 178 232<0 210 0 210>
LayerCount: 2
Back
Fore
SplineSet
410 210 m 1
 410 0 l 1
 178 0 l 1
 178 210 l 1
 -13 670 l 1
 233 670 l 1
 296 473 l 1
 361 670 l 1
 606 670 l 1
 410 210 l 1
114 713 m 1
 215 849 l 1
 367 849 l 1
 479 713 l 1
 310 713 l 1
 295 775 l 1
 283 713 l 1
 114 713 l 1
EndSplineSet
Position2: "'cpsp' Capital Spacing in Latin lookup 0 subtable" dx=5 dy=0 dh=10 dv=0
EndChar
StartChar: ycircumflex
Encoding: 375 375 360
Width: 546
Flags: MW
HStem: -195 21G<181 427 181 181> 0 21G<86 86 86 244> 0 187<86 289> 485 20G<1 239 239 239 321 546 546 546> 557 166<106 355 197 268 295 295 295 355 197 457>
VStem: 1 545<505 505>
LayerCount: 2
Back
Fore
SplineSet
86 0 m 1xdc
 1 505 l 1
 239 505 l 1
 275 187 l 1
 289 187 l 1xbc
 321 505 l 1
 546 505 l 1
 427 -195 l 1
 181 -195 l 1
 244 0 l 1
 86 0 l 1xdc
106 557 m 1
 197 723 l 1
 355 723 l 1
 457 557 l 1
 295 557 l 1
 280 629 l 1
 268 557 l 1
 106 557 l 1
EndSplineSet
EndChar
StartChar: Ydieresis
Encoding: 376 376 131
Width: 590
Flags: MW
HStem: 0 21G<178 410 178 178> 713 144<112 273 112 273 112 319 319 480>
VStem: 112 161<713 857 713 857> 178 232<0 210 0 210> 319 161<713 857 713 857>
LayerCount: 2
Back
Fore
SplineSet
410 210 m 1xd0
 410 0 l 1
 178 0 l 1
 178 210 l 1
 -13 670 l 1
 233 670 l 1
 296 473 l 1
 361 670 l 1
 606 670 l 1
 410 210 l 1xd0
319 713 m 1xe8
 319 857 l 1
 480 857 l 1
 480 713 l 1
 319 713 l 1xe8
112 713 m 1
 112 857 l 1
 273 857 l 1
 273 713 l 1
 112 713 l 1
EndSplineSet
Position2: "'cpsp' Capital Spacing in Latin lookup 0 subtable" dx=5 dy=0 dh=10 dv=0
EndChar
StartChar: Zacute
Encoding: 377 377 134
Width: 569
Flags: MW
HStem: 0 189<332 549 332 549> 481 189<19 549 19 241 19 549> 713 136<195 328 152 437>
VStem: 19 530<0 180 180 180 481 670 0 670>
LayerCount: 2
Back
Fore
SplineSet
19 481 m 1
 19 670 l 1
 549 670 l 1
 549 481 l 1
 332 206 l 1
 332 189 l 1
 549 189 l 1
 549 0 l 1
 19 0 l 1
 19 180 l 1
 241 464 l 1
 241 481 l 1
 19 481 l 1
195 849 m 1
 437 849 l 1
 328 713 l 1
 152 713 l 1
 195 849 l 1
EndSplineSet
Position2: "'cpsp' Capital Spacing in Latin lookup 0 subtable" dx=5 dy=0 dh=10 dv=0
EndChar
StartChar: zacute
Encoding: 378 378 361
Width: 500
Flags: MW
HStem: 0 195<322 478 322 478> 310 195<24 475 24 172> 332 173<24 475> 557 166<189 317 146 426>
VStem: 24 454<0 183 183 183 0 505 0 505>
LayerCount: 2
Back
Fore
SplineSet
24 310 m 1xd8
 24 505 l 1
 475 505 l 1xd8
 475 332 l 1xb8
 322 195 l 1
 478 195 l 1
 478 0 l 1
 24 0 l 1
 24 183 l 1
 172 310 l 1
 24 310 l 1xd8
189 723 m 1
 426 723 l 1
 317 557 l 1
 146 557 l 1
 189 723 l 1
EndSplineSet
EndChar
StartChar: Zdotaccent
Encoding: 379 379 136
Width: 569
Flags: MW
HStem: 0 189<332 549 332 549> 481 189<19 549 19 241 19 549> 713 143<194 374 194 374>
VStem: 194 180<713 856 713 856>
LayerCount: 2
Back
Fore
SplineSet
19 481 m 1
 19 670 l 1
 549 670 l 1
 549 481 l 1
 332 206 l 1
 332 189 l 1
 549 189 l 1
 549 0 l 1
 19 0 l 1
 19 180 l 1
 241 464 l 1
 241 481 l 1
 19 481 l 1
194 713 m 1
 194 856 l 1
 374 856 l 1
 374 713 l 1
 194 713 l 1
EndSplineSet
Position2: "'cpsp' Capital Spacing in Latin lookup 0 subtable" dx=5 dy=0 dh=10 dv=0
EndChar
StartChar: zdotaccent
Encoding: 380 380 362
Width: 500
Flags: MW
HStem: 0 195<322 478 322 478> 310 195<24 475 24 172> 332 173<24 475> 563 153<158 344 158 344>
VStem: 158 186<563 716 563 716>
LayerCount: 2
Back
Fore
SplineSet
24 310 m 1xd8
 24 505 l 1
 475 505 l 1xd8
 475 332 l 1xb8
 322 195 l 1
 478 195 l 1
 478 0 l 1
 24 0 l 1
 24 183 l 1
 172 310 l 1
 24 310 l 1xd8
158 563 m 1
 158 716 l 1
 344 716 l 1
 344 563 l 1
 158 563 l 1
EndSplineSet
EndChar
StartChar: Zcaron
Encoding: 381 381 135
Width: 569
Flags: MW
HStem: 0 189<332 549 332 549> 481 189<19 549 19 241 19 549> 712 136<203 203 203 271 298 355>
VStem: 19 530<0 180 180 180 481 670 0 670>
LayerCount: 2
Back
Fore
SplineSet
19 481 m 1
 19 670 l 1
 549 670 l 1
 549 481 l 1
 332 206 l 1
 332 189 l 1
 549 189 l 1
 549 0 l 1
 19 0 l 1
 19 180 l 1
 241 464 l 1
 241 481 l 1
 19 481 l 1
203 712 m 1
 102 848 l 1
 271 848 l 1
 285 786 l 1
 298 848 l 1
 467 848 l 1
 355 712 l 1
 203 712 l 1
EndSplineSet
Position2: "'cpsp' Capital Spacing in Latin lookup 0 subtable" dx=5 dy=0 dh=10 dv=0
EndChar
StartChar: zcaron
Encoding: 382 382 154
Width: 500
Flags: MW
HStem: 0 195<322 478 322 478> 310 195<24 475 24 172> 332 173<24 475> 557 166<166 166 166 237 264 324>
VStem: 24 454<0 183 183 183 0 505 0 505>
LayerCount: 2
Back
Fore
SplineSet
24 310 m 1xd8
 24 505 l 1
 475 505 l 1xd8
 475 332 l 1xb8
 322 195 l 1
 478 195 l 1
 478 0 l 1
 24 0 l 1
 24 183 l 1
 172 310 l 1
 24 310 l 1xd8
166 557 m 1
 75 723 l 1
 237 723 l 1
 251 651 l 1
 264 723 l 1
 426 723 l 1
 324 557 l 1
 166 557 l 1
EndSplineSet
EndChar
StartChar: florin
Encoding: 402 402 224
Width: 371
Flags: MW
HStem: -195 21G<88 169> -195 159<-24 169> 326 70<3 69 3 72 287 370> 511 159<182 370>
VStem: 62 214.5 74 215
LayerCount: 2
Back
Fore
SplineSet
370 326 m 1xb4
 284 326 l 1
 269 -16 l 2
 263 -149 234 -195 104 -195 c 0
 72 -195 -24 -183 -24 -183 c 1
 -24 -36 l 1
 47 -36 54 -31 55 0 c 2
 69 326 l 1
 3 326 l 1
 3 396 l 1x68
 72 396 l 1
 76 491 l 2
 82 624 122 670 242 670 c 0
 274 670 370 658 370 658 c 1
 370 511 l 1
 305 511 292 506 291 475 c 2
 287 396 l 1
 370 396 l 1
 370 326 l 1xb4
EndSplineSet
EndChar
StartChar: Aringacute
Encoding: 506 506 300
Width: 639
Flags: MW
HStem: 0 21G<-5 223 -5 -5 411 645 411 411> 77 177<269 368 269 392 239 368> 680 20G<313 329> 743 75<313 329> 848 136<241 374 198 483>
VStem: 183 107<714.5 729 714.5 756.5> 351 106<714.5 729>
LayerCount: 2
Back
Fore
SplineSet
183 722 m 0
 183 791 241 818 320 818 c 0
 398 818 457 791 457 722 c 0
 457 701 451 684 441 670 c 1
 494 670 l 1
 645 0 l 1
 411 0 l 1
 392 77 l 1
 239 77 l 1
 223 0 l 1
 -5 0 l 1
 143 670 l 1
 198 670 l 1
 188 683 183 701 183 722 c 0
241 984 m 1xee
 483 984 l 1
 374 848 l 1
 198 848 l 1
 241 984 l 1xee
307 488 m 1
 269 254 l 1
 368 254 l 1
 332 488 l 1
 307 488 l 1
290 722 m 0xfe
 290 707 305 700 321 700 c 0
 337 700 351 707 351 722 c 0
 351 736 337 743 321 743 c 0
 305 743 290 736 290 722 c 0xfe
EndSplineSet
Position2: "'cpsp' Capital Spacing in Latin lookup 0 subtable" dx=5 dy=0 dh=10 dv=0
EndChar
StartChar: aringacute
Encoding: 507 507 304
Width: 557
Flags: MW
HStem: -13 21G<132 236 399 448.5> -13 154<132 266.5 248 448.5> -1 21G<539 539> 192 122.5 344 174<218.5 264> 538 77<265 281 265 313.5> 658 78<265 281> 756 166<214 342 171 451>
VStem: 10 224<156 171 156 222.5> 138 104<629.5 644 629.5 671.5> 294 224<156 193 193 193 316 325 325 332> 303 103<629.5 644>
LayerCount: 2
Back
Fore
SplineSet
518 342 m 2x2960
 518 152 l 1
 522 149 535 143 542 141 c 1x59a0
 539 -1 l 1
 539 -1 461 -13 436 -13 c 0
 362 -13 339 22 339 22 c 1
 339 22 277 -13 195 -13 c 0
 69 -13 10 38 10 157 c 0x99a0
 10 288 92 308 222 313 c 2x3960
 294 316 l 1
 294 325 l 2
 294 339 277 344 251 344 c 0
 162 344 37 331 37 331 c 1
 32 483 l 1
 32 483 164 518 273 518 c 0
 418 518 518 487 518 342 c 2x2960
294 193 m 1
 260 191 l 2
 244 190 234 179 234 163 c 0
 234 149 240 141 256 141 c 0
 277 141 294 156 294 156 c 1
 294 193 l 1
138 637 m 0x2f50
 138 706 193 736 272 736 c 0
 350 736 406 706 406 637 c 0
 406 573 355 538 272 538 c 0
 193 538 138 568 138 637 c 0x2f50
242 637 m 0
 242 622 257 615 273 615 c 0
 289 615 303 622 303 637 c 0
 303 651 289 658 273 658 c 0
 257 658 242 651 242 637 c 0
214 922 m 1x2960
 451 922 l 1
 342 756 l 1
 171 756 l 1
 214 922 l 1x2960
EndSplineSet
EndChar
StartChar: AEacute
Encoding: 508 508 27
Width: 882
Flags: MW
HStem: 0 185<592 865 592 865> 77 179<270 366 270 366 239 366> 248 177<592 805 592 805> 485 185<307 307 307 366 592 865 592 592> 713 136<391 524 348 633>
VStem: 366 226<0 248 77 248 425 485>
LayerCount: 2
Back
Fore
SplineSet
366 0 m 1xbc
 366 77 l 1
 239 77 l 1x5c
 223 0 l 1
 -5 0 l 1
 143 670 l 1
 865 670 l 1
 865 485 l 1
 592 485 l 1
 592 425 l 1
 805 425 l 1
 805 248 l 1
 592 248 l 1
 592 185 l 1
 865 185 l 1
 865 0 l 1
 366 0 l 1xbc
307 485 m 1
 270 256 l 1
 366 256 l 1
 366 485 l 1
 307 485 l 1
391 849 m 1
 633 849 l 1
 524 713 l 1
 348 713 l 1
 391 849 l 1
EndSplineSet
Position2: "'cpsp' Capital Spacing in Latin lookup 0 subtable" dx=5 dy=0 dh=10 dv=0
EndChar
StartChar: aeacute
Encoding: 509 509 306
Width: 827
Flags: MW
HStem: -13 154<134.5 260.5> -13 165<546 608.5> 187 122<514 591 513 803 514 514> 192 122.5 344 174<212.5 258> 362 156<537 565.5> 557 166<362 490 319 599>
VStem: 10 218<156 171 156 224.5> 10 803<97.5 365.5> 591 222<309 329>
LayerCount: 2
Back
Fore
SplineSet
563 152 m 0x6680
 655 152 798 161 798 161 c 1
 803 16 l 1
 803 16 670 -13 547 -13 c 0
 479 -13 426 -1 386 22 c 1
 386 22 277 -13 189 -13 c 0
 80 -13 10 38 10 157 c 0
 10 292 81 306 220 313 c 2x57
 288 316 l 1
 288 325 l 2
 288 339 271 344 245 344 c 0
 156 344 37 331 37 331 c 1x6a80
 32 483 l 1
 32 483 158 518 267 518 c 0
 330 518 382 512 422 493 c 1
 458 509 501 518 552 518 c 0
 725 518 813 445 813 286 c 1
 803 187 l 1x6640
 514 187 l 1
 515 162 529 152 563 152 c 0x6680
362 723 m 1
 599 723 l 1
 490 557 l 1
 319 557 l 1
 362 723 l 1
513 309 m 1x6640
 591 309 l 1
 591 349 579 362 552 362 c 0
 522 362 514 346 513 309 c 1x6640
288 193 m 1x97
 254 191 l 2
 238 190 228 179 228 163 c 0
 228 149 234 141 250 141 c 0
 271 141 288 156 288 156 c 1
 288 193 l 1x97
EndSplineSet
EndChar
StartChar: Oslashacute
Encoding: 510 510 91
Width: 670
Flags: MW
HStem: -13 188<316 335 316 316> -10 21G<82.5 83> 495 188<298 340 223.5 373.5> 680 21G<598 598> 728 136<246 379 203 488>
VStem: 16 234<283.5 386.5 283.5 457> 420 234<284 386.5>
LayerCount: 2
Back
Fore
SplineSet
83 -10 m 0x5e
 82 -10 97 23 109 53 c 1
 46 109 16 201 16 335 c 0
 16 579 112 683 335 683 c 0
 345 683 354 682 363 682 c 1x6e
 373 705 381 724 381 724 c 2
 381 723 598 680 598 680 c 1
 569 609 l 1
 627 553 654 463 654 335 c 0
 654 91 558 -13 335 -13 c 2
 316 -13 l 1
 300 -54 l 1x9e
 300 -54 84 -9 83 -10 c 0x5e
335 175 m 0xae
 411 175 420 233 420 335 c 0
 420 438 412 495 335 495 c 0
 261 495 250 438 250 335 c 0
 250 232 261 175 335 175 c 0xae
246 864 m 1
 488 864 l 1
 379 728 l 1
 203 728 l 1
 246 864 l 1
EndSplineSet
Position2: "'cpsp' Capital Spacing in Latin lookup 0 subtable" dx=5 dy=0 dh=10 dv=0
EndChar
StartChar: Tcommaaccent
Encoding: 538 538 109
Width: 519
Flags: MW
HStem: -260 215<141 365 161 303> 0 21G<147 379 147 147> 481 189<9 509 9 147 379 379 379 509>
VStem: 147 232<0 481 0 481>
LayerCount: 2
Back
Fore
SplineSet
141 -260 m 1
 161 -45 l 1
 365 -45 l 1
 303 -260 l 1
 141 -260 l 1
9 481 m 1
 9 670 l 1
 509 670 l 1
 509 481 l 1
 379 481 l 1
 379 0 l 1
 147 0 l 1
 147 481 l 1
 9 481 l 1
EndSplineSet
Position2: "'cpsp' Capital Spacing in Latin lookup 0 subtable" dx=5 dy=0 dh=10 dv=0
EndChar
StartChar: tcommaaccent
Encoding: 539 539 347
Width: 371
Flags: MW
HStem: -260 215<70 294 90 232> -13 21G<162 245> -13 191<162 316> 324 181<10 49 10 49 273 354>
VStem: 49 224<204 220 220 324 204 324 505 605>
LayerCount: 2
Back
Fore
SplineSet
70 -260 m 1xd8
 90 -45 l 1
 294 -45 l 1
 232 -260 l 1
 70 -260 l 1xd8
273 324 m 1
 273 220 l 2
 273 188 278 178 306 178 c 0
 326 178 351 179 351 179 c 1xb8
 354 5 l 1
 354 5 268 -13 222 -13 c 0
 102 -13 49 25 49 168 c 2
 49 324 l 1
 10 324 l 1
 10 505 l 1
 49 505 l 1
 49 605 l 1
 273 605 l 1
 273 505 l 1
 354 505 l 1
 354 324 l 1
 273 324 l 1
EndSplineSet
EndChar
StartChar: circumflex
Encoding: 710 710 6
Width: 833
Flags: MW
HStem: 557 166<239 488 330 401 428 428 428 488 330 590>
VStem: 239 351<557 557>
LayerCount: 2
Back
Fore
SplineSet
239 557 m 1
 330 723 l 1
 488 723 l 1
 590 557 l 1
 428 557 l 1
 413 629 l 1
 401 557 l 1
 239 557 l 1
EndSplineSet
EndChar
StartChar: caron
Encoding: 711 711 4
Width: 833
Flags: MW
HStem: 557 166<326 326 326 397 424 484>
VStem: 235 351<723 723>
LayerCount: 2
Back
Fore
SplineSet
326 557 m 1
 235 723 l 1
 397 723 l 1
 411 651 l 1
 424 723 l 1
 586 723 l 1
 484 557 l 1
 326 557 l 1
EndSplineSet
EndChar
StartChar: breve
Encoding: 728 728 3
Width: 406
Flags: MW
HStem: 548 125<189 219 189 269>
VStem: 248 116<668 718>
LayerCount: 2
Back
Fore
SplineSet
248 718 m 1
 364 708 l 1
 364 628 334 548 204 548 c 0
 74 548 44 628 44 708 c 1
 160 718 l 1
 163 692 174 673 204 673 c 0
 234 673 245 692 248 718 c 1
EndSplineSet
EndChar
StartChar: dotaccent
Encoding: 729 729 9
Width: 346
Flags: MW
HStem: 563 153<80 266 80 266>
VStem: 80 186<563 716 563 716>
LayerCount: 2
Back
Fore
SplineSet
80 563 m 1
 80 716 l 1
 266 716 l 1
 266 563 l 1
 80 563 l 1
EndSplineSet
EndChar
StartChar: ring
Encoding: 730 730 14
Width: 496
Flags: MW
HStem: 543 77<261 277 261 309.5> 663 78<261 277>
VStem: 134 104<634.5 649 634.5 676.5> 299 103<634.5 649>
LayerCount: 2
Back
Fore
SplineSet
134 642 m 0
 134 711 189 741 268 741 c 0
 346 741 402 711 402 642 c 0
 402 578 351 543 268 543 c 0
 189 543 134 573 134 642 c 0
238 642 m 0
 238 627 253 620 269 620 c 0
 285 620 299 627 299 642 c 0
 299 656 285 663 269 663 c 0
 253 663 238 656 238 642 c 0
EndSplineSet
EndChar
StartChar: ogonek
Encoding: 731 731 13
Width: 833
Flags: MW
HStem: -220 115<300 431.5>
VStem: 189 210<-89.5 -65.5 -89.5 -53.5>
LayerCount: 2
Back
Fore
SplineSet
467 -101 m 1
 480 -205 l 1
 480 -205 431 -220 344 -220 c 0
 256 -220 189 -194 189 -104 c 0
 189 -3 310 31 310 31 c 1
 473 16 l 1
 473 16 399 -48 399 -83 c 0
 399 -96 405 -105 421 -105 c 0
 442 -105 467 -101 467 -101 c 1
EndSplineSet
EndChar
StartChar: tilde
Encoding: 732 732 15
Width: 481
Flags: MW
HStem: 547 141<277 304 277 322> 591 140<132 162.5>
VStem: 37 365<610 667>
LayerCount: 2
Back
Fore
SplineSet
373 727 m 1xa0
 402 610 l 1
 402 610 349 547 295 547 c 0xa0
 243 547 179 591 146 591 c 0
 118 591 66 551 66 551 c 1
 37 667 l 1
 37 667 91 731 144 731 c 0x60
 205 731 263 688 291 688 c 0
 317 688 373 727 373 727 c 1xa0
EndSplineSet
EndChar
StartChar: hungarumlaut
Encoding: 733 733 10
Width: 463
Flags: MW
HStem: 559 166<42 145 9 234 229 229 229 234 262 365>
VStem: 9 445<559 725>
LayerCount: 2
Back
Fore
SplineSet
42 725 m 1
 234 725 l 1
 145 559 l 1
 9 559 l 1
 42 725 l 1
262 725 m 1
 454 725 l 1
 365 559 l 1
 229 559 l 1
 262 725 l 1
EndSplineSet
EndChar
StartChar: pi
Encoding: 960 960 205
Width: 550
Flags: MW
HStem: 0 164<474.5 513 474.5 513> 295 205<254 269 254 254> 496 20G<528 528>
VStem: 18 61<291 291 291 487> 70 175 269 155<212.5 264 264 295 295 295> 384 144<500 500>
LayerCount: 2
Back
Fore
SplineSet
269 154 m 1xb4
 269 295 l 1xd4
 254 295 l 1
 236 0 l 1
 61 0 l 1xcc
 79 291 l 1
 36 287 18 282 18 282 c 1
 18 487 l 1
 75 498 168 500 168 500 c 1
 384 500 l 1xd2
 384 500 479 500 528 516 c 1
 528 311 l 1xb2
 528 311 494 299 424 296 c 1
 424 264 l 2
 424 161 436 164 513 164 c 1
 513 0 l 1
 342 0 275 30 269 154 c 1xb4
EndSplineSet
EndChar
StartChar: Wgrave
Encoding: 7808 7808 126
Width: 915
Flags: MW
HStem: 0 234<85 287 269 287 269 416 269 493 635 653> 412.5 247.5 713 136<402 540 298 574 402 402>
VStem: 6 900<670 670>
LayerCount: 2
Back
Fore
SplineSet
85 0 m 1
 6 670 l 1
 237 670 l 1
 269 234 l 1
 287 234 l 1
 332 660 l 1
 585 660 l 1
 635 234 l 1
 653 234 l 1
 673 670 l 1
 906 670 l 1
 832 0 l 1
 493 0 l 1
 460 412 l 1
 450 413 l 1
 416 0 l 1
 85 0 l 1
298 849 m 1
 540 849 l 1
 574 713 l 1
 402 713 l 1
 298 849 l 1
EndSplineSet
Position2: "'cpsp' Capital Spacing in Latin lookup 0 subtable" dx=5 dy=0 dh=10 dv=0
EndChar
StartChar: wgrave
Encoding: 7809 7809 355
Width: 792
Flags: MW
HStem: 0 187<267 279 267 375 537 549 267 411> 485 20G<10 257 257 257 560 781 781 781> 557 166<336 464 227 507 336 336>
VStem: 10 771<505 505>
LayerCount: 2
Back
Fore
SplineSet
10 505 m 1
 257 505 l 1
 267 187 l 1
 279 187 l 1
 302 492 l 1
 505 492 l 1
 537 187 l 1
 549 187 l 1
 560 505 l 1
 781 505 l 1
 730 0 l 1
 411 0 l 1
 394 218 l 1
 375 0 l 1
 70 0 l 1
 10 505 l 1
227 723 m 1
 464 723 l 1
 507 557 l 1
 336 557 l 1
 227 723 l 1
EndSplineSet
EndChar
StartChar: Wacute
Encoding: 7810 7810 123
Width: 915
Flags: MW
HStem: 0 234<85 287 269 287 269 416 269 493 635 653> 412.5 247.5 713 136<377 510 334 619>
VStem: 6 900<670 670>
LayerCount: 2
Back
Fore
SplineSet
85 0 m 1
 6 670 l 1
 237 670 l 1
 269 234 l 1
 287 234 l 1
 332 660 l 1
 585 660 l 1
 635 234 l 1
 653 234 l 1
 673 670 l 1
 906 670 l 1
 832 0 l 1
 493 0 l 1
 460 412 l 1
 450 413 l 1
 416 0 l 1
 85 0 l 1
377 849 m 1
 619 849 l 1
 510 713 l 1
 334 713 l 1
 377 849 l 1
EndSplineSet
Position2: "'cpsp' Capital Spacing in Latin lookup 0 subtable" dx=5 dy=0 dh=10 dv=0
EndChar
StartChar: wacute
Encoding: 7811 7811 356
Width: 792
Flags: MW
HStem: 0 187<267 279 267 375 537 549 267 411> 485 20G<10 257 257 257 560 781 781 781> 557 166<346 474 303 583>
VStem: 10 771<505 505>
LayerCount: 2
Back
Fore
SplineSet
10 505 m 1
 257 505 l 1
 267 187 l 1
 279 187 l 1
 302 492 l 1
 505 492 l 1
 537 187 l 1
 549 187 l 1
 560 505 l 1
 781 505 l 1
 730 0 l 1
 411 0 l 1
 394 218 l 1
 375 0 l 1
 70 0 l 1
 10 505 l 1
346 723 m 1
 583 723 l 1
 474 557 l 1
 303 557 l 1
 346 723 l 1
EndSplineSet
EndChar
StartChar: Wdieresis
Encoding: 7812 7812 125
Width: 915
Flags: MW
HStem: 0 234<85 287 269 287 269 416 269 493 635 653> 412.5 247.5 713 144<272 433 272 433 272 479 479 640>
VStem: 272 161<713 857 713 857> 479 161<713 857 713 857>
LayerCount: 2
Back
Fore
SplineSet
85 0 m 1
 6 670 l 1
 237 670 l 1
 269 234 l 1
 287 234 l 1
 332 660 l 1
 585 660 l 1
 635 234 l 1
 653 234 l 1
 673 670 l 1
 906 670 l 1
 832 0 l 1
 493 0 l 1
 460 412 l 1
 450 413 l 1
 416 0 l 1
 85 0 l 1
479 713 m 1
 479 857 l 1
 640 857 l 1
 640 713 l 1
 479 713 l 1
272 713 m 1
 272 857 l 1
 433 857 l 1
 433 713 l 1
 272 713 l 1
EndSplineSet
Position2: "'cpsp' Capital Spacing in Latin lookup 0 subtable" dx=5 dy=0 dh=10 dv=0
EndChar
StartChar: wdieresis
Encoding: 7813 7813 358
Width: 792
Flags: MW
HStem: 0 187<267 279 267 375 537 549 267 411> 485 20G<10 257 257 257 560 781 781 781> 559 154<208 372 208 372 208 418 418 582>
VStem: 208 164<559 713 559 713> 418 164<559 713 559 713>
LayerCount: 2
Back
Fore
SplineSet
10 505 m 1
 257 505 l 1
 267 187 l 1
 279 187 l 1
 302 492 l 1
 505 492 l 1
 537 187 l 1
 549 187 l 1
 560 505 l 1
 781 505 l 1
 730 0 l 1
 411 0 l 1
 394 218 l 1
 375 0 l 1
 70 0 l 1
 10 505 l 1
418 559 m 1
 418 713 l 1
 582 713 l 1
 582 559 l 1
 418 559 l 1
208 559 m 1
 208 713 l 1
 372 713 l 1
 372 559 l 1
 208 559 l 1
EndSplineSet
EndChar
StartChar: uni1EB0
Encoding: 7856 7856 366
Width: 639
Flags: MW
HStem: 0 21G<-5 -5 -5 223 411 411 411 645> 77 177<269 368 269 392 239 368> 488 182<307 307 307 332> 712 115<305 335 305 382.5> 915 166<238 366 129 409 238 238>
VStem: -5 650<0 0>
LayerCount: 2
Back
Fore
SplineSet
-5 0 m 1
 143 670 l 1
 494 670 l 1
 645 0 l 1
 411 0 l 1
 392 77 l 1
 239 77 l 1
 223 0 l 1
 -5 0 l 1
307 488 m 1
 269 254 l 1
 368 254 l 1
 332 488 l 1
 307 488 l 1
364 872 m 1
 480 862 l 1
 480 787 445 712 320 712 c 0
 195 712 160 787 160 862 c 1
 276 872 l 1
 279 846 290 827 320 827 c 0
 350 827 361 846 364 872 c 1
129 1081 m 1
 366 1081 l 1
 409 915 l 1
 238 915 l 1
 129 1081 l 1
EndSplineSet
EndChar
StartChar: uni1EC5
Encoding: 7877 7877 368
Width: 552
Flags: MW
HStem: -13 165<271 333.5> 187 122<239 314 238 528 239 239> 362 156<262 290.5> 557 166<101 350 192 263 290 290 290 350 192 452> 747 141<333 360 333 378> 791 140<188 218.5>
VStem: 15 224<187 187 187 331> 15 523<286 331>
LayerCount: 2
Back
Fore
SplineSet
288 152 m 0xf2
 380 152 523 161 523 161 c 1
 528 16 l 1
 528 16 395 -13 272 -13 c 0
 82 -13 15 66 15 243 c 0
 15 419 91 518 277 518 c 0
 450 518 538 445 538 286 c 1
 528 187 l 1
 239 187 l 1
 240 162 254 152 288 152 c 0xf2
238 309 m 1
 314 309 l 1
 314 347 304 362 277 362 c 0
 247 362 239 346 238 309 c 1
101 557 m 1
 192 723 l 1
 350 723 l 1
 452 557 l 1
 290 557 l 1
 275 629 l 1
 263 557 l 1
 101 557 l 1
429 927 m 1xf9
 458 810 l 1
 458 810 405 747 351 747 c 0xf9
 299 747 235 791 202 791 c 0
 174 791 122 751 122 751 c 1
 93 867 l 1
 93 867 147 931 200 931 c 0xf5
 261 931 319 888 347 888 c 0
 373 888 429 927 429 927 c 1xf9
EndSplineSet
EndChar
StartChar: uni1ED7
Encoding: 7895 7895 369
Width: 564
Flags: MW
HStem: -13 181<266.5 297.5 266.5 368.5> 337 181<266.5 297.5> 557 166<107 356 198 269 296 296 296 356 198 458> 747 141<339 366 339 384> 791 140<194 224.5>
VStem: 15 226<220.5 285 220.5 349> 323 226<220.5 285.5>
LayerCount: 2
Back
Fore
SplineSet
282 518 m 0xe6
 455 518 549 445 549 253 c 0
 549 58 455 -13 282 -13 c 0
 109 -13 15 58 15 253 c 0
 15 445 109 518 282 518 c 0xe6
282 168 m 0
 313 168 323 188 323 253 c 0
 323 318 313 337 282 337 c 0
 251 337 241 317 241 253 c 0
 241 188 251 168 282 168 c 0
107 557 m 1
 198 723 l 1
 356 723 l 1
 458 557 l 1
 296 557 l 1
 281 629 l 1
 269 557 l 1
 107 557 l 1
435 927 m 1xf6
 464 810 l 1
 464 810 411 747 357 747 c 0xf6
 305 747 241 791 208 791 c 0
 180 791 128 751 128 751 c 1
 99 867 l 1
 99 867 153 931 206 931 c 0xee
 267 931 325 888 353 888 c 0
 379 888 435 927 435 927 c 1xf6
EndSplineSet
EndChar
StartChar: Ygrave
Encoding: 7922 7922 132
Width: 590
Flags: MW
HStem: 0 21G<178 410 178 178> 713 136<232 370 128 404 232 232>
VStem: 178 232<0 210 0 210>
LayerCount: 2
Back
Fore
SplineSet
410 210 m 1
 410 0 l 1
 178 0 l 1
 178 210 l 1
 -13 670 l 1
 233 670 l 1
 296 473 l 1
 361 670 l 1
 606 670 l 1
 410 210 l 1
128 849 m 1
 370 849 l 1
 404 713 l 1
 232 713 l 1
 128 849 l 1
EndSplineSet
Position2: "'cpsp' Capital Spacing in Latin lookup 0 subtable" dx=5 dy=0 dh=10 dv=0
EndChar
StartChar: ygrave
Encoding: 7923 7923 359
Width: 546
Flags: MW
HStem: -195 21G<181 427 181 181> 0 21G<86 86 86 244> 0 187<86 289> 485 20G<1 239 239 239 321 546 546 546> 557 166<224 352 115 395 224 224>
VStem: 1 545<505 505>
LayerCount: 2
Back
Fore
SplineSet
86 0 m 1xdc
 1 505 l 1
 239 505 l 1
 275 187 l 1
 289 187 l 1xbc
 321 505 l 1
 546 505 l 1
 427 -195 l 1
 181 -195 l 1
 244 0 l 1
 86 0 l 1xdc
115 723 m 1
 352 723 l 1
 395 557 l 1
 224 557 l 1
 115 723 l 1
EndSplineSet
EndChar
StartChar: uni1EF8
Encoding: 7928 7928 367
Width: 590
Flags: MW
HStem: 0 21G<178 410 178 178> 712 141<352 379 352 397> 756 140<207 237.5>
VStem: 178 232<0 210 0 210>
LayerCount: 2
Back
Fore
SplineSet
410 210 m 1xb0
 410 0 l 1
 178 0 l 1
 178 210 l 1
 -13 670 l 1
 233 670 l 1
 296 473 l 1
 361 670 l 1
 606 670 l 1
 410 210 l 1xb0
448 892 m 1xd0
 477 775 l 1
 477 775 424 712 370 712 c 0xd0
 318 712 254 756 221 756 c 0
 193 756 141 716 141 716 c 1
 112 832 l 1
 112 832 166 896 219 896 c 0xb0
 280 896 338 853 366 853 c 0
 392 853 448 892 448 892 c 1xd0
EndSplineSet
EndChar
StartChar: uni1EF9
Encoding: 7929 7929 365
Width: 546
Flags: MW
HStem: -195 21G<181 427 181 181> 0 21G<86 86 86 244> 0 187<86 289> 485 20G<1 239 239 239 321 546 546 546> 547 141<330 357 330 375> 591 140<185 215.5>
VStem: 1 545<505 505>
LayerCount: 2
Back
Fore
SplineSet
86 0 m 1xd6
 1 505 l 1
 239 505 l 1
 275 187 l 1
 289 187 l 1xba
 321 505 l 1
 546 505 l 1
 427 -195 l 1
 181 -195 l 1
 244 0 l 1
 86 0 l 1xd6
426 727 m 1
 455 610 l 1
 455 610 402 547 348 547 c 0xda
 296 547 232 591 199 591 c 0
 171 591 119 551 119 551 c 1
 90 667 l 1
 90 667 144 731 197 731 c 0xd6
 258 731 316 688 344 688 c 0
 370 688 426 727 426 727 c 1
EndSplineSet
EndChar
StartChar: endash
Encoding: 8211 8211 142
Width: 560
Flags: MW
HStem: 155 197<30 530 30 530>
VStem: 30 500<155 352 155 352>
LayerCount: 2
Back
Fore
SplineSet
30 155 m 1
 30 352 l 1
 530 352 l 1
 530 155 l 1
 30 155 l 1
EndSplineSet
Substitution2: "'case' Case-Sensitive Forms in Latin lookup 4 subtable" endash.cap
EndChar
StartChar: emdash
Encoding: 8212 8212 211
Width: 1060
Flags: MW
HStem: 155 197<30 1030 30 1030>
VStem: 30 1000<155 352 155 352>
LayerCount: 2
Back
Fore
SplineSet
30 155 m 1
 30 352 l 1
 1030 352 l 1
 1030 155 l 1
 30 155 l 1
EndSplineSet
Substitution2: "'case' Case-Sensitive Forms in Latin lookup 4 subtable" emdash.cap
EndChar
StartChar: quoteleft
Encoding: 8216 8216 242
Width: 278
Flags: MW
HStem: 389 281<83 238 8 259>
VStem: 8 251
LayerCount: 2
Back
Fore
SplineSet
259 670 m 1
 238 389 l 1
 8 389 l 1
 83 670 l 1
 259 670 l 1
EndSplineSet
EndChar
StartChar: quoteright
Encoding: 8217 8217 243
Width: 275
Flags: MW
HStem: 389 281<19 270 40 195>
VStem: 19 251
LayerCount: 2
Back
Fore
SplineSet
19 389 m 1
 40 670 l 1
 270 670 l 1
 195 389 l 1
 19 389 l 1
EndSplineSet
EndChar
StartChar: quotesinglbase
Encoding: 8218 8218 282
Width: 274
Flags: MW
HStem: -108 281<11 262 32 187>
VStem: 11 251
LayerCount: 2
Back
Fore
SplineSet
11 -108 m 1
 32 173 l 1
 262 173 l 1
 187 -108 l 1
 11 -108 l 1
EndSplineSet
EndChar
StartChar: quotedblleft
Encoding: 8220 8220 209
Width: 544
Flags: MW
HStem: 389 281<83 238 8 259 83 274 349 504>
VStem: 8 517<389 670>
LayerCount: 2
Back
Fore
SplineSet
259 670 m 1
 238 389 l 1
 8 389 l 1
 83 670 l 1
 259 670 l 1
525 670 m 1
 504 389 l 1
 274 389 l 1
 349 670 l 1
 525 670 l 1
EndSplineSet
EndChar
StartChar: quotedblright
Encoding: 8221 8221 254
Width: 541
Flags: MW
HStem: 389 281<19 270 40 195 306 461 40 285>
VStem: 19 517<389 670>
LayerCount: 2
Back
Fore
SplineSet
19 389 m 1
 40 670 l 1
 270 670 l 1
 195 389 l 1
 19 389 l 1
285 389 m 1
 306 670 l 1
 536 670 l 1
 461 389 l 1
 285 389 l 1
EndSplineSet
EndChar
StartChar: quotedblbase
Encoding: 8222 8222 381
Width: 540
Flags: MW
HStem: -108 281<11 262 32 187 298 453 32 277>
VStem: 11 517<-108 173>
LayerCount: 2
Back
Fore
SplineSet
11 -108 m 1
 32 173 l 1
 262 173 l 1
 187 -108 l 1
 11 -108 l 1
277 -108 m 1
 298 173 l 1
 528 173 l 1
 453 -108 l 1
 277 -108 l 1
EndSplineSet
EndChar
StartChar: dagger
Encoding: 8224 8224 250
Width: 534
Flags: MW
HStem: -195 21G<154 380 154 154> 294 198<17 154 17 154 380 517>
VStem: 154 226<-195 294 -195 294 492 670>
LayerCount: 2
Back
Fore
SplineSet
17 294 m 1
 17 492 l 1
 154 492 l 1
 154 670 l 1
 380 670 l 1
 380 492 l 1
 517 492 l 1
 517 294 l 1
 380 294 l 1
 380 -195 l 1
 154 -195 l 1
 154 294 l 1
 17 294 l 1
EndSplineSet
EndChar
StartChar: daggerdbl
Encoding: 8225 8225 226
Width: 548
Flags: MW
HStem: -17 198<24 161 24 161 387 524> 294 198<24 161 24 161 387 524>
VStem: 161 226<-194 -17 -194 -17 181 294 492 670>
LayerCount: 2
Back
Fore
SplineSet
161 -194 m 1
 161 -17 l 1
 24 -17 l 1
 24 181 l 1
 161 181 l 1
 161 294 l 1
 24 294 l 1
 24 492 l 1
 161 492 l 1
 161 670 l 1
 387 670 l 1
 387 492 l 1
 524 492 l 1
 524 294 l 1
 387 294 l 1
 387 181 l 1
 524 181 l 1
 524 -17 l 1
 387 -17 l 1
 387 -194 l 1
 161 -194 l 1
EndSplineSet
EndChar
StartChar: bullet
Encoding: 8226 8226 206
Width: 377
Flags: MW
HStem: 140 270<51 326 51 326>
VStem: 51 275<140 410 140 410>
LayerCount: 2
Back
Fore
SplineSet
51 140 m 1
 51 410 l 1
 326 410 l 1
 326 140 l 1
 51 140 l 1
EndSplineSet
EndChar
StartChar: ellipsis
Encoding: 8230 8230 267
Width: 876
Flags: MW
HStem: 0 199<27 255 27 255 324 552 27 324 621 849>
VStem: 27 228<0 199 0 199> 324 228<0 199 0 199> 621 228<0 199 0 199>
LayerCount: 2
Back
Fore
SplineSet
27 0 m 1
 27 199 l 1
 255 199 l 1
 255 0 l 1
 27 0 l 1
324 0 m 1
 324 199 l 1
 552 199 l 1
 552 0 l 1
 324 0 l 1
621 0 m 1
 621 199 l 1
 849 199 l 1
 849 0 l 1
 621 0 l 1
EndSplineSet
EndChar
StartChar: perthousand
Encoding: 8240 8240 273
Width: 978
Flags: MW
HStem: -12 107<498 512.5 498 561 810 824.5> 239 106<497.5 513 809.5 825> 311 107<154 168.5 154 217> 562 106<153.5 169> 672 20G<430 430> 681 20G<386 386>
VStem: 17 144 161 144 361 144 505 144 673 144 817 144
LayerCount: 2
Back
Fore
SplineSet
228 -59 m 1xd6a0
 386 701 l 1x1580
 430 692 l 1x0880
 271 -67 l 1
 228 -59 l 1xd6a0
161 668 m 0
 274 668 305 618 305 490 c 0x21
 305 362 273 311 161 311 c 0
 50 311 17 362 17 490 c 0x36
 17 618 53 668 161 668 c 0
161 562 m 0x32
 146 562 143 560 143 490 c 0
 143 420 147 418 161 418 c 0
 176 418 179 420 179 490 c 0
 179 560 177 562 161 562 c 0x32
505 345 m 0x4040
 618 345 649 295 649 167 c 0x8040
 649 39 617 -12 505 -12 c 0
 394 -12 361 39 361 167 c 0xc080
 361 295 397 345 505 345 c 0x4040
505 239 m 0xc090
 490 239 487 237 487 167 c 0
 487 97 491 95 505 95 c 0
 520 95 523 97 523 167 c 0
 523 237 521 239 505 239 c 0xc090
817 345 m 0
 930 345 961 295 961 167 c 0x8010
 961 39 929 -12 817 -12 c 0
 706 -12 673 39 673 167 c 0xc020
 673 295 709 345 817 345 c 0
817 239 m 0xc020
 802 239 799 237 799 167 c 0
 799 97 803 95 817 95 c 0
 832 95 835 97 835 167 c 0
 835 237 833 239 817 239 c 0xc020
EndSplineSet
EndChar
StartChar: guilsinglleft
Encoding: 8249 8249 382
Width: 354
Flags: MW
HStem: 14 486<173 175>
VStem: 14 321<88 265 88 265>
LayerCount: 2
Back
Fore
SplineSet
335 426 m 1
 221 257 l 1
 335 88 l 1
 173 14 l 1
 14 244 l 1
 14 265 l 1
 175 500 l 1
 335 426 l 1
EndSplineSet
EndChar
StartChar: guilsinglright
Encoding: 8250 8250 383
Width: 354
Flags: MW
HStem: 6 486<179 181>
VStem: 19 321<80 262 241 418>
LayerCount: 2
Back
Fore
SplineSet
19 80 m 1
 133 249 l 1
 19 418 l 1
 181 492 l 1
 340 262 l 1
 340 241 l 1
 179 6 l 1
 19 80 l 1
EndSplineSet
EndChar
StartChar: fraction
Encoding: 8260 8260 420
Width: 215
Flags: MW
HStem: 671 20G<338 338>
VStem: -112 450
LayerCount: 2
Back
Fore
SplineSet
-112 5 m 1
 191 755 l 1
 338 691 l 1
 35 -59 l 1
 -112 5 l 1
EndSplineSet
EndChar
StartChar: zerosuperior
Encoding: 8304 8304 255
Width: 350
Flags: MW
HStem: 273 119<167 183 167 237> 552 118<166.5 183.5>
VStem: 14 161 175 160
LayerCount: 2
Back
Fore
SplineSet
175 670 m 0xd0
 300 670 335 614 335 472 c 0xd0
 335 330 299 273 175 273 c 0
 51 273 14 330 14 472 c 0xe0
 14 614 54 670 175 670 c 0xd0
175 552 m 0
 158 552 155 550 155 472 c 0xd0
 155 395 159 392 175 392 c 0
 191 392 195 395 195 472 c 0xe0
 195 550 192 552 175 552 c 0
EndSplineSet
Substitution2: "Single Substitution lookup 5 subtable" zeroinferior
EndChar
StartChar: fivesuperior
Encoding: 8309 8309 260
Width: 350
Flags: MW
HStem: 273 108<146 172.5 137 223.5> 413 122<154.5 245> 552 118<142 317 142 142>
VStem: 35 105.5 191 140<391.5 403>
LayerCount: 2
Back
Fore
SplineSet
39 670 m 1
 317 670 l 1
 317 552 l 1
 142 552 l 1x38
 139 526 l 1
 139 526 172 535 199 535 c 0
 291 535 331 512 331 409 c 0
 331 304 270 273 177 273 c 0
 115 273 20 296 20 296 c 1
 31 393 l 1
 31 393 110 381 164 381 c 0
 181 381 191 386 191 397 c 0
 191 409 184 413 165 413 c 0
 144 413 118 406 118 406 c 1
 31 417 l 1xf8
 39 670 l 1
EndSplineSet
Substitution2: "Single Substitution lookup 5 subtable" fiveinferior
EndChar
StartChar: sixsuperior
Encoding: 8310 8310 261
Width: 350
Flags: MW
HStem: 273 104<162 186 162 221.5> 433 102<178.5 185.5> 564 106<172.5 207 137.5 212.5>
VStem: 21 123<409.5 426 524.5 525 409.5 548.5> 203 128<396.5 415>
LayerCount: 2
Back
Fore
SplineSet
311 651 m 1
 302 555 l 1
 302 555 237 564 188 564 c 0xb8
 157 564 147 550 144 525 c 0
 144 524 165 535 192 535 c 0xf8
 285 535 331 500 331 404 c 0
 331 308 267 273 176 273 c 0
 63 273 21 340 21 468 c 0
 21 629 92 670 183 670 c 0
 231 670 311 651 311 651 c 1
177 433 m 0xf8
 157 433 144 426 144 426 c 1
 144 393 148 377 176 377 c 0
 196 377 203 388 203 405 c 0
 203 425 194 433 177 433 c 0xf8
EndSplineSet
Substitution2: "Single Substitution lookup 5 subtable" sixinferior
EndChar
StartChar: sevensuperior
Encoding: 8311 8311 262
Width: 350
Flags: MW
HStem: 536 134<42 309 42 171>
VStem: 171 138<521 670 536 670>
LayerCount: 2
Back
Fore
SplineSet
42 536 m 1
 42 670 l 1
 309 670 l 1
 309 540 l 1
 205 273 l 1
 73 300 l 1
 171 521 l 1
 171 536 l 1
 42 536 l 1
EndSplineSet
Substitution2: "Single Substitution lookup 5 subtable" seveninferior
EndChar
StartChar: eightsuperior
Encoding: 8312 8312 263
Width: 350
Flags: MW
HStem: 273 98<166.5 182 166.5 217> 574 96<166.5 181.5>
VStem: 12 139<388 407.5 388 412.5> 19 137<539.5 556 539 606.5> 193 137<540 556> 197 139<387 407.5>
LayerCount: 2
Back
Fore
SplineSet
174 670 m 0xd8
 261 670 330 656 330 567 c 0xe8
 330 513 311 496 276 475 c 1
 316 455 336 441 336 382 c 0
 336 291 260 273 174 273 c 0
 88 273 12 296 12 384 c 0xe4
 12 441 36 454 72 476 c 1
 39 496 19 512 19 567 c 0
 19 646 87 670 174 670 c 0xd8
174 371 m 0xe4
 190 371 197 377 197 397 c 0
 197 418 182 431 182 431 c 1
 167 431 l 1
 167 431 151 418 151 397 c 0
 151 379 159 371 174 371 c 0xe4
174 574 m 0xd8
 159 574 156 564 156 548 c 0
 156 530 167 519 167 519 c 1
 182 519 l 1
 182 519 193 530 193 548 c 0
 193 564 189 574 174 574 c 0xd8
EndSplineSet
Substitution2: "Single Substitution lookup 5 subtable" eightinferior
EndChar
StartChar: zeroinferior
Encoding: 8320 8320 423
Width: 350
Flags: MW
HStem: -10 119<167 183 167 237> 269 118<166.5 183.5>
VStem: 14 161 175 160
LayerCount: 2
Back
Fore
SplineSet
175 387 m 0xd0
 300 387 335 331 335 189 c 0xd0
 335 47 299 -10 175 -10 c 0
 51 -10 14 47 14 189 c 0xe0
 14 331 54 387 175 387 c 0xd0
175 269 m 0
 158 269 155 267 155 189 c 0xd0
 155 112 159 109 175 109 c 0
 191 109 195 112 195 189 c 0xe0
 195 267 192 269 175 269 c 0
EndSplineSet
Substitution2: "'frac' Diagonal Fractions in Latin lookup 1 subtable" zerosuperior
EndChar
StartChar: oneinferior
Encoding: 8321 8321 424
Width: 350
Flags: MW
HStem: 0 21G<140 297 140 140>
VStem: 140 157<0 221 221 221>
LayerCount: 2
Back
Fore
SplineSet
21 315 m 1
 162 397 l 1
 297 397 l 1
 297 0 l 1
 140 0 l 1
 140 221 l 1
 57 187 l 1
 21 315 l 1
EndSplineSet
Substitution2: "'frac' Diagonal Fractions in Latin lookup 1 subtable" onesuperior
EndChar
StartChar: twoinferior
Encoding: 8322 8322 425
Width: 350
Flags: MW
HStem: 0 117<194 302 194 302> 287 114<140 155>
VStem: 44 258<0 112 112 112> 183 126<248.5 271.5>
LayerCount: 2
Back
Fore
SplineSet
302 0 m 1xa0
 44 0 l 1
 44 112 l 1xa0
 99 162 l 2
 155 216 183 233 183 264 c 0
 183 279 173 287 137 287 c 0
 99 287 52 282 52 282 c 1
 46 385 l 1
 46 385 112 401 168 401 c 0
 269 401 309 360 309 282 c 0
 309 215 282 197 214 132 c 1xd0
 194 117 l 1
 302 117 l 1
 302 0 l 1xa0
EndSplineSet
Substitution2: "'frac' Diagonal Fractions in Latin lookup 1 subtable" twosuperior
EndChar
StartChar: threeinferior
Encoding: 8323 8323 426
Width: 350
Flags: MW
HStem: -10 111<138 151 121 214.5> 139 102<66 143 143 148 66 143> 277 110<131 146>
VStem: 174 140<255.5 266> 179 140<111 126>
LayerCount: 2
Back
Fore
SplineSet
39 272 m 1xe8
 36 371 l 1
 36 371 111 387 151 387 c 0
 261 387 314 362 314 277 c 0xf0
 314 234 304 216 278 198 c 1
 304 178 319 161 319 118 c 0
 319 17 264 -10 165 -10 c 0
 111 -10 33 6 33 6 c 1
 36 107 l 1
 36 107 103 101 139 101 c 0
 163 101 179 102 179 120 c 0
 179 132 172 137 148 139 c 2xe8
 66 139 l 1
 66 241 l 1
 143 241 l 2
 165 241 174 247 174 259 c 0
 174 273 158 277 134 277 c 0xf0
 94 277 39 272 39 272 c 1xe8
EndSplineSet
Substitution2: "'frac' Diagonal Fractions in Latin lookup 1 subtable" threesuperior
EndChar
StartChar: fourinferior
Encoding: 8324 8324 427
Width: 350
Flags: MW
HStem: 0 161<148 177 148 324> 48 113<148 177 148 177 324 339>
VStem: 177 147<0 48 0 48 161 216 216 216>
LayerCount: 2
Back
Fore
SplineSet
177 0 m 1xa0
 177 48 l 1
 14 48 l 1
 14 146 l 1x60
 68 397 l 1
 226 397 l 1
 148 161 l 1
 177 161 l 1
 177 216 l 1
 324 234 l 1
 324 161 l 1
 339 161 l 1xa0
 339 48 l 1
 324 48 l 1x60
 324 0 l 1
 177 0 l 1xa0
EndSplineSet
Substitution2: "'frac' Diagonal Fractions in Latin lookup 1 subtable" foursuperior
EndChar
StartChar: fiveinferior
Encoding: 8325 8325 428
Width: 350
Flags: MW
HStem: -10 108<145 171.5 136 222.5> 130 122<153.5 244> 269 118<141 316 141 141>
VStem: 34 105.5 190 140<108.5 120>
LayerCount: 2
Back
Fore
SplineSet
38 387 m 1
 316 387 l 1
 316 269 l 1
 141 269 l 1xb8
 138 243 l 1
 138 243 171 252 198 252 c 0
 290 252 330 229 330 126 c 0
 330 21 269 -10 176 -10 c 0
 114 -10 19 13 19 13 c 1
 30 110 l 1
 30 110 109 98 163 98 c 0
 180 98 190 103 190 114 c 0
 190 126 183 130 164 130 c 0
 143 130 117 123 117 123 c 1
 30 134 l 1xf8
 38 387 l 1
EndSplineSet
Substitution2: "'frac' Diagonal Fractions in Latin lookup 1 subtable" fivesuperior
EndChar
StartChar: sixinferior
Encoding: 8326 8326 429
Width: 350
Flags: MW
HStem: -10 104<161 185 161 220.5> 150 102<177.5 184.5> 281 106<171.5 206 136.5 211.5>
VStem: 20 123<126.5 143 241.5 242 126.5 265.5> 202 128<113.5 132>
LayerCount: 2
Back
Fore
SplineSet
310 368 m 1
 301 272 l 1
 301 272 236 281 187 281 c 0xb8
 156 281 146 267 143 242 c 0
 143 241 164 252 191 252 c 0xf8
 284 252 330 217 330 121 c 0
 330 25 266 -10 175 -10 c 0
 62 -10 20 57 20 185 c 0
 20 346 91 387 182 387 c 0
 230 387 310 368 310 368 c 1
176 150 m 0xf8
 156 150 143 143 143 143 c 1
 143 110 147 94 175 94 c 0
 195 94 202 105 202 122 c 0
 202 142 193 150 176 150 c 0xf8
EndSplineSet
Substitution2: "'frac' Diagonal Fractions in Latin lookup 1 subtable" sixsuperior
EndChar
StartChar: seveninferior
Encoding: 8327 8327 430
Width: 350
Flags: MW
HStem: -10 21G<204 204> 253 134<41 308 41 170>
VStem: 170 138<238 387 253 387>
LayerCount: 2
Back
Fore
SplineSet
41 253 m 1
 41 387 l 1
 308 387 l 1
 308 257 l 1
 204 -10 l 1
 72 17 l 1
 170 238 l 1
 170 253 l 1
 41 253 l 1
EndSplineSet
Substitution2: "'frac' Diagonal Fractions in Latin lookup 1 subtable" sevensuperior
EndChar
StartChar: eightinferior
Encoding: 8328 8328 431
Width: 350
Flags: MW
HStem: -10 98<166.5 182 166.5 217> 291 96<166.5 181.5>
VStem: 12 139<105 124.5 105 129.5> 19 137<256.5 273 256 323.5> 193 137<257 273> 197 139<104 124.5>
LayerCount: 2
Back
Fore
SplineSet
174 387 m 0xd8
 261 387 330 373 330 284 c 0xe8
 330 230 311 213 276 192 c 1
 316 172 336 158 336 99 c 0
 336 8 260 -10 174 -10 c 0
 88 -10 12 13 12 101 c 0xe4
 12 158 36 171 72 193 c 1
 39 213 19 229 19 284 c 0
 19 363 87 387 174 387 c 0xd8
174 88 m 0xe4
 190 88 197 94 197 114 c 0
 197 135 182 148 182 148 c 1
 167 148 l 1
 167 148 151 135 151 114 c 0
 151 96 159 88 174 88 c 0xe4
174 291 m 0xd8
 159 291 156 281 156 265 c 0
 156 247 167 236 167 236 c 1
 182 236 l 1
 182 236 193 247 193 265 c 0
 193 281 189 291 174 291 c 0xd8
EndSplineSet
Substitution2: "'frac' Diagonal Fractions in Latin lookup 1 subtable" eightsuperior
EndChar
StartChar: nineinferior
Encoding: 8329 8329 432
Width: 350
Flags: MW
HStem: -10 21G<142 211.5> -10 106<142 176.5 136.5 211.5> 125 102<163.5 170.5> 283 104<163 187>
VStem: 23 123<245 263.5 245 303> 205 123<135 135.5 234 250.5>
LayerCount: 2
Back
Fore
SplineSet
33 9 m 1x9c
 42 105 l 1
 42 105 112 96 161 96 c 0x5c
 192 96 202 110 205 135 c 0
 205 136 184 125 157 125 c 0x7c
 69 125 23 163 23 256 c 0
 23 350 84 387 173 387 c 0
 284 387 328 323 328 192 c 0
 328 31 257 -10 166 -10 c 0x5c
 118 -10 33 9 33 9 c 1x9c
172 227 m 0x7c
 192 227 205 234 205 234 c 1
 205 267 201 283 173 283 c 0
 153 283 146 272 146 255 c 0
 146 235 155 227 172 227 c 0x7c
EndSplineSet
Substitution2: "'frac' Diagonal Fractions in Latin lookup 1 subtable" ninesuperior
EndChar
StartChar: Euro
Encoding: 8364 8364 245
Width: 550
Flags: MW
HStem: -13 193<344 373.5> 245 60<15 40 15 42 15 40 274 495 274 274> 367 60<15 43 15 40 277 495> 478 192<346 366.5 231.5 409.5>
VStem: 40 229<305 331 331 367 305 367>
LayerCount: 2
Back
Fore
SplineSet
15 367 m 1
 15 427 l 1
 43 427 l 1
 59 610 133 670 330 670 c 0
 403 670 531 644 531 644 c 1
 525 468 l 1
 525 468 444 478 375 478 c 0
 317 478 289 470 277 427 c 1
 495 427 l 1
 495 367 l 1
 269 367 l 1
 269 331 l 1
 269 305 l 1
 495 305 l 1
 495 245 l 1
 274 245 l 1
 285 189 313 180 375 180 c 0
 444 180 528 185 528 185 c 1
 531 13 l 1
 531 13 427 -13 320 -13 c 0
 129 -13 57 47 42 245 c 1
 15 245 l 1
 15 305 l 1
 40 305 l 1
 40 331 l 1
 40 367 l 1
 15 367 l 1
EndSplineSet
EndChar
StartChar: trademark
Encoding: 8482 8482 158
Width: 592
Flags: MW
HStem: 331 313<266 348 41 266 475 475 475 557> 565 79<41 112 41 241 200 200 200 241>
VStem: 112 88<332 565 332 565> 266 82<331 505> 475 82<331 505 505 505>
LayerCount: 2
Back
Fore
SplineSet
112 565 m 1x78
 41 565 l 1
 41 644 l 1
 241 644 l 1
 241 565 l 1
 200 565 l 1
 200 332 l 1
 112 332 l 1
 112 565 l 1x78
348 331 m 1
 266 331 l 1
 266 644 l 1
 369 644 l 1x78
 410 486 l 1
 455 644 l 1
 557 644 l 1
 557 331 l 1
 475 331 l 1
 475 505 l 1
 441 352 l 1
 386 352 l 1xb8
 348 505 l 1
 348 331 l 1
EndSplineSet
EndChar
StartChar: Omega
Encoding: 8486 8486 278
Width: 550
Flags: MW
HStem: 0 180<40 108 40 245 40 108 440 510> 537 133<241 308.5>
VStem: 40 205<0 170 0 180 0 180> 60 143<295 439 295 471> 304 206<0 170 170 170> 346 143<296 439>
LayerCount: 2
Back
Fore
SplineSet
40 180 m 1xe4
 108 180 l 2
 106 181 60 212 60 376 c 0
 60 566 96 670 275 670 c 0
 454 670 489 566 489 376 c 0
 489 216 445 183 440 180 c 2xd4
 510 180 l 1
 510 0 l 1
 304 0 l 1
 304 170 l 1xd8
 304 170 346 224 346 366 c 0
 346 512 342 537 275 537 c 0
 207 537 203 512 203 366 c 0xd4
 203 224 245 170 245 170 c 1
 245 0 l 1
 40 0 l 1
 40 180 l 1xe4
EndSplineSet
EndChar
StartChar: partialdiff
Encoding: 8706 8706 414
Width: 550
Flags: MW
HStem: -13 168<244 277.5 244 350> 278 170<244 256 173.5 273> 520 170<212.5 262.5>
VStem: 18 195<202.5 237.5 202.5 293.5> 323 195
LayerCount: 2
Back
Fore
SplineSet
68 475 m 1
 63 637 l 1
 63 637 167 690 258 690 c 0
 441 690 518 568 518 334 c 0
 518 102 441 -13 259 -13 c 0
 104 -13 18 66 18 221 c 0
 18 366 102 448 245 448 c 0
 267 448 318 439 318 439 c 1
 310 497 286 520 239 520 c 0
 180 520 68 475 68 475 c 1
260 278 m 0
 228 278 213 254 213 221 c 0
 213 184 229 155 259 155 c 0
 296 155 321 188 323 271 c 1
 310 275 286 278 260 278 c 0
EndSplineSet
EndChar
StartChar: Delta
Encoding: 8710 8710 277
Width: 550
Flags: MW
HStem: 0 179<256 295 256 542> 477 182<263 263 263 280>
VStem: 12 530<0 0>
LayerCount: 2
Back
Fore
SplineSet
12 0 m 1
 109 659 l 1
 432 659 l 1
 542 0 l 1
 12 0 l 1
263 477 m 1
 256 179 l 1
 295 179 l 1
 280 477 l 1
 263 477 l 1
EndSplineSet
EndChar
StartChar: product
Encoding: 8719 8719 410
Width: 550
Flags: MW
HStem: 584 175<5 51 5 545 241 307 241 241 496 496 496 545>
VStem: 51 190<-181 584 -181 584> 307 189<-181 584 -181 584>
LayerCount: 2
Back
Fore
SplineSet
307 -181 m 1
 307 584 l 1
 241 584 l 1
 241 -181 l 1
 51 -181 l 1
 51 584 l 1
 5 584 l 1
 5 759 l 1
 545 759 l 1
 545 584 l 1
 496 584 l 1
 496 -181 l 1
 307 -181 l 1
EndSplineSet
EndChar
StartChar: summation
Encoding: 8721 8721 145
Width: 568
Flags: MW
HStem: -180 200<277 558 277 558> 560 200<279 558 279 279>
VStem: 18 540<-180 -10 -10 -10 586 760>
LayerCount: 2
Back
Fore
SplineSet
253 290 m 1
 18 586 l 1
 18 760 l 1
 558 760 l 1
 558 560 l 1
 279 560 l 1
 463 346 l 1
 463 239 l 1
 277 20 l 1
 558 20 l 1
 558 -180 l 1
 18 -180 l 1
 18 -10 l 1
 253 290 l 1
EndSplineSet
EndChar
StartChar: minus
Encoding: 8722 8722 181
Width: 550
Flags: MW
HStem: 164 180<62 488 62 488>
VStem: 62 426<164 344 164 344>
LayerCount: 2
Back
Fore
SplineSet
62 164 m 1
 62 344 l 1
 488 344 l 1
 488 164 l 1
 62 164 l 1
EndSplineSet
EndChar
StartChar: radical
Encoding: 8730 8730 409
Width: 690
Flags: MW
HStem: 265 184<0 279 0 100>
VStem: 0 690<265 791 449 791>
LayerCount: 2
Back
Fore
SplineSet
0 265 m 1
 0 449 l 1
 279 449 l 1
 342 128 l 1
 458 791 l 1
 690 791 l 1
 464 -129 l 1
 221 -129 l 1
 100 265 l 1
 0 265 l 1
EndSplineSet
EndChar
StartChar: infinity
Encoding: 8734 8734 363
Width: 673
Flags: MW
HStem: 126 140<171.5 198.5 171.5 201 474.5 501.5> 416 141<171.5 198.5 474.5 502>
VStem: 24 113<308.5 373.5 308.5 407.5> 536 113<308.5 373.5>
LayerCount: 2
Back
Fore
SplineSet
167 126 m 0
 69 126 24 209 24 341 c 0
 24 474 69 557 167 557 c 0
 235 557 293 522 336 466 c 1
 380 522 436 557 505 557 c 0
 603 557 649 474 649 341 c 0
 649 209 603 126 503 126 c 0
 436 126 379 161 336 216 c 1
 293 161 235 126 167 126 c 0
272 341 m 1
 243 406 218 416 179 416 c 0
 164 416 137 406 137 341 c 0
 137 276 164 266 179 266 c 0
 218 266 243 276 272 341 c 1
401 341 m 1
 431 276 455 266 494 266 c 0
 509 266 536 276 536 341 c 0
 536 406 510 416 494 416 c 0
 455 416 431 406 401 341 c 1
EndSplineSet
EndChar
StartChar: integral
Encoding: 8747 8747 413
Width: 550
Flags: MW
HStem: -195 159<73 266> 531 159<284 477>
VStem: 73 404
LayerCount: 2
Back
Fore
SplineSet
152 -16 m 2
 184 511 l 2
 194 644 219 690 349 690 c 0
 381 690 477 678 477 678 c 1
 477 531 l 1
 417 531 399 530 398 511 c 2
 366 -16 l 2
 356 -149 331 -195 201 -195 c 0
 169 -195 73 -183 73 -183 c 1
 73 -36 l 1
 133 -36 152 -35 152 -16 c 2
EndSplineSet
EndChar
StartChar: approxequal
Encoding: 8776 8776 364
Width: 550
Flags: MW
HStem: 11 185<353 396.5 353 405> 55 185<156 199> 261 185<353 396.5 353 405> 305 185<156 199>
VStem: 61 426<64 187 64 437>
LayerCount: 2
Back
Fore
SplineSet
479 235 m 1x98
 487 64 l 1
 487 64 439 11 371 11 c 0xa8
 319 11 218 55 180 55 c 0
 132 55 71 15 71 15 c 1
 61 187 l 1
 61 187 115 240 188 240 c 0x58
 239 240 329 196 377 196 c 0
 416 196 479 235 479 235 c 1x98
479 485 m 1
 487 314 l 1
 487 314 439 261 371 261 c 0x68
 319 261 218 305 180 305 c 0
 132 305 71 265 71 265 c 1
 61 437 l 1
 61 437 115 490 188 490 c 0x58
 239 490 329 446 377 446 c 0
 416 446 479 485 479 485 c 1
EndSplineSet
EndChar
StartChar: notequal
Encoding: 8800 8800 221
Width: 550
Flags: MW
HStem: 57 170<59 109 59 196 328 491 59 242> 282 170<59 311 59 224 59 356 442 491>
VStem: 59 432<57 227 57 227 282 452 57 452>
LayerCount: 2
Back
Fore
SplineSet
59 282 m 1
 59 452 l 1
 311 452 l 1
 350 528 l 1
 481 528 l 1
 442 452 l 1
 491 452 l 1
 491 282 l 1
 356 282 l 1
 328 227 l 1
 491 227 l 1
 491 57 l 1
 242 57 l 1
 202 -23 l 1
 68 -23 l 1
 109 57 l 1
 59 57 l 1
 59 227 l 1
 196 227 l 1
 224 282 l 1
 59 282 l 1
EndSplineSet
EndChar
StartChar: lessequal
Encoding: 8804 8804 274
Width: 550
Flags: MW
HStem: 31 160<88 279 88 464 88 279>
VStem: 59 424<257 316 376 435 435 435>
LayerCount: 2
Back
Fore
SplineSet
483 376 m 1
 221 350 l 1
 483 316 l 1
 483 130 l 1
 464 135 l 1
 464 31 l 1
 88 31 l 1
 88 191 l 1
 279 191 l 1
 59 257 l 1
 59 435 l 1
 483 557 l 1
 483 376 l 1
EndSplineSet
EndChar
StartChar: greaterequal
Encoding: 8805 8805 275
Width: 550
Flags: MW
HStem: 31 160<106 268 106 268 268 482>
VStem: 64 42<130 142 142 191>
LayerCount: 2
Back
Fore
SplineSet
326 350 m 1
 64 376 l 1
 64 557 l 1
 488 435 l 1
 488 257 l 1
 268 191 l 1
 106 191 l 1
 106 142 l 1
 64 130 l 1
 64 316 l 1
 326 350 l 1
106 31 m 1
 106 142 l 1
 268 191 l 1
 482 191 l 1
 482 31 l 1
 106 31 l 1
EndSplineSet
EndChar
StartChar: lozenge
Encoding: 9674 9674 411
Width: 550
Flags: MW
HStem: 0 174<158 284 267 284 267 393> 486 174<267 284 267 267>
VStem: -1 552<324 324>
LayerCount: 2
Back
Fore
SplineSet
158 0 m 1
 -1 324 l 1
 158 660 l 1
 393 660 l 1
 551 324 l 1
 393 0 l 1
 158 0 l 1
284 174 m 1
 338 324 l 1
 284 486 l 1
 267 486 l 1
 212 324 l 1
 267 174 l 1
 284 174 l 1
EndSplineSet
EndChar
StartChar: dotlessj
Encoding: 63166 63166 407
Width: 280
Flags: MW
HStem: -220 21G<11 11> 485 20G<28 252 252 252>
VStem: 28 224<66 73 73 505>
LayerCount: 2
Back
Fore
SplineSet
28 66 m 2
 28 505 l 1
 252 505 l 1
 252 73 l 2
 252 -128 209 -158 11 -220 c 1
 -61 -50 l 1
 20 -12 28 -6 28 66 c 2
EndSplineSet
EndChar
StartChar: commaaccent
Encoding: 63171 63171 7
Width: 215
Flags: MW
HStem: -388 296<-24 240 -2 161>
VStem: -24 264
LayerCount: 2
Back
Fore
SplineSet
-24 -388 m 1
 -2 -92 l 1
 240 -92 l 1
 161 -388 l 1
 -24 -388 l 1
EndSplineSet
EndChar
StartChar: acute.cap
Encoding: 65561 -1 290
Width: 833
Flags: MW
HStem: 713 136<133 266 90 375>
VStem: 90 285<713 849>
LayerCount: 2
Back
Fore
SplineSet
133 849 m 1
 375 849 l 1
 266 713 l 1
 90 713 l 1
 133 849 l 1
EndSplineSet
EndChar
StartChar: braceleft.cap
Encoding: 65558 -1 287
Width: 360
Flags: MW
HStem: -120 180<254 344> -120 895<255 344 255 344> 595 180<255 344>
VStem: 46 227<-25.5 143.5>
LayerCount: 2
Back
Fore
SplineSet
276 225 m 0x50
 276 195 273 160 273 127 c 0
 273 77 283 65 344 60 c 1
 344 -120 l 1
 164 -120 46 -103 46 52 c 0
 46 91 59 179 59 204 c 0
 59 224 44 238 15 244 c 1
 15 413 l 1
 44 418 59 431 59 447 c 0
 59 475 46 563 46 600 c 0
 46 762 166 775 344 775 c 1
 344 595 l 1
 283 590 273 582 273 532 c 0xb0
 273 499 276 480 276 451 c 0
 276 381 263 359 220 335 c 1
 263 311 276 284 276 225 c 0x50
EndSplineSet
Position2: "'cpsp' Capital Spacing in Latin lookup 0 subtable" dx=5 dy=0 dh=10 dv=0
EndChar
StartChar: braceright.cap
Encoding: 65559 -1 288
Width: 360
Flags: MW
HStem: -105 180<16 105> -105 895<16 105> 610 180<16 106>
VStem: 87 227<-11 154.5>
LayerCount: 2
Back
Fore
SplineSet
84 445 m 0x50
 84 475 87 510 87 543 c 0
 87 593 77 605 16 610 c 1
 16 790 l 1
 196 790 314 773 314 618 c 0
 314 579 301 491 301 466 c 0
 301 446 316 432 345 426 c 1
 345 257 l 1
 316 252 301 239 301 223 c 0
 301 195 314 107 314 70 c 0
 314 -92 194 -105 16 -105 c 1
 16 75 l 1
 77 80 87 88 87 138 c 0xb0
 87 171 84 190 84 219 c 0
 84 289 97 311 140 335 c 1
 97 359 84 386 84 445 c 0x50
EndSplineSet
Position2: "'cpsp' Capital Spacing in Latin lookup 0 subtable" dx=5 dy=0 dh=10 dv=0
EndChar
